{"glyphs":{"0":{"ha":1260,"x_min":81,"x_max":1179,"o":"m 1179 465 q 1137 263 1179 354 q 1021 109 1095 173 q 846 10 947 45 q 631 -25 746 -25 q 483 -9 553 -25 q 351 36 412 6 q 240 109 290 66 q 155 206 190 152 q 100 326 119 260 q 81 465 81 391 q 100 605 81 539 q 155 724 119 670 q 240 822 190 779 q 351 895 290 865 q 483 940 412 924 q 631 956 553 956 q 846 921 746 956 q 1021 822 947 886 q 1137 667 1095 758 q 1179 465 1179 576 m 928 465 q 903 590 928 536 q 838 682 879 644 q 743 738 797 719 q 631 757 690 757 q 517 738 572 757 q 422 682 463 719 q 356 590 381 644 q 332 465 332 536 q 356 340 332 395 q 422 249 381 286 q 517 193 463 212 q 631 174 572 174 q 743 193 690 174 q 838 249 797 212 q 903 340 879 286 q 928 465 928 395 z "},"1":{"ha":667,"x_min":14,"x_max":514,"o":"m 264 0 l 264 746 l 14 668 l 14 854 l 264 932 l 514 932 l 514 0 l 264 0 z "},"2":{"ha":1120,"x_min":56,"x_max":1039,"o":"m 56 0 l 56 167 q 371 316 237 250 q 593 435 505 382 q 724 533 681 489 q 766 619 766 578 q 764 645 766 631 q 753 675 762 660 q 728 705 745 690 q 684 731 712 720 q 613 750 655 743 q 511 757 571 757 q 397 750 456 757 q 279 730 337 743 q 166 699 220 717 q 66 657 112 680 l 66 879 q 274 933 160 911 q 515 956 389 956 q 728 935 634 956 q 886 874 821 913 q 985 778 951 834 q 1019 650 1019 721 q 1011 576 1019 610 q 981 509 1002 542 q 922 444 959 477 q 828 374 885 411 q 693 295 772 338 q 510 201 614 253 l 1039 201 l 1039 0 l 56 0 z "},"3":{"ha":1103,"x_min":62,"x_max":1015,"o":"m 755 497 q 875 459 825 481 q 956 409 924 437 q 1001 344 987 380 q 1015 267 1015 309 q 976 138 1015 193 q 866 47 936 83 q 700 -7 795 11 q 493 -25 604 -25 q 356 -19 418 -25 q 241 -2 294 -12 q 144 21 189 8 q 62 46 100 33 l 62 269 q 157 229 104 247 q 266 199 210 212 q 378 180 321 186 q 486 174 435 174 q 633 185 578 174 q 717 213 688 196 q 754 250 745 231 q 762 288 762 270 q 743 339 762 317 q 675 375 724 361 q 544 396 627 389 q 335 404 461 404 l 335 589 q 525 593 450 589 q 646 608 601 598 q 710 635 692 618 q 729 675 729 651 q 727 691 729 682 q 716 709 724 700 q 692 728 708 719 q 650 743 677 736 q 583 754 623 750 q 486 758 543 758 q 379 753 433 758 q 272 736 324 747 q 171 710 220 726 q 81 673 122 694 l 81 896 q 278 941 173 926 q 486 956 383 956 q 677 942 587 956 q 834 899 767 928 q 941 822 902 869 q 981 708 981 775 q 968 640 981 672 q 928 581 956 608 q 859 532 901 553 q 755 497 816 511 z "},"4":{"ha":1131,"x_min":35,"x_max":1089,"o":"m 878 183 l 878 0 l 628 0 l 628 183 l 35 183 l 35 382 l 568 932 l 878 932 l 878 382 l 1089 382 l 1089 183 l 878 183 m 628 713 l 307 382 l 628 382 l 628 713 z "},"5":{"ha":1132,"x_min":81,"x_max":1051,"o":"m 972 734 l 353 734 l 353 591 q 401 598 374 595 q 456 604 427 602 q 513 607 484 606 q 571 608 543 608 q 773 588 684 608 q 924 528 863 568 q 1019 431 986 489 q 1051 298 1051 374 q 1021 169 1051 229 q 925 67 991 110 q 755 -1 860 24 q 503 -25 651 -25 q 372 -20 434 -25 q 256 -6 310 -15 q 158 14 202 3 q 81 36 113 24 l 81 256 q 150 228 110 242 q 242 201 189 213 q 360 181 294 189 q 509 174 427 174 q 730 206 661 174 q 800 294 800 238 q 724 392 800 361 q 504 424 648 424 q 409 420 456 424 q 321 411 363 417 q 243 398 279 406 q 179 382 208 390 l 118 382 l 118 932 l 972 932 l 972 734 z "},"6":{"ha":1187,"x_min":81,"x_max":1118,"o":"m 685 766 q 530 749 595 766 q 420 702 464 732 q 355 632 377 672 q 330 545 333 591 q 405 577 366 562 q 488 604 444 592 q 584 623 533 616 q 694 629 635 629 q 862 612 785 629 q 996 556 939 594 q 1086 459 1053 518 q 1118 318 1118 400 q 1080 162 1118 227 q 976 55 1042 97 q 819 -6 909 14 q 624 -25 729 -25 q 403 5 503 -25 q 231 94 303 35 q 120 244 159 154 q 81 454 81 334 q 116 649 81 557 q 223 808 151 740 q 409 916 296 876 q 675 956 521 956 q 768 952 720 956 q 863 943 817 949 q 950 930 909 937 q 1022 914 991 922 l 1022 705 q 967 725 1000 714 q 893 745 935 736 q 799 760 850 754 q 685 766 747 766 m 335 339 q 366 281 342 311 q 427 226 389 251 q 515 185 465 201 q 628 170 566 170 q 721 177 677 170 q 797 201 765 185 q 848 242 829 218 q 867 301 867 267 q 852 363 867 338 q 808 405 837 389 q 738 429 780 421 q 643 436 696 436 q 555 428 599 436 q 471 407 511 420 q 396 376 431 393 q 335 339 361 358 z "},"7":{"ha":1000,"x_min":28,"x_max":958,"o":"m 456 0 l 175 0 l 661 729 l 28 729 l 28 932 l 958 932 l 958 760 l 456 0 z "},"8":{"ha":1186,"x_min":61,"x_max":1125,"o":"m 863 510 q 982 463 932 488 q 1063 408 1031 438 q 1110 340 1095 377 q 1125 257 1125 302 q 1089 137 1125 190 q 985 49 1053 85 q 817 -6 916 13 q 593 -25 718 -25 q 369 -6 467 -25 q 201 49 270 13 q 97 137 133 85 q 61 257 61 190 q 76 340 61 302 q 123 408 91 377 q 204 463 155 438 q 323 510 254 488 q 232 553 269 532 q 173 599 195 575 q 142 651 151 623 q 134 713 134 679 q 163 809 134 765 q 251 886 193 854 q 395 937 309 919 q 593 956 481 956 q 801 936 713 956 q 944 884 888 917 q 1027 806 1000 850 q 1054 713 1054 762 q 1045 651 1054 679 q 1014 599 1036 623 q 955 553 991 575 q 863 510 918 532 m 804 689 q 788 731 804 714 q 744 759 772 748 q 677 773 715 769 q 593 778 638 778 q 509 773 547 778 q 443 759 471 769 q 399 731 414 748 q 383 689 383 714 q 401 646 383 664 q 448 614 418 627 q 514 592 477 601 q 593 579 552 584 q 664 592 627 584 q 732 614 701 601 q 784 646 764 627 q 804 689 804 664 m 593 412 q 454 384 508 398 q 369 354 399 370 q 326 320 338 338 q 314 281 314 302 q 317 261 314 273 q 330 236 320 249 q 358 209 340 222 q 408 185 377 196 q 484 168 439 175 q 593 161 529 161 q 702 168 656 161 q 778 185 747 174 q 828 209 809 195 q 856 235 846 222 q 869 260 866 248 q 872 281 872 273 q 860 320 872 302 q 817 354 848 338 q 732 384 786 370 q 593 412 677 398 z "},"9":{"ha":1187,"x_min":69,"x_max":1107,"o":"m 489 164 q 652 181 584 164 q 765 228 720 198 q 832 299 810 258 q 857 386 854 339 q 783 354 822 369 q 700 327 744 338 q 604 308 655 315 q 493 301 553 301 q 326 319 403 301 q 191 375 248 337 q 102 471 134 412 q 69 612 69 530 q 107 769 69 704 q 212 875 145 833 q 368 936 278 917 q 564 956 458 956 q 784 926 684 956 q 956 836 884 896 q 1067 687 1028 777 q 1107 476 1107 597 q 1072 282 1107 373 q 962 122 1036 191 q 773 15 888 54 q 498 -25 658 -25 q 405 -22 453 -25 q 311 -13 357 -18 q 224 1 265 -7 q 151 17 182 9 l 151 225 q 206 205 174 216 q 280 185 238 195 q 375 170 323 176 q 489 164 427 164 m 852 591 q 822 650 845 620 q 761 704 798 680 q 672 745 723 729 q 559 761 621 761 q 466 753 509 761 q 390 729 422 745 q 339 688 358 713 q 321 629 321 663 q 336 567 321 593 q 379 525 351 541 q 449 502 408 509 q 545 494 491 494 q 632 503 589 494 q 716 524 676 511 q 791 555 756 537 q 852 591 826 572 z "},"A":{"ha":1270,"x_min":7,"x_max":1263,"o":"m 895 176 l 375 176 l 288 0 l 7 0 l 494 932 l 775 932 l 1263 0 l 982 0 l 895 176 m 465 358 l 806 358 l 636 701 l 465 358 z "},"B":{"ha":1292,"x_min":146,"x_max":1208,"o":"m 1208 257 q 1194 163 1208 203 q 1155 94 1180 123 q 1094 47 1129 65 q 1015 19 1058 29 q 923 4 972 8 q 822 0 874 0 l 146 0 l 146 932 l 810 932 q 890 928 850 932 q 967 916 930 925 q 1035 890 1004 907 q 1090 848 1067 874 q 1127 784 1114 821 q 1140 696 1140 747 q 1095 552 1140 605 q 954 481 1050 498 q 1070 460 1022 476 q 1149 417 1119 444 q 1194 350 1180 389 q 1208 257 1208 310 m 895 656 q 889 689 895 673 q 869 718 884 705 q 831 737 855 730 q 768 745 806 745 l 397 745 l 397 570 l 768 570 q 831 576 806 570 q 869 595 855 583 q 889 622 884 606 q 895 656 895 638 m 953 286 q 942 337 953 318 q 908 367 931 357 q 848 381 885 378 q 761 385 812 385 l 397 385 l 397 187 l 761 187 q 848 191 812 187 q 908 205 885 194 q 942 235 931 216 q 953 286 953 254 z "},"C":{"ha":1261,"x_min":83,"x_max":1173,"o":"m 1173 64 q 1074 27 1124 43 q 972 -1 1025 11 q 860 -19 919 -13 q 734 -25 802 -25 q 472 5 592 -25 q 266 97 353 36 q 132 251 180 159 q 83 465 83 342 q 132 680 83 588 q 266 833 180 772 q 472 925 353 895 q 734 956 592 956 q 860 949 802 956 q 972 931 919 943 q 1074 903 1025 920 q 1173 867 1124 887 l 1173 640 q 1091 682 1134 661 q 997 719 1048 703 q 884 746 945 736 q 745 757 822 757 q 548 732 626 757 q 422 667 469 708 q 357 574 376 627 q 338 465 338 522 q 346 392 338 428 q 373 323 354 355 q 422 264 392 291 q 498 217 453 237 q 605 186 544 197 q 745 175 665 175 q 884 185 822 175 q 997 211 945 195 q 1091 248 1048 227 q 1173 290 1134 269 l 1173 64 l 1173 64 z "},"D":{"ha":1371,"x_min":146,"x_max":1287,"o":"m 1287 467 q 1267 308 1287 377 q 1212 186 1248 238 q 1127 99 1177 135 q 1016 41 1077 63 q 884 10 955 20 q 737 0 814 0 l 146 0 l 146 932 l 736 932 q 883 922 812 932 q 1015 890 954 912 q 1126 833 1076 869 q 1212 746 1177 798 q 1267 625 1248 694 q 1287 467 1287 555 m 1034 467 q 1016 583 1034 534 q 961 665 999 633 q 861 713 922 697 q 710 729 799 729 l 397 729 l 397 203 l 710 203 q 861 219 799 203 q 961 268 922 235 q 1016 350 999 300 q 1034 467 1034 399 z "},"E":{"ha":1196,"x_min":146,"x_max":1099,"o":"m 146 0 l 146 932 l 1089 932 l 1089 733 l 404 733 l 404 579 l 1054 579 l 1054 380 l 404 380 l 404 199 l 1099 199 l 1099 0 l 146 0 z "},"F":{"ha":1105,"x_min":146,"x_max":1036,"o":"m 397 733 l 397 571 l 1003 571 l 1003 372 l 397 372 l 397 0 l 146 0 l 146 932 l 1036 932 l 1036 733 l 397 733 z "},"G":{"ha":1364,"x_min":83,"x_max":1239,"o":"m 746 956 q 1001 932 883 956 q 1217 872 1118 909 l 1217 644 q 1129 686 1178 666 q 1024 722 1081 707 q 902 747 967 738 q 765 757 837 757 q 609 744 675 757 q 495 709 543 731 q 417 659 448 688 q 369 597 387 630 q 345 531 351 565 q 338 465 338 497 q 343 405 338 437 q 365 340 349 372 q 410 277 381 307 q 484 224 438 248 q 594 188 530 201 q 747 174 659 174 q 825 176 792 174 q 886 184 859 179 q 938 195 913 189 q 987 210 962 202 l 987 322 l 705 322 l 705 526 l 1239 526 l 1239 50 q 1127 19 1189 33 q 999 -4 1065 5 q 866 -20 932 -14 q 741 -25 800 -25 q 565 -13 649 -25 q 408 25 481 -1 q 275 90 335 50 q 173 183 215 129 q 107 308 130 237 q 83 465 83 378 q 108 623 83 552 q 176 747 132 693 q 281 841 220 802 q 416 906 342 880 q 573 943 490 931 q 746 956 657 956 z "},"H":{"ha":1435,"x_min":146,"x_max":1289,"o":"m 1038 0 l 1038 389 l 397 389 l 397 0 l 146 0 l 146 932 l 397 932 l 397 593 l 1038 593 l 1038 932 l 1289 932 l 1289 0 l 1038 0 z "},"I":{"ha":543,"x_min":146,"x_max":397,"o":"m 146 0 l 146 932 l 397 932 l 397 0 l 146 0 z "},"J":{"ha":960,"x_min":0,"x_max":821,"o":"m 821 345 q 790 184 821 252 q 702 74 760 117 q 560 10 644 31 q 368 -11 476 -11 q 264 -6 317 -11 q 161 7 210 -1 q 70 23 111 14 q 0 39 28 31 l 0 257 q 62 234 28 245 q 138 212 96 222 q 230 197 180 203 q 342 191 281 191 q 451 205 408 191 q 522 246 495 220 q 559 307 548 272 q 570 385 570 342 l 570 932 l 821 932 l 821 345 z "},"K":{"ha":1293,"x_min":146,"x_max":1293,"o":"m 399 576 l 914 932 l 1251 932 l 624 485 l 1293 0 l 926 0 l 399 387 l 399 0 l 146 0 l 146 932 l 399 932 l 399 576 z "},"L":{"ha":1133,"x_min":146,"x_max":1078,"o":"m 146 0 l 146 932 l 397 932 l 397 204 l 1078 204 l 1078 0 l 146 0 z "},"M":{"ha":1727,"x_min":146,"x_max":1581,"o":"m 1331 0 l 1331 654 l 985 0 l 743 0 l 397 654 l 397 0 l 146 0 l 146 932 l 488 932 l 864 227 l 1240 932 l 1581 932 l 1581 0 l 1331 0 z "},"N":{"ha":1444,"x_min":146,"x_max":1299,"o":"m 1026 0 l 397 640 l 397 0 l 146 0 l 146 932 l 419 932 l 1048 289 l 1048 932 l 1299 932 l 1299 0 l 1026 0 z "},"O":{"ha":1435,"x_min":83,"x_max":1352,"o":"m 1352 465 q 1308 253 1352 345 q 1181 100 1263 161 q 982 6 1099 38 q 720 -25 865 -25 q 456 6 574 -25 q 256 100 338 38 q 128 253 173 161 q 83 465 83 345 q 128 677 83 585 q 256 831 173 769 q 456 924 338 892 q 720 956 574 956 q 982 924 865 956 q 1181 831 1099 892 q 1308 677 1263 769 q 1352 465 1352 585 m 1097 465 q 1081 569 1097 517 q 1022 663 1064 621 q 906 730 979 704 q 720 755 833 755 q 586 744 644 755 q 486 711 528 732 q 416 662 444 690 q 370 601 387 633 q 346 534 353 569 q 339 465 339 499 q 346 395 339 431 q 370 328 353 360 q 416 268 387 296 q 486 219 444 240 q 586 187 528 199 q 720 175 644 175 q 906 201 833 175 q 1022 268 979 227 q 1081 361 1064 309 q 1097 465 1097 413 z "},"P":{"ha":1255,"x_min":146,"x_max":1193,"o":"m 1193 614 q 1173 485 1193 544 q 1107 384 1152 427 q 990 318 1062 342 q 815 294 918 294 l 397 294 l 397 0 l 146 0 l 146 932 l 815 932 q 990 908 918 932 q 1107 843 1062 885 q 1173 742 1152 800 q 1193 614 1193 684 m 939 610 q 929 666 939 642 q 899 704 920 689 q 844 726 878 719 q 761 733 810 733 l 397 733 l 397 493 l 761 493 q 844 499 810 493 q 899 518 878 505 q 929 555 920 532 q 939 610 939 577 z "},"Q":{"ha":1435,"x_min":83,"x_max":1453,"o":"m 1352 465 q 1334 325 1352 389 q 1282 208 1316 261 q 1453 153 1377 172 l 1350 -31 q 1238 14 1295 -9 q 1124 62 1181 37 q 943 -3 1045 18 q 720 -25 842 -25 q 456 6 574 -25 q 256 100 338 38 q 128 253 173 161 q 83 465 83 345 q 128 677 83 585 q 256 831 173 769 q 456 924 338 892 q 720 956 574 956 q 982 924 865 956 q 1181 831 1099 892 q 1308 677 1263 769 q 1352 465 1352 585 m 1097 465 q 1081 569 1097 517 q 1022 663 1064 621 q 906 730 979 704 q 720 755 833 755 q 586 744 644 755 q 486 711 528 732 q 416 662 444 690 q 370 601 387 633 q 346 534 353 569 q 339 465 339 499 q 346 395 339 431 q 370 328 353 360 q 416 268 387 296 q 486 219 444 240 q 586 187 528 199 q 720 175 644 175 q 795 178 760 175 q 863 189 831 182 q 782 233 821 211 q 708 277 743 255 l 808 441 q 920 374 857 408 q 1053 306 983 339 q 1088 383 1078 342 q 1097 465 1097 423 z "},"R":{"ha":1283,"x_min":146,"x_max":1249,"o":"m 397 0 l 146 0 l 146 932 l 777 932 q 949 911 878 932 q 1064 851 1020 890 q 1129 758 1109 812 q 1149 636 1149 703 q 1132 533 1149 577 q 1087 457 1116 489 q 1022 404 1059 426 q 943 368 985 382 l 1249 0 l 954 0 l 672 343 l 397 343 l 397 0 m 895 637 q 887 684 895 665 q 863 714 880 703 q 815 732 845 726 q 742 737 786 737 l 397 737 l 397 538 l 742 538 q 815 543 786 538 q 863 561 845 549 q 887 591 880 572 q 895 637 895 610 z "},"S":{"ha":1174,"x_min":96,"x_max":1082,"o":"m 1004 669 q 935 699 978 682 q 836 729 891 715 q 717 754 781 744 q 585 764 652 764 q 492 760 530 764 q 428 751 454 757 q 386 739 401 746 q 363 724 371 732 q 352 709 355 717 q 350 696 350 702 q 370 660 350 675 q 426 633 391 645 q 508 611 461 621 q 607 589 555 600 q 716 565 660 578 q 824 534 772 551 q 924 493 877 516 q 1006 438 970 469 q 1061 366 1041 407 q 1082 273 1082 326 q 1058 158 1082 206 q 995 77 1034 110 q 903 23 955 43 q 793 -7 850 3 q 677 -22 736 -18 q 566 -25 618 -25 q 310 -2 427 -25 q 102 54 192 20 l 102 277 q 314 196 195 225 q 568 167 433 167 q 699 175 648 167 q 778 197 749 184 q 817 226 806 210 q 827 256 827 241 q 806 295 827 278 q 751 324 786 311 q 669 347 715 336 q 569 368 622 357 q 461 391 517 378 q 353 419 406 403 q 254 458 300 436 q 172 510 207 480 q 116 580 136 541 q 96 672 96 620 q 117 779 96 734 q 176 855 139 823 q 261 906 213 886 q 363 937 310 926 q 472 951 417 947 q 576 956 527 956 q 688 950 631 956 q 801 935 745 945 q 908 912 857 925 q 1004 885 960 899 l 1004 669 z "},"T":{"ha":1084,"x_min":21,"x_max":1064,"o":"m 668 729 l 668 0 l 416 0 l 416 729 l 21 729 l 21 932 l 1064 932 l 1064 729 l 668 729 z "},"U":{"ha":1385,"x_min":139,"x_max":1246,"o":"m 1246 314 q 1211 182 1246 244 q 1107 75 1177 121 q 935 2 1038 28 q 693 -25 831 -25 q 451 2 555 -25 q 277 75 347 28 q 174 182 208 121 q 139 314 139 244 l 139 932 l 390 932 l 390 404 q 402 316 390 357 q 447 243 414 274 q 539 193 479 212 q 693 175 598 175 q 846 193 787 175 q 938 243 905 212 q 983 316 971 274 q 994 404 994 357 l 994 932 l 1246 932 l 1246 314 l 1246 314 z "},"V":{"ha":1253,"x_min":7,"x_max":1246,"o":"m 771 0 l 478 0 l 7 932 l 288 932 l 627 231 l 965 932 l 1246 932 l 771 0 z "},"W":{"ha":1822,"x_min":14,"x_max":1808,"o":"m 1051 932 l 1289 285 l 1547 932 l 1808 932 l 1434 0 l 1154 0 l 911 627 l 668 0 l 389 0 l 14 932 l 275 932 l 528 298 l 771 932 l 1051 932 z "},"X":{"ha":1223,"x_min":20,"x_max":1204,"o":"m 762 478 l 1204 0 l 903 0 l 611 314 l 321 0 l 20 0 l 461 478 l 41 932 l 343 932 l 611 640 l 880 932 l 1182 932 l 762 478 z "},"Y":{"ha":1210,"x_min":28,"x_max":1182,"o":"m 730 380 l 730 0 l 479 0 l 479 380 l 28 932 l 310 932 l 606 557 l 900 932 l 1182 932 l 730 380 z "},"Z":{"ha":1162,"x_min":92,"x_max":1079,"o":"m 92 0 l 92 195 l 704 728 l 110 728 l 110 932 l 1065 932 l 1065 761 l 425 204 l 1079 204 l 1079 0 l 92 0 z "},"a":{"ha":1329,"x_min":77,"x_max":1187,"o":"m 936 0 l 936 92 q 832 45 888 65 q 718 10 777 24 q 594 -11 658 -4 q 467 -18 531 -18 q 321 -4 391 -18 q 197 42 251 10 q 110 125 142 74 q 77 252 77 177 q 128 409 77 346 q 286 511 180 471 q 553 573 391 551 q 936 607 715 595 l 936 627 q 924 672 936 650 q 879 712 911 695 q 791 741 847 730 q 648 751 735 751 q 513 744 580 751 q 384 725 446 737 q 267 696 322 713 q 165 663 211 680 l 165 886 q 272 910 213 899 q 395 930 331 922 q 524 944 458 939 q 648 949 589 949 q 865 929 766 949 q 1035 869 964 910 q 1147 766 1107 829 q 1187 618 1187 704 l 1187 0 l 936 0 m 936 425 q 689 410 791 420 q 521 386 588 399 q 415 357 454 372 q 358 325 377 341 q 335 292 339 309 q 330 262 330 276 q 339 231 330 246 q 370 204 348 216 q 429 186 392 193 q 521 179 465 179 q 642 189 583 179 q 753 215 701 198 q 853 254 806 231 q 936 302 899 277 l 936 425 z "},"b":{"ha":1292,"x_min":146,"x_max":1208,"o":"m 1208 257 q 1194 163 1208 203 q 1155 94 1180 123 q 1094 47 1129 65 q 1015 19 1058 29 q 923 4 972 8 q 822 0 874 0 l 146 0 l 146 932 l 810 932 q 890 928 850 932 q 967 916 930 925 q 1035 890 1004 907 q 1090 848 1067 874 q 1127 784 1114 821 q 1140 696 1140 747 q 1095 552 1140 605 q 954 481 1050 498 q 1070 460 1022 476 q 1149 417 1119 444 q 1194 350 1180 389 q 1208 257 1208 310 m 895 656 q 889 689 895 673 q 869 718 884 705 q 831 737 855 730 q 768 745 806 745 l 397 745 l 397 570 l 768 570 q 831 576 806 570 q 869 595 855 583 q 889 622 884 606 q 895 656 895 638 m 953 286 q 942 337 953 318 q 908 367 931 357 q 848 381 885 378 q 761 385 812 385 l 397 385 l 397 187 l 761 187 q 848 191 812 187 q 908 205 885 194 q 942 235 931 216 q 953 286 953 254 z "},"c":{"ha":1261,"x_min":83,"x_max":1173,"o":"m 1173 64 q 1074 27 1124 43 q 972 -1 1025 11 q 860 -19 919 -13 q 734 -25 802 -25 q 472 5 592 -25 q 266 97 353 36 q 132 251 180 159 q 83 465 83 342 q 132 680 83 588 q 266 833 180 772 q 472 925 353 895 q 734 956 592 956 q 860 949 802 956 q 972 931 919 943 q 1074 903 1025 920 q 1173 867 1124 887 l 1173 640 q 1091 682 1134 661 q 997 719 1048 703 q 884 746 945 736 q 745 757 822 757 q 548 732 626 757 q 422 667 469 708 q 357 574 376 627 q 338 465 338 522 q 346 392 338 428 q 373 323 354 355 q 422 264 392 291 q 498 217 453 237 q 605 186 544 197 q 745 175 665 175 q 884 185 822 175 q 997 211 945 195 q 1091 248 1048 227 q 1173 290 1134 269 l 1173 64 l 1173 64 z "},"d":{"ha":1371,"x_min":146,"x_max":1287,"o":"m 1287 467 q 1267 308 1287 377 q 1212 186 1248 238 q 1127 99 1177 135 q 1016 41 1077 63 q 884 10 955 20 q 737 0 814 0 l 146 0 l 146 932 l 736 932 q 883 922 812 932 q 1015 890 954 912 q 1126 833 1076 869 q 1212 746 1177 798 q 1267 625 1248 694 q 1287 467 1287 555 m 1034 467 q 1016 583 1034 534 q 961 665 999 633 q 861 713 922 697 q 710 729 799 729 l 397 729 l 397 203 l 710 203 q 861 219 799 203 q 961 268 922 235 q 1016 350 999 300 q 1034 467 1034 399 z "},"e":{"ha":1344,"x_min":83,"x_max":1261,"o":"m 1185 46 q 956 -8 1070 8 q 722 -25 842 -25 q 451 8 570 -25 q 250 103 332 41 q 126 256 169 165 q 83 460 83 346 q 126 656 83 566 q 249 813 170 747 q 439 918 328 880 q 689 956 551 956 q 921 921 816 956 q 1102 820 1027 887 q 1220 654 1178 753 q 1261 428 1261 556 l 1261 366 l 343 366 q 384 285 355 321 q 460 222 412 248 q 578 182 508 197 q 746 168 648 168 q 882 177 815 168 q 1006 199 948 185 q 1110 230 1063 213 q 1185 264 1156 247 l 1185 46 m 1011 550 q 990 622 1008 585 q 936 688 973 659 q 838 738 899 718 q 688 757 778 757 q 541 736 603 757 q 438 684 479 715 q 373 616 396 652 q 343 550 350 581 l 1011 550 z "},"f":{"ha":1203,"x_min":146,"x_max":1133,"o":"m 586 733 q 507 730 542 733 q 448 713 472 726 q 410 675 423 701 q 397 606 397 650 l 397 571 l 1100 571 l 1100 372 l 397 372 l 397 0 l 146 0 l 146 627 q 167 755 146 699 q 239 851 189 812 q 372 911 289 890 q 578 932 454 932 l 1133 932 l 1133 733 l 586 733 z "},"g":{"ha":1364,"x_min":83,"x_max":1239,"o":"m 746 956 q 1001 932 883 956 q 1217 872 1118 909 l 1217 644 q 1129 686 1178 666 q 1024 722 1081 707 q 902 747 967 738 q 765 757 837 757 q 609 744 675 757 q 495 709 543 731 q 417 659 448 688 q 369 597 387 630 q 345 531 351 565 q 338 465 338 497 q 343 405 338 437 q 365 340 349 372 q 410 277 381 307 q 484 224 438 248 q 594 188 530 201 q 747 174 659 174 q 825 176 792 174 q 886 184 859 179 q 938 195 913 189 q 987 210 962 202 l 987 322 l 705 322 l 705 526 l 1239 526 l 1239 50 q 1127 19 1189 33 q 999 -4 1065 5 q 866 -20 932 -14 q 741 -25 800 -25 q 565 -13 649 -25 q 408 25 481 -1 q 275 90 335 50 q 173 183 215 129 q 107 308 130 237 q 83 465 83 378 q 108 623 83 552 q 176 747 132 693 q 281 841 220 802 q 416 906 342 880 q 573 943 490 931 q 746 956 657 956 z "},"h":{"ha":1435,"x_min":146,"x_max":1289,"o":"m 1038 0 l 1038 389 l 397 389 l 397 0 l 146 0 l 146 932 l 397 932 l 397 593 l 1038 593 l 1038 932 l 1289 932 l 1289 0 l 1038 0 z "},"i":{"ha":543,"x_min":146,"x_max":397,"o":"m 146 0 l 146 932 l 397 932 l 397 0 l 146 0 z "},"j":{"ha":960,"x_min":0,"x_max":821,"o":"m 821 345 q 790 184 821 252 q 702 74 760 117 q 560 10 644 31 q 368 -11 476 -11 q 264 -6 317 -11 q 161 7 210 -1 q 70 23 111 14 q 0 39 28 31 l 0 257 q 62 234 28 245 q 138 212 96 222 q 230 197 180 203 q 342 191 281 191 q 451 205 408 191 q 522 246 495 220 q 559 307 548 272 q 570 385 570 342 l 570 932 l 821 932 l 821 345 z "},"k":{"ha":1357,"x_min":146,"x_max":1287,"o":"m 1031 0 q 994 133 1024 76 q 919 232 964 191 q 818 300 874 273 q 701 343 761 328 q 582 366 642 359 q 472 372 523 372 l 397 372 l 397 0 l 146 0 l 146 932 l 397 932 l 397 572 l 449 572 q 558 581 501 572 q 671 606 615 589 q 779 652 727 624 q 871 720 830 680 q 939 812 911 760 q 972 932 966 865 l 1229 932 q 1199 798 1222 858 q 1143 691 1177 739 q 1068 609 1109 644 q 983 548 1027 574 q 897 506 940 523 q 817 481 854 490 q 915 457 864 473 q 1017 415 966 441 q 1113 351 1067 389 q 1195 262 1158 313 q 1256 146 1232 212 q 1287 0 1280 81 l 1031 0 z "},"l":{"ha":1136,"x_min":146,"x_max":1080,"o":"m 397 399 q 408 303 397 340 q 444 245 419 267 q 507 215 468 223 q 603 207 546 207 l 1080 207 l 1080 0 l 551 0 q 365 18 441 0 q 239 74 288 36 q 168 169 190 111 q 146 306 146 227 l 146 932 l 397 932 l 397 399 z "},"m":{"ha":1939,"x_min":146,"x_max":1797,"o":"m 397 932 l 397 829 q 470 873 431 850 q 554 913 509 895 q 653 944 600 932 q 766 956 705 956 q 871 943 826 956 q 948 910 916 930 q 1004 866 981 890 q 1044 817 1027 841 q 1139 873 1093 848 q 1234 918 1186 899 q 1331 946 1281 936 q 1434 956 1380 956 q 1587 932 1519 956 q 1701 867 1654 908 q 1772 769 1748 825 q 1797 650 1797 713 l 1797 0 l 1546 0 l 1546 614 q 1534 678 1546 651 q 1503 722 1522 705 q 1458 747 1484 739 q 1402 755 1432 755 q 1093 633 1267 755 q 1096 606 1095 622 q 1097 575 1097 591 l 1097 0 l 846 0 l 846 619 q 834 683 846 656 q 803 725 823 709 q 756 748 783 741 q 701 755 730 755 q 627 745 666 755 q 548 717 588 735 q 470 673 509 699 q 397 619 432 648 l 397 0 l 146 0 l 146 932 l 397 932 z "},"n":{"ha":1426,"x_min":146,"x_max":1284,"o":"m 1034 0 l 1034 522 q 1025 617 1034 574 q 992 689 1016 659 q 925 736 968 720 q 814 753 882 753 q 706 739 762 753 q 593 702 649 725 q 487 648 538 679 q 397 585 437 618 l 397 0 l 146 0 l 146 932 l 397 932 l 397 804 q 498 858 445 831 q 612 907 552 885 q 741 942 673 928 q 884 956 808 956 q 1052 933 978 956 q 1178 868 1126 910 q 1257 767 1230 827 q 1284 635 1284 708 l 1284 0 l 1034 0 z "},"o":{"ha":1435,"x_min":83,"x_max":1352,"o":"m 1352 465 q 1308 253 1352 345 q 1181 100 1263 161 q 982 6 1099 38 q 720 -25 865 -25 q 456 6 574 -25 q 256 100 338 38 q 128 253 173 161 q 83 465 83 345 q 128 677 83 585 q 256 831 173 769 q 456 924 338 892 q 720 956 574 956 q 982 924 865 956 q 1181 831 1099 892 q 1308 677 1263 769 q 1352 465 1352 585 m 1097 465 q 1081 569 1097 517 q 1022 663 1064 621 q 906 730 979 704 q 720 755 833 755 q 586 744 644 755 q 486 711 528 732 q 416 662 444 690 q 370 601 387 633 q 346 534 353 569 q 339 465 339 499 q 346 395 339 431 q 370 328 353 360 q 416 268 387 296 q 486 219 444 240 q 586 187 528 199 q 720 175 644 175 q 906 201 833 175 q 1022 268 979 227 q 1081 361 1064 309 q 1097 465 1097 413 z "},"p":{"ha":1255,"x_min":146,"x_max":1193,"o":"m 1193 614 q 1173 485 1193 544 q 1107 384 1152 427 q 990 318 1062 342 q 815 294 918 294 l 397 294 l 397 0 l 146 0 l 146 932 l 815 932 q 990 908 918 932 q 1107 843 1062 885 q 1173 742 1152 800 q 1193 614 1193 684 m 939 610 q 929 666 939 642 q 899 704 920 689 q 844 726 878 719 q 761 733 810 733 l 397 733 l 397 493 l 761 493 q 844 499 810 493 q 899 518 878 505 q 929 555 920 532 q 939 610 939 577 z "},"q":{"ha":1449,"x_min":83,"x_max":1472,"o":"m 1352 465 q 1334 326 1352 389 q 1282 208 1316 262 q 1358 191 1323 198 q 1418 178 1392 183 l 1472 167 l 1404 -45 l 1099 50 q 720 -25 946 -25 q 456 6 574 -25 q 256 100 338 38 q 128 253 173 161 q 83 465 83 345 q 128 677 83 585 q 256 831 173 769 q 456 924 338 892 q 720 956 574 956 q 982 924 865 956 q 1181 831 1099 892 q 1308 677 1263 769 q 1352 465 1352 585 m 1097 465 q 1081 569 1097 517 q 1022 663 1064 621 q 906 730 979 704 q 720 755 833 755 q 586 744 644 755 q 486 711 528 732 q 416 662 444 690 q 370 601 387 633 q 346 534 353 569 q 339 465 339 499 q 346 395 339 431 q 370 328 353 360 q 416 268 387 296 q 486 219 444 240 q 586 187 528 199 q 720 175 644 175 q 906 201 833 175 q 1022 268 979 227 q 1081 361 1064 309 q 1097 465 1097 413 z "},"r":{"ha":1017,"x_min":146,"x_max":1003,"o":"m 1003 721 q 974 730 993 724 q 928 742 954 736 q 872 751 903 747 q 808 755 841 755 q 682 739 741 755 q 572 695 623 722 q 478 632 522 667 q 397 561 434 597 l 397 0 l 146 0 l 146 932 l 397 932 l 397 781 q 491 846 443 814 q 590 902 538 878 q 700 941 642 926 q 822 956 758 956 q 872 953 846 956 q 921 947 897 951 q 966 940 945 944 q 1003 932 987 936 l 1003 721 l 1003 721 z "},"s":{"ha":1174,"x_min":96,"x_max":1082,"o":"m 1004 669 q 935 699 978 682 q 836 729 891 715 q 717 754 781 744 q 585 764 652 764 q 492 760 530 764 q 428 751 454 757 q 386 739 401 746 q 363 724 371 732 q 352 709 355 717 q 350 696 350 702 q 370 660 350 675 q 426 633 391 645 q 508 611 461 621 q 607 589 555 600 q 716 565 660 578 q 824 534 772 551 q 924 493 877 516 q 1006 438 970 469 q 1061 366 1041 407 q 1082 273 1082 326 q 1058 158 1082 206 q 995 77 1034 110 q 903 23 955 43 q 793 -7 850 3 q 677 -22 736 -18 q 566 -25 618 -25 q 310 -2 427 -25 q 102 54 192 20 l 102 277 q 314 196 195 225 q 568 167 433 167 q 699 175 648 167 q 778 197 749 184 q 817 226 806 210 q 827 256 827 241 q 806 295 827 278 q 751 324 786 311 q 669 347 715 336 q 569 368 622 357 q 461 391 517 378 q 353 419 406 403 q 254 458 300 436 q 172 510 207 480 q 116 580 136 541 q 96 672 96 620 q 117 779 96 734 q 176 855 139 823 q 261 906 213 886 q 363 937 310 926 q 472 951 417 947 q 576 956 527 956 q 688 950 631 956 q 801 935 745 945 q 908 912 857 925 q 1004 885 960 899 l 1004 669 z "},"t":{"ha":1084,"x_min":21,"x_max":1064,"o":"m 668 729 l 668 0 l 416 0 l 416 729 l 21 729 l 21 932 l 1064 932 l 1064 729 l 668 729 z "},"u":{"ha":1426,"x_min":142,"x_max":1280,"o":"m 393 932 l 393 407 q 402 312 393 355 q 435 240 411 270 q 501 193 458 210 q 612 176 544 176 q 721 191 664 176 q 833 229 777 205 q 939 283 888 252 q 1029 347 989 314 l 1029 932 l 1280 932 l 1280 0 l 1029 0 l 1029 127 q 928 73 982 100 q 814 23 875 45 q 686 -13 754 1 q 543 -26 618 -26 q 374 -4 449 -26 q 248 61 300 19 q 169 162 197 102 q 142 294 142 221 l 142 932 l 393 932 z "},"v":{"ha":1253,"x_min":7,"x_max":1246,"o":"m 771 0 l 478 0 l 7 932 l 288 932 l 627 231 l 965 932 l 1246 932 l 771 0 z "},"w":{"ha":1822,"x_min":14,"x_max":1808,"o":"m 1051 932 l 1289 285 l 1547 932 l 1808 932 l 1434 0 l 1154 0 l 911 627 l 668 0 l 389 0 l 14 932 l 275 932 l 528 298 l 771 932 l 1051 932 z "},"x":{"ha":1223,"x_min":20,"x_max":1204,"o":"m 762 478 l 1204 0 l 903 0 l 611 314 l 321 0 l 20 0 l 461 478 l 41 932 l 343 932 l 611 640 l 880 932 l 1182 932 l 762 478 z "},"y":{"ha":1398,"x_min":125,"x_max":1253,"o":"m 1253 358 q 1208 196 1253 267 q 1081 76 1163 125 q 881 1 998 26 q 619 -25 764 -25 q 485 -20 555 -25 q 348 -6 415 -15 q 223 15 281 3 q 125 41 165 27 l 125 262 q 221 228 168 244 q 337 199 275 212 q 471 179 399 186 q 623 172 543 172 q 755 181 698 172 q 854 205 812 190 q 924 239 897 220 q 969 279 952 258 q 993 320 986 300 q 1000 358 1000 340 l 1000 440 q 836 356 931 389 q 618 323 740 323 q 381 351 476 323 q 230 430 287 378 q 149 557 173 482 q 125 725 125 631 l 125 932 l 378 932 l 378 750 q 392 652 378 695 q 438 581 407 610 q 520 537 470 552 q 642 522 570 522 q 756 537 702 522 q 855 576 810 552 q 937 632 901 601 q 1000 696 974 663 l 1000 932 l 1253 932 l 1253 358 z "},"z":{"ha":1162,"x_min":92,"x_max":1079,"o":"m 92 0 l 92 195 l 704 728 l 110 728 l 110 932 l 1065 932 l 1065 761 l 425 204 l 1079 204 l 1079 0 l 92 0 z "},"ﬁ":{"ha":1679,"x_min":146,"x_max":1533,"o":"m 586 733 q 507 730 542 733 q 448 713 472 726 q 410 675 423 701 q 397 606 397 650 l 397 571 l 1100 571 l 1100 372 l 397 372 l 397 0 l 146 0 l 146 627 q 167 755 146 699 q 239 851 189 812 q 372 911 289 890 q 578 932 454 932 l 1133 932 l 1133 733 l 586 733 m 1282 0 l 1282 932 l 1533 932 l 1533 0 l 1282 0 z "},"ﬂ":{"ha":2200,"x_min":146,"x_max":2144,"o":"m 586 733 q 507 730 542 733 q 448 713 472 726 q 410 675 423 701 q 397 606 397 650 l 397 571 l 1100 571 l 1100 372 l 397 372 l 397 0 l 146 0 l 146 627 q 167 755 146 699 q 239 851 189 812 q 372 911 289 890 q 578 932 454 932 l 1133 932 l 1133 733 l 586 733 m 1461 399 q 1472 303 1461 340 q 1508 245 1483 267 q 1571 215 1532 223 q 1667 207 1610 207 l 2144 207 l 2144 0 l 1615 0 q 1429 18 1506 0 q 1303 74 1352 36 q 1232 169 1254 111 q 1210 306 1210 227 l 1210 932 l 1461 932 l 1461 399 z "},"ß":{"ha":1378,"x_min":146,"x_max":1300,"o":"m 507 235 q 562 216 530 226 q 634 199 594 207 q 720 185 673 191 q 819 180 766 180 q 927 191 884 180 q 997 217 970 201 q 1034 254 1023 233 q 1044 296 1044 275 q 1031 343 1044 323 q 987 376 1018 363 q 904 394 956 389 q 778 400 853 400 l 561 400 l 561 590 l 768 590 q 852 593 816 590 q 914 605 889 596 q 952 629 939 613 q 965 672 965 646 q 950 709 965 692 q 905 738 935 726 q 828 758 874 751 q 720 765 782 765 q 589 758 648 765 q 488 729 530 751 q 421 670 445 708 q 397 568 397 631 l 397 0 l 146 0 l 146 586 q 184 740 146 671 q 294 858 222 809 q 470 933 366 907 q 707 960 574 960 q 938 938 841 960 q 1098 878 1035 916 q 1190 792 1160 841 q 1219 689 1219 743 q 1201 615 1219 647 q 1155 560 1183 583 q 1095 523 1128 537 q 1035 501 1063 508 q 1143 476 1095 494 q 1227 430 1192 458 q 1281 361 1262 401 q 1300 271 1300 321 q 1270 155 1300 208 q 1181 65 1240 102 q 1035 7 1122 28 q 831 -14 947 -14 q 729 -10 780 -14 q 634 -2 677 -7 q 557 8 590 3 q 507 17 524 14 l 507 235 l 507 235 z "},"À":{"ha":1270,"x_min":7,"x_max":1263,"o":"m 895 176 l 375 176 l 288 0 l 7 0 l 494 932 l 775 932 l 1263 0 l 982 0 l 895 176 m 465 358 l 806 358 l 636 701 l 465 358 m 455 1323 l 782 1133 l 721 1018 l 366 1144 l 455 1323 z "},"à":{"ha":1329,"x_min":77,"x_max":1187,"o":"m 936 0 l 936 92 q 832 45 888 65 q 718 10 777 24 q 594 -11 658 -4 q 467 -18 531 -18 q 321 -4 391 -18 q 197 42 251 10 q 110 125 142 74 q 77 252 77 177 q 128 409 77 346 q 286 511 180 471 q 553 573 391 551 q 936 607 715 595 l 936 627 q 924 672 936 650 q 879 712 911 695 q 791 741 847 730 q 648 751 735 751 q 513 744 580 751 q 384 725 446 737 q 267 696 322 713 q 165 663 211 680 l 165 886 q 272 910 213 899 q 395 930 331 922 q 524 944 458 939 q 648 949 589 949 q 865 929 766 949 q 1035 869 964 910 q 1147 766 1107 829 q 1187 618 1187 704 l 1187 0 l 936 0 m 936 425 q 689 410 791 420 q 521 386 588 399 q 415 357 454 372 q 358 325 377 341 q 335 292 339 309 q 330 262 330 276 q 339 231 330 246 q 370 204 348 216 q 429 186 392 193 q 521 179 465 179 q 642 189 583 179 q 753 215 701 198 q 853 254 806 231 q 936 302 899 277 l 936 425 m 471 1323 l 798 1133 l 736 1018 l 382 1144 l 471 1323 z "},"Á":{"ha":1270,"x_min":7,"x_max":1263,"o":"m 895 176 l 375 176 l 288 0 l 7 0 l 494 932 l 775 932 l 1263 0 l 982 0 l 895 176 m 465 358 l 806 358 l 636 701 l 465 358 m 907 1144 l 553 1018 l 492 1133 l 818 1323 l 907 1144 z "},"á":{"ha":1329,"x_min":77,"x_max":1187,"o":"m 936 0 l 936 92 q 832 45 888 65 q 718 10 777 24 q 594 -11 658 -4 q 467 -18 531 -18 q 321 -4 391 -18 q 197 42 251 10 q 110 125 142 74 q 77 252 77 177 q 128 409 77 346 q 286 511 180 471 q 553 573 391 551 q 936 607 715 595 l 936 627 q 924 672 936 650 q 879 712 911 695 q 791 741 847 730 q 648 751 735 751 q 513 744 580 751 q 384 725 446 737 q 267 696 322 713 q 165 663 211 680 l 165 886 q 272 910 213 899 q 395 930 331 922 q 524 944 458 939 q 648 949 589 949 q 865 929 766 949 q 1035 869 964 910 q 1147 766 1107 829 q 1187 618 1187 704 l 1187 0 l 936 0 m 936 425 q 689 410 791 420 q 521 386 588 399 q 415 357 454 372 q 358 325 377 341 q 335 292 339 309 q 330 262 330 276 q 339 231 330 246 q 370 204 348 216 q 429 186 392 193 q 521 179 465 179 q 642 189 583 179 q 753 215 701 198 q 853 254 806 231 q 936 302 899 277 l 936 425 m 922 1144 l 568 1018 l 507 1133 l 833 1323 l 922 1144 z "},"Â":{"ha":1270,"x_min":7,"x_max":1263,"o":"m 895 176 l 375 176 l 288 0 l 7 0 l 494 932 l 775 932 l 1263 0 l 982 0 l 895 176 m 465 358 l 806 358 l 636 701 l 465 358 m 871 1018 l 635 1140 l 399 1018 l 317 1145 l 635 1326 l 953 1145 l 871 1018 z "},"â":{"ha":1329,"x_min":77,"x_max":1187,"o":"m 936 0 l 936 92 q 832 45 888 65 q 718 10 777 24 q 594 -11 658 -4 q 467 -18 531 -18 q 321 -4 391 -18 q 197 42 251 10 q 110 125 142 74 q 77 252 77 177 q 128 409 77 346 q 286 511 180 471 q 553 573 391 551 q 936 607 715 595 l 936 627 q 924 672 936 650 q 879 712 911 695 q 791 741 847 730 q 648 751 735 751 q 513 744 580 751 q 384 725 446 737 q 267 696 322 713 q 165 663 211 680 l 165 886 q 272 910 213 899 q 395 930 331 922 q 524 944 458 939 q 648 949 589 949 q 865 929 766 949 q 1035 869 964 910 q 1147 766 1107 829 q 1187 618 1187 704 l 1187 0 l 936 0 m 936 425 q 689 410 791 420 q 521 386 588 399 q 415 357 454 372 q 358 325 377 341 q 335 292 339 309 q 330 262 330 276 q 339 231 330 246 q 370 204 348 216 q 429 186 392 193 q 521 179 465 179 q 642 189 583 179 q 753 215 701 198 q 853 254 806 231 q 936 302 899 277 l 936 425 m 900 1018 l 664 1140 l 428 1018 l 346 1145 l 664 1326 l 982 1145 l 900 1018 z "},"Ã":{"ha":1270,"x_min":7,"x_max":1263,"o":"m 895 176 l 375 176 l 288 0 l 7 0 l 494 932 l 775 932 l 1263 0 l 982 0 l 895 176 m 465 358 l 806 358 l 636 701 l 465 358 m 903 1270 q 891 1158 903 1205 q 858 1082 880 1112 q 804 1038 836 1052 q 733 1023 772 1023 q 671 1036 696 1023 q 627 1064 646 1049 q 589 1093 607 1080 q 550 1105 572 1105 q 518 1095 530 1105 q 500 1071 506 1085 q 492 1044 494 1057 q 489 1023 490 1030 l 369 1023 q 381 1127 369 1081 q 415 1204 393 1173 q 469 1253 437 1236 q 540 1270 500 1270 q 595 1257 572 1270 q 639 1229 618 1244 q 679 1201 659 1214 q 722 1189 698 1189 q 754 1199 743 1189 q 772 1222 766 1209 q 781 1249 779 1236 q 783 1270 783 1263 l 903 1270 l 903 1270 z "},"ã":{"ha":1329,"x_min":77,"x_max":1187,"o":"m 936 0 l 936 92 q 832 45 888 65 q 718 10 777 24 q 594 -11 658 -4 q 467 -18 531 -18 q 321 -4 391 -18 q 197 42 251 10 q 110 125 142 74 q 77 252 77 177 q 128 409 77 346 q 286 511 180 471 q 553 573 391 551 q 936 607 715 595 l 936 627 q 924 672 936 650 q 879 712 911 695 q 791 741 847 730 q 648 751 735 751 q 513 744 580 751 q 384 725 446 737 q 267 696 322 713 q 165 663 211 680 l 165 886 q 272 910 213 899 q 395 930 331 922 q 524 944 458 939 q 648 949 589 949 q 865 929 766 949 q 1035 869 964 910 q 1147 766 1107 829 q 1187 618 1187 704 l 1187 0 l 936 0 m 936 425 q 689 410 791 420 q 521 386 588 399 q 415 357 454 372 q 358 325 377 341 q 335 292 339 309 q 330 262 330 276 q 339 231 330 246 q 370 204 348 216 q 429 186 392 193 q 521 179 465 179 q 642 189 583 179 q 753 215 701 198 q 853 254 806 231 q 936 302 899 277 l 936 425 m 932 1270 q 920 1158 932 1205 q 887 1082 909 1112 q 833 1038 865 1052 q 762 1023 802 1023 q 701 1036 726 1023 q 656 1064 675 1049 q 618 1093 636 1080 q 579 1105 601 1105 q 547 1095 559 1105 q 529 1071 535 1085 q 521 1044 523 1057 q 518 1023 519 1030 l 398 1023 q 410 1127 398 1081 q 444 1204 422 1173 q 498 1253 467 1236 q 569 1270 530 1270 q 624 1257 601 1270 q 668 1229 648 1244 q 708 1201 688 1214 q 751 1189 727 1189 q 784 1199 772 1189 q 802 1222 795 1209 q 810 1249 808 1236 q 812 1270 812 1263 l 932 1270 l 932 1270 z "},"Ä":{"ha":1270,"x_min":7,"x_max":1263,"o":"m 895 176 l 375 176 l 288 0 l 7 0 l 494 932 l 775 932 l 1263 0 l 982 0 l 895 176 m 465 358 l 806 358 l 636 701 l 465 358 m 372 1031 l 372 1242 l 583 1242 l 583 1031 l 372 1031 m 686 1031 l 686 1242 l 897 1242 l 897 1031 l 686 1031 z "},"ä":{"ha":1329,"x_min":77,"x_max":1187,"o":"m 936 0 l 936 92 q 832 45 888 65 q 718 10 777 24 q 594 -11 658 -4 q 467 -18 531 -18 q 321 -4 391 -18 q 197 42 251 10 q 110 125 142 74 q 77 252 77 177 q 128 409 77 346 q 286 511 180 471 q 553 573 391 551 q 936 607 715 595 l 936 627 q 924 672 936 650 q 879 712 911 695 q 791 741 847 730 q 648 751 735 751 q 513 744 580 751 q 384 725 446 737 q 267 696 322 713 q 165 663 211 680 l 165 886 q 272 910 213 899 q 395 930 331 922 q 524 944 458 939 q 648 949 589 949 q 865 929 766 949 q 1035 869 964 910 q 1147 766 1107 829 q 1187 618 1187 704 l 1187 0 l 936 0 m 936 425 q 689 410 791 420 q 521 386 588 399 q 415 357 454 372 q 358 325 377 341 q 335 292 339 309 q 330 262 330 276 q 339 231 330 246 q 370 204 348 216 q 429 186 392 193 q 521 179 465 179 q 642 189 583 179 q 753 215 701 198 q 853 254 806 231 q 936 302 899 277 l 936 425 m 401 1031 l 401 1242 l 612 1242 l 612 1031 l 401 1031 m 715 1031 l 715 1242 l 926 1242 l 926 1031 l 715 1031 z "},"Å":{"ha":1270,"x_min":7,"x_max":1263,"o":"m 895 176 l 375 176 l 288 0 l 7 0 l 494 932 l 775 932 l 1263 0 l 982 0 l 895 176 m 465 358 l 806 358 l 636 701 l 465 358 m 429 1164 q 443 1226 429 1197 q 481 1278 456 1256 q 546 1313 507 1300 q 635 1326 584 1326 q 723 1313 685 1326 q 788 1278 762 1300 q 827 1226 814 1256 q 840 1164 840 1197 q 827 1101 840 1131 q 788 1049 814 1072 q 723 1014 762 1027 q 635 1001 685 1001 q 546 1014 584 1001 q 481 1049 507 1027 q 443 1101 456 1072 q 429 1164 429 1131 m 568 1164 q 585 1117 568 1136 q 635 1098 602 1098 q 684 1117 667 1098 q 700 1164 700 1136 q 684 1210 700 1191 q 635 1229 667 1229 q 585 1210 602 1229 q 568 1164 568 1191 z "},"å":{"ha":1329,"x_min":77,"x_max":1187,"o":"m 936 0 l 936 92 q 832 45 888 65 q 718 10 777 24 q 594 -11 658 -4 q 467 -18 531 -18 q 321 -4 391 -18 q 197 42 251 10 q 110 125 142 74 q 77 252 77 177 q 128 409 77 346 q 286 511 180 471 q 553 573 391 551 q 936 607 715 595 l 936 627 q 924 672 936 650 q 879 712 911 695 q 791 741 847 730 q 648 751 735 751 q 513 744 580 751 q 384 725 446 737 q 267 696 322 713 q 165 663 211 680 l 165 886 q 272 910 213 899 q 395 930 331 922 q 524 944 458 939 q 648 949 589 949 q 865 929 766 949 q 1035 869 964 910 q 1147 766 1107 829 q 1187 618 1187 704 l 1187 0 l 936 0 m 936 425 q 689 410 791 420 q 521 386 588 399 q 415 357 454 372 q 358 325 377 341 q 335 292 339 309 q 330 262 330 276 q 339 231 330 246 q 370 204 348 216 q 429 186 392 193 q 521 179 465 179 q 642 189 583 179 q 753 215 701 198 q 853 254 806 231 q 936 302 899 277 l 936 425 m 458 1164 q 472 1226 458 1197 q 511 1278 485 1256 q 575 1313 536 1300 q 664 1326 613 1326 q 752 1313 714 1326 q 817 1278 791 1300 q 856 1226 843 1256 q 869 1164 869 1197 q 856 1101 869 1131 q 817 1049 843 1072 q 752 1014 791 1027 q 664 1001 714 1001 q 575 1014 613 1001 q 511 1049 536 1027 q 472 1101 485 1072 q 458 1164 458 1131 m 597 1164 q 614 1117 597 1136 q 664 1098 631 1098 q 713 1117 696 1098 q 729 1164 729 1136 q 713 1210 729 1191 q 664 1229 696 1229 q 614 1210 631 1229 q 597 1164 597 1191 z "},"Æ":{"ha":1807,"x_min":-28,"x_max":1710,"o":"m 799 0 l 799 195 l 383 195 l 250 0 l -28 0 l 610 932 l 1700 932 l 1700 733 l 1057 733 l 1057 579 l 1666 579 l 1666 380 l 1057 380 l 1057 199 l 1710 199 l 1710 0 l 799 0 m 504 371 l 799 371 l 799 733 l 751 733 l 504 371 z "},"æ":{"ha":2197,"x_min":77,"x_max":2114,"o":"m 2037 46 q 1809 -8 1923 8 q 1575 -25 1695 -25 q 1272 17 1398 -25 q 1067 142 1145 60 q 955 85 1014 113 q 827 34 897 56 q 674 -4 758 11 q 488 -18 590 -18 q 330 -4 405 -18 q 199 42 256 10 q 110 125 143 74 q 77 252 77 177 q 128 409 77 346 q 286 511 180 471 q 553 573 391 551 q 936 607 715 595 l 936 627 q 924 672 936 650 q 879 712 911 695 q 791 741 847 730 q 648 751 735 751 q 513 744 580 751 q 384 725 446 737 q 267 696 322 713 q 165 663 211 680 l 165 886 q 272 910 213 899 q 395 930 331 922 q 524 944 458 939 q 648 949 589 949 q 921 915 804 949 q 1103 808 1038 880 q 1291 917 1181 878 q 1541 956 1401 956 q 1774 921 1668 956 q 1955 820 1879 887 q 2072 654 2030 753 q 2114 428 2114 556 l 2114 366 l 1196 366 q 1236 285 1208 321 q 1312 222 1264 248 q 1431 182 1360 197 q 1598 168 1501 168 q 1734 177 1668 168 q 1859 199 1801 185 q 1963 230 1917 213 q 2037 264 2009 247 l 2037 46 m 958 306 q 946 353 953 324 q 936 425 939 381 q 689 410 791 420 q 521 386 588 399 q 415 357 454 372 q 358 325 377 341 q 335 292 339 309 q 330 262 330 276 q 339 231 330 246 q 370 204 348 216 q 429 186 392 193 q 521 179 465 179 q 645 189 583 179 q 765 216 707 199 q 872 256 822 233 q 958 306 922 279 m 1864 550 q 1843 622 1860 585 q 1789 688 1826 659 q 1691 738 1752 718 q 1540 757 1630 757 q 1394 736 1455 757 q 1290 684 1332 715 q 1225 616 1249 652 q 1196 550 1202 581 l 1864 550 z "},"Ǽ":{"ha":1807,"x_min":-28,"x_max":1710,"o":"m 799 0 l 799 195 l 383 195 l 250 0 l -28 0 l 610 932 l 1700 932 l 1700 733 l 1057 733 l 1057 579 l 1666 579 l 1666 380 l 1057 380 l 1057 199 l 1710 199 l 1710 0 l 799 0 m 504 371 l 799 371 l 799 733 l 751 733 l 504 371 m 1404 1144 l 1050 1018 l 989 1133 l 1316 1323 l 1404 1144 z "},"ǽ":{"ha":2197,"x_min":77,"x_max":2114,"o":"m 2037 46 q 1809 -8 1923 8 q 1575 -25 1695 -25 q 1272 17 1398 -25 q 1067 142 1145 60 q 955 85 1014 113 q 827 34 897 56 q 674 -4 758 11 q 488 -18 590 -18 q 330 -4 405 -18 q 199 42 256 10 q 110 125 143 74 q 77 252 77 177 q 128 409 77 346 q 286 511 180 471 q 553 573 391 551 q 936 607 715 595 l 936 627 q 924 672 936 650 q 879 712 911 695 q 791 741 847 730 q 648 751 735 751 q 513 744 580 751 q 384 725 446 737 q 267 696 322 713 q 165 663 211 680 l 165 886 q 272 910 213 899 q 395 930 331 922 q 524 944 458 939 q 648 949 589 949 q 921 915 804 949 q 1103 808 1038 880 q 1291 917 1181 878 q 1541 956 1401 956 q 1774 921 1668 956 q 1955 820 1879 887 q 2072 654 2030 753 q 2114 428 2114 556 l 2114 366 l 1196 366 q 1236 285 1208 321 q 1312 222 1264 248 q 1431 182 1360 197 q 1598 168 1501 168 q 1734 177 1668 168 q 1859 199 1801 185 q 1963 230 1917 213 q 2037 264 2009 247 l 2037 46 m 958 306 q 946 353 953 324 q 936 425 939 381 q 689 410 791 420 q 521 386 588 399 q 415 357 454 372 q 358 325 377 341 q 335 292 339 309 q 330 262 330 276 q 339 231 330 246 q 370 204 348 216 q 429 186 392 193 q 521 179 465 179 q 645 189 583 179 q 765 216 707 199 q 872 256 822 233 q 958 306 922 279 m 1864 550 q 1843 622 1860 585 q 1789 688 1826 659 q 1691 738 1752 718 q 1540 757 1630 757 q 1394 736 1455 757 q 1290 684 1332 715 q 1225 616 1249 652 q 1196 550 1202 581 l 1864 550 m 1390 1144 l 1036 1018 l 975 1133 l 1301 1323 l 1390 1144 z "},"Ā":{"ha":1270,"x_min":7,"x_max":1263,"o":"m 895 176 l 375 176 l 288 0 l 7 0 l 494 932 l 775 932 l 1263 0 l 982 0 l 895 176 m 465 358 l 806 358 l 636 701 l 465 358 m 407 1046 l 407 1219 l 863 1219 l 863 1046 l 407 1046 z "},"ā":{"ha":1329,"x_min":77,"x_max":1187,"o":"m 936 0 l 936 92 q 832 45 888 65 q 718 10 777 24 q 594 -11 658 -4 q 467 -18 531 -18 q 321 -4 391 -18 q 197 42 251 10 q 110 125 142 74 q 77 252 77 177 q 128 409 77 346 q 286 511 180 471 q 553 573 391 551 q 936 607 715 595 l 936 627 q 924 672 936 650 q 879 712 911 695 q 791 741 847 730 q 648 751 735 751 q 513 744 580 751 q 384 725 446 737 q 267 696 322 713 q 165 663 211 680 l 165 886 q 272 910 213 899 q 395 930 331 922 q 524 944 458 939 q 648 949 589 949 q 865 929 766 949 q 1035 869 964 910 q 1147 766 1107 829 q 1187 618 1187 704 l 1187 0 l 936 0 m 936 425 q 689 410 791 420 q 521 386 588 399 q 415 357 454 372 q 358 325 377 341 q 335 292 339 309 q 330 262 330 276 q 339 231 330 246 q 370 204 348 216 q 429 186 392 193 q 521 179 465 179 q 642 189 583 179 q 753 215 701 198 q 853 254 806 231 q 936 302 899 277 l 936 425 m 436 1046 l 436 1219 l 892 1219 l 892 1046 l 436 1046 z "},"Ă":{"ha":1270,"x_min":7,"x_max":1263,"o":"m 895 176 l 375 176 l 288 0 l 7 0 l 494 932 l 775 932 l 1263 0 l 982 0 l 895 176 m 465 358 l 806 358 l 636 701 l 465 358 m 911 1298 q 905 1255 910 1281 q 889 1198 901 1228 q 858 1137 878 1168 q 808 1082 839 1107 q 735 1042 778 1057 q 635 1026 692 1026 q 534 1042 576 1026 q 461 1082 491 1057 q 411 1137 431 1107 q 380 1198 391 1168 q 364 1255 369 1228 q 358 1298 359 1281 l 486 1298 q 499 1269 490 1286 q 524 1236 507 1252 q 567 1210 541 1221 q 635 1198 594 1198 q 702 1210 675 1198 q 745 1236 728 1221 q 771 1269 762 1252 q 785 1298 781 1286 l 911 1298 l 911 1298 z "},"ă":{"ha":1329,"x_min":77,"x_max":1187,"o":"m 936 0 l 936 92 q 832 45 888 65 q 718 10 777 24 q 594 -11 658 -4 q 467 -18 531 -18 q 321 -4 391 -18 q 197 42 251 10 q 110 125 142 74 q 77 252 77 177 q 128 409 77 346 q 286 511 180 471 q 553 573 391 551 q 936 607 715 595 l 936 627 q 924 672 936 650 q 879 712 911 695 q 791 741 847 730 q 648 751 735 751 q 513 744 580 751 q 384 725 446 737 q 267 696 322 713 q 165 663 211 680 l 165 886 q 272 910 213 899 q 395 930 331 922 q 524 944 458 939 q 648 949 589 949 q 865 929 766 949 q 1035 869 964 910 q 1147 766 1107 829 q 1187 618 1187 704 l 1187 0 l 936 0 m 936 425 q 689 410 791 420 q 521 386 588 399 q 415 357 454 372 q 358 325 377 341 q 335 292 339 309 q 330 262 330 276 q 339 231 330 246 q 370 204 348 216 q 429 186 392 193 q 521 179 465 179 q 642 189 583 179 q 753 215 701 198 q 853 254 806 231 q 936 302 899 277 l 936 425 m 940 1298 q 935 1255 939 1281 q 918 1198 930 1228 q 887 1137 907 1168 q 838 1082 868 1107 q 764 1042 807 1057 q 664 1026 722 1026 q 563 1042 606 1026 q 490 1082 520 1057 q 440 1137 460 1107 q 409 1198 420 1168 q 393 1255 398 1228 q 387 1298 388 1281 l 515 1298 q 528 1269 519 1286 q 553 1236 536 1252 q 596 1210 570 1221 q 664 1198 623 1198 q 731 1210 704 1198 q 774 1236 758 1221 q 801 1269 791 1252 q 814 1298 810 1286 l 940 1298 l 940 1298 z "},"Ą":{"ha":1270,"x_min":7,"x_max":1296,"o":"m 895 176 l 375 176 l 288 0 l 7 0 l 494 932 l 775 932 l 1263 0 l 1131 0 q 1070 -70 1093 -33 q 1048 -140 1048 -106 q 1068 -180 1048 -169 q 1131 -192 1088 -192 q 1173 -188 1149 -192 q 1218 -178 1196 -184 q 1261 -165 1241 -172 q 1296 -153 1282 -159 l 1296 -293 q 1259 -303 1282 -297 q 1207 -315 1237 -309 q 1142 -324 1178 -320 q 1065 -328 1107 -328 q 987 -320 1025 -328 q 922 -296 950 -313 q 877 -252 894 -279 q 860 -184 860 -224 q 868 -140 860 -165 q 893 -91 877 -116 q 931 -42 909 -66 q 982 0 954 -18 l 895 176 m 465 358 l 806 358 l 636 701 l 465 358 z "},"ą":{"ha":1329,"x_min":77,"x_max":1250,"o":"m 1084 0 q 1025 -70 1047 -33 q 1003 -140 1003 -106 q 1022 -180 1003 -169 q 1084 -192 1042 -192 q 1126 -188 1103 -192 q 1172 -178 1149 -184 q 1215 -165 1195 -172 q 1250 -153 1236 -159 l 1250 -293 q 1214 -303 1236 -297 q 1162 -315 1192 -309 q 1097 -324 1133 -320 q 1019 -328 1061 -328 q 941 -320 979 -328 q 876 -296 904 -313 q 831 -252 848 -279 q 814 -184 814 -224 q 822 -140 814 -165 q 847 -91 831 -116 q 885 -42 863 -66 q 936 0 908 -18 l 936 92 q 832 45 888 65 q 718 10 777 24 q 594 -11 658 -4 q 467 -18 531 -18 q 321 -4 391 -18 q 197 42 251 10 q 110 125 142 74 q 77 252 77 177 q 128 409 77 346 q 286 511 180 471 q 553 573 391 551 q 936 607 715 595 l 936 627 q 924 672 936 650 q 879 712 911 695 q 791 741 847 730 q 648 751 735 751 q 513 744 580 751 q 384 725 446 737 q 267 696 322 713 q 165 663 211 680 l 165 886 q 272 910 213 899 q 395 930 331 922 q 524 944 458 939 q 648 949 589 949 q 865 929 766 949 q 1035 869 964 910 q 1147 766 1107 829 q 1187 618 1187 704 l 1187 0 l 1084 0 m 936 425 q 689 410 791 420 q 521 386 588 399 q 415 357 454 372 q 358 325 377 341 q 335 292 339 309 q 330 262 330 276 q 339 231 330 246 q 370 204 348 216 q 429 186 392 193 q 521 179 465 179 q 642 189 583 179 q 753 215 701 198 q 853 254 806 231 q 936 302 899 277 l 936 425 z "},"Ç":{"ha":1261,"x_min":83,"x_max":1173,"o":"m 1173 64 q 1074 27 1124 43 q 972 -1 1025 11 q 860 -19 919 -13 q 734 -25 802 -25 q 472 5 592 -25 q 266 97 353 36 q 132 251 180 159 q 83 465 83 342 q 132 680 83 588 q 266 833 180 772 q 472 925 353 895 q 734 956 592 956 q 860 949 802 956 q 972 931 919 943 q 1074 903 1025 920 q 1173 867 1124 887 l 1173 640 q 1091 682 1134 661 q 997 719 1048 703 q 884 746 945 736 q 745 757 822 757 q 548 732 626 757 q 422 667 469 708 q 357 574 376 627 q 338 465 338 522 q 346 392 338 428 q 373 323 354 355 q 422 264 392 291 q 498 217 453 237 q 605 186 544 197 q 745 175 665 175 q 884 185 822 175 q 997 211 945 195 q 1091 248 1048 227 q 1173 290 1134 269 l 1173 64 l 1173 64 m 731 -66 q 793 -71 760 -66 q 854 -91 827 -76 q 900 -132 882 -106 q 918 -202 918 -159 q 897 -275 918 -245 q 841 -322 876 -304 q 764 -347 806 -340 q 678 -355 721 -355 q 610 -353 640 -355 q 556 -348 580 -351 q 515 -342 533 -345 q 482 -336 496 -339 l 482 -205 q 552 -228 513 -218 q 633 -238 591 -238 q 673 -236 654 -238 q 705 -229 692 -233 q 726 -216 718 -224 q 734 -199 734 -209 q 725 -179 734 -186 q 702 -168 715 -172 q 673 -163 688 -164 q 646 -161 659 -161 q 610 -163 629 -161 q 575 -170 591 -165 l 640 1 l 757 1 l 731 -66 z "},"ç":{"ha":1261,"x_min":83,"x_max":1173,"o":"m 1173 64 q 1074 27 1124 43 q 972 -1 1025 11 q 860 -19 919 -13 q 734 -25 802 -25 q 472 5 592 -25 q 266 97 353 36 q 132 251 180 159 q 83 465 83 342 q 132 680 83 588 q 266 833 180 772 q 472 925 353 895 q 734 956 592 956 q 860 949 802 956 q 972 931 919 943 q 1074 903 1025 920 q 1173 867 1124 887 l 1173 640 q 1091 682 1134 661 q 997 719 1048 703 q 884 746 945 736 q 745 757 822 757 q 548 732 626 757 q 422 667 469 708 q 357 574 376 627 q 338 465 338 522 q 346 392 338 428 q 373 323 354 355 q 422 264 392 291 q 498 217 453 237 q 605 186 544 197 q 745 175 665 175 q 884 185 822 175 q 997 211 945 195 q 1091 248 1048 227 q 1173 290 1134 269 l 1173 64 l 1173 64 m 731 -66 q 793 -71 760 -66 q 854 -91 827 -76 q 900 -132 882 -106 q 918 -202 918 -159 q 897 -275 918 -245 q 841 -322 876 -304 q 764 -347 806 -340 q 678 -355 721 -355 q 610 -353 640 -355 q 556 -348 580 -351 q 515 -342 533 -345 q 482 -336 496 -339 l 482 -205 q 552 -228 513 -218 q 633 -238 591 -238 q 673 -236 654 -238 q 705 -229 692 -233 q 726 -216 718 -224 q 734 -199 734 -209 q 725 -179 734 -186 q 702 -168 715 -172 q 673 -163 688 -164 q 646 -161 659 -161 q 610 -163 629 -161 q 575 -170 591 -165 l 640 1 l 757 1 l 731 -66 z "},"Ć":{"ha":1261,"x_min":83,"x_max":1173,"o":"m 1173 64 q 1074 27 1124 43 q 972 -1 1025 11 q 860 -19 919 -13 q 734 -25 802 -25 q 472 5 592 -25 q 266 97 353 36 q 132 251 180 159 q 83 465 83 342 q 132 680 83 588 q 266 833 180 772 q 472 925 353 895 q 734 956 592 956 q 860 949 802 956 q 972 931 919 943 q 1074 903 1025 920 q 1173 867 1124 887 l 1173 640 q 1091 682 1134 661 q 997 719 1048 703 q 884 746 945 736 q 745 757 822 757 q 548 732 626 757 q 422 667 469 708 q 357 574 376 627 q 338 465 338 522 q 346 392 338 428 q 373 323 354 355 q 422 264 392 291 q 498 217 453 237 q 605 186 544 197 q 745 175 665 175 q 884 185 822 175 q 997 211 945 195 q 1091 248 1048 227 q 1173 290 1134 269 l 1173 64 l 1173 64 m 996 1144 l 642 1018 l 581 1133 l 907 1323 l 996 1144 z "},"ć":{"ha":1261,"x_min":83,"x_max":1173,"o":"m 1173 64 q 1074 27 1124 43 q 972 -1 1025 11 q 860 -19 919 -13 q 734 -25 802 -25 q 472 5 592 -25 q 266 97 353 36 q 132 251 180 159 q 83 465 83 342 q 132 680 83 588 q 266 833 180 772 q 472 925 353 895 q 734 956 592 956 q 860 949 802 956 q 972 931 919 943 q 1074 903 1025 920 q 1173 867 1124 887 l 1173 640 q 1091 682 1134 661 q 997 719 1048 703 q 884 746 945 736 q 745 757 822 757 q 548 732 626 757 q 422 667 469 708 q 357 574 376 627 q 338 465 338 522 q 346 392 338 428 q 373 323 354 355 q 422 264 392 291 q 498 217 453 237 q 605 186 544 197 q 745 175 665 175 q 884 185 822 175 q 997 211 945 195 q 1091 248 1048 227 q 1173 290 1134 269 l 1173 64 l 1173 64 m 996 1144 l 642 1018 l 581 1133 l 907 1323 l 996 1144 z "},"Ĉ":{"ha":1261,"x_min":83,"x_max":1173,"o":"m 1173 64 q 1074 27 1124 43 q 972 -1 1025 11 q 860 -19 919 -13 q 734 -25 802 -25 q 472 5 592 -25 q 266 97 353 36 q 132 251 180 159 q 83 465 83 342 q 132 680 83 588 q 266 833 180 772 q 472 925 353 895 q 734 956 592 956 q 860 949 802 956 q 972 931 919 943 q 1074 903 1025 920 q 1173 867 1124 887 l 1173 640 q 1091 682 1134 661 q 997 719 1048 703 q 884 746 945 736 q 745 757 822 757 q 548 732 626 757 q 422 667 469 708 q 357 574 376 627 q 338 465 338 522 q 346 392 338 428 q 373 323 354 355 q 422 264 392 291 q 498 217 453 237 q 605 186 544 197 q 745 175 665 175 q 884 185 822 175 q 997 211 945 195 q 1091 248 1048 227 q 1173 290 1134 269 l 1173 64 l 1173 64 m 960 1018 l 724 1140 l 488 1018 l 406 1145 l 724 1326 l 1042 1145 l 960 1018 z "},"ĉ":{"ha":1261,"x_min":83,"x_max":1173,"o":"m 1173 64 q 1074 27 1124 43 q 972 -1 1025 11 q 860 -19 919 -13 q 734 -25 802 -25 q 472 5 592 -25 q 266 97 353 36 q 132 251 180 159 q 83 465 83 342 q 132 680 83 588 q 266 833 180 772 q 472 925 353 895 q 734 956 592 956 q 860 949 802 956 q 972 931 919 943 q 1074 903 1025 920 q 1173 867 1124 887 l 1173 640 q 1091 682 1134 661 q 997 719 1048 703 q 884 746 945 736 q 745 757 822 757 q 548 732 626 757 q 422 667 469 708 q 357 574 376 627 q 338 465 338 522 q 346 392 338 428 q 373 323 354 355 q 422 264 392 291 q 498 217 453 237 q 605 186 544 197 q 745 175 665 175 q 884 185 822 175 q 997 211 945 195 q 1091 248 1048 227 q 1173 290 1134 269 l 1173 64 l 1173 64 m 960 1018 l 724 1140 l 488 1018 l 406 1145 l 724 1326 l 1042 1145 l 960 1018 z "},"Ċ":{"ha":1261,"x_min":83,"x_max":1173,"o":"m 1173 64 q 1074 27 1124 43 q 972 -1 1025 11 q 860 -19 919 -13 q 734 -25 802 -25 q 472 5 592 -25 q 266 97 353 36 q 132 251 180 159 q 83 465 83 342 q 132 680 83 588 q 266 833 180 772 q 472 925 353 895 q 734 956 592 956 q 860 949 802 956 q 972 931 919 943 q 1074 903 1025 920 q 1173 867 1124 887 l 1173 640 q 1091 682 1134 661 q 997 719 1048 703 q 884 746 945 736 q 745 757 822 757 q 548 732 626 757 q 422 667 469 708 q 357 574 376 627 q 338 465 338 522 q 346 392 338 428 q 373 323 354 355 q 422 264 392 291 q 498 217 453 237 q 605 186 544 197 q 745 175 665 175 q 884 185 822 175 q 997 211 945 195 q 1091 248 1048 227 q 1173 290 1134 269 l 1173 64 l 1173 64 m 614 1031 l 614 1247 l 830 1247 l 830 1031 l 614 1031 z "},"ċ":{"ha":1261,"x_min":83,"x_max":1173,"o":"m 1173 64 q 1074 27 1124 43 q 972 -1 1025 11 q 860 -19 919 -13 q 734 -25 802 -25 q 472 5 592 -25 q 266 97 353 36 q 132 251 180 159 q 83 465 83 342 q 132 680 83 588 q 266 833 180 772 q 472 925 353 895 q 734 956 592 956 q 860 949 802 956 q 972 931 919 943 q 1074 903 1025 920 q 1173 867 1124 887 l 1173 640 q 1091 682 1134 661 q 997 719 1048 703 q 884 746 945 736 q 745 757 822 757 q 548 732 626 757 q 422 667 469 708 q 357 574 376 627 q 338 465 338 522 q 346 392 338 428 q 373 323 354 355 q 422 264 392 291 q 498 217 453 237 q 605 186 544 197 q 745 175 665 175 q 884 185 822 175 q 997 211 945 195 q 1091 248 1048 227 q 1173 290 1134 269 l 1173 64 l 1173 64 m 615 1031 l 615 1247 l 831 1247 l 831 1031 l 615 1031 z "},"Č":{"ha":1261,"x_min":83,"x_max":1173,"o":"m 1173 64 q 1074 27 1124 43 q 972 -1 1025 11 q 860 -19 919 -13 q 734 -25 802 -25 q 472 5 592 -25 q 266 97 353 36 q 132 251 180 159 q 83 465 83 342 q 132 680 83 588 q 266 833 180 772 q 472 925 353 895 q 734 956 592 956 q 860 949 802 956 q 972 931 919 943 q 1074 903 1025 920 q 1173 867 1124 887 l 1173 640 q 1091 682 1134 661 q 997 719 1048 703 q 884 746 945 736 q 745 757 822 757 q 548 732 626 757 q 422 667 469 708 q 357 574 376 627 q 338 465 338 522 q 346 392 338 428 q 373 323 354 355 q 422 264 392 291 q 498 217 453 237 q 605 186 544 197 q 745 175 665 175 q 884 185 822 175 q 997 211 945 195 q 1091 248 1048 227 q 1173 290 1134 269 l 1173 64 l 1173 64 m 488 1326 l 724 1204 l 960 1326 l 1042 1198 l 724 1018 l 406 1198 l 488 1326 z "},"č":{"ha":1261,"x_min":83,"x_max":1173,"o":"m 1173 64 q 1074 27 1124 43 q 972 -1 1025 11 q 860 -19 919 -13 q 734 -25 802 -25 q 472 5 592 -25 q 266 97 353 36 q 132 251 180 159 q 83 465 83 342 q 132 680 83 588 q 266 833 180 772 q 472 925 353 895 q 734 956 592 956 q 860 949 802 956 q 972 931 919 943 q 1074 903 1025 920 q 1173 867 1124 887 l 1173 640 q 1091 682 1134 661 q 997 719 1048 703 q 884 746 945 736 q 745 757 822 757 q 548 732 626 757 q 422 667 469 708 q 357 574 376 627 q 338 465 338 522 q 346 392 338 428 q 373 323 354 355 q 422 264 392 291 q 498 217 453 237 q 605 186 544 197 q 745 175 665 175 q 884 185 822 175 q 997 211 945 195 q 1091 248 1048 227 q 1173 290 1134 269 l 1173 64 l 1173 64 m 488 1326 l 724 1204 l 960 1326 l 1042 1198 l 724 1018 l 406 1198 l 488 1326 z "},"Ď":{"ha":1371,"x_min":146,"x_max":1287,"o":"m 1287 467 q 1267 308 1287 377 q 1212 186 1248 238 q 1127 99 1177 135 q 1016 41 1077 63 q 884 10 955 20 q 737 0 814 0 l 146 0 l 146 932 l 736 932 q 883 922 812 932 q 1015 890 954 912 q 1126 833 1076 869 q 1212 746 1177 798 q 1267 625 1248 694 q 1287 467 1287 555 m 1034 467 q 1016 583 1034 534 q 961 665 999 633 q 861 713 922 697 q 710 729 799 729 l 397 729 l 397 203 l 710 203 q 861 219 799 203 q 961 268 922 235 q 1016 350 999 300 q 1034 467 1034 399 m 410 1326 l 646 1204 l 882 1326 l 964 1198 l 646 1018 l 328 1198 l 410 1326 z "},"ď":{"ha":1371,"x_min":146,"x_max":1287,"o":"m 1287 467 q 1267 308 1287 377 q 1212 186 1248 238 q 1127 99 1177 135 q 1016 41 1077 63 q 884 10 955 20 q 737 0 814 0 l 146 0 l 146 932 l 736 932 q 883 922 812 932 q 1015 890 954 912 q 1126 833 1076 869 q 1212 746 1177 798 q 1267 625 1248 694 q 1287 467 1287 555 m 1034 467 q 1016 583 1034 534 q 961 665 999 633 q 861 713 922 697 q 710 729 799 729 l 397 729 l 397 203 l 710 203 q 861 219 799 203 q 961 268 922 235 q 1016 350 999 300 q 1034 467 1034 399 m 410 1326 l 646 1204 l 882 1326 l 964 1198 l 646 1018 l 328 1198 l 410 1326 z "},"Ð":{"ha":1371,"x_min":7,"x_max":1287,"o":"m 1287 467 q 1267 308 1287 377 q 1212 186 1248 238 q 1127 99 1177 135 q 1016 41 1077 63 q 884 10 955 20 q 737 0 814 0 l 146 0 l 146 386 l 7 386 l 7 567 l 146 567 l 146 932 l 736 932 q 883 922 812 932 q 1015 890 954 912 q 1126 833 1076 869 q 1212 746 1177 798 q 1267 625 1248 694 q 1287 467 1287 555 m 1034 467 q 1016 583 1034 534 q 961 665 999 633 q 861 713 922 697 q 710 729 799 729 l 397 729 l 397 567 l 664 567 l 664 386 l 397 386 l 397 203 l 710 203 q 861 219 799 203 q 961 268 922 235 q 1016 350 999 300 q 1034 467 1034 399 z "},"ð":{"ha":1371,"x_min":7,"x_max":1287,"o":"m 1287 467 q 1267 308 1287 377 q 1212 186 1248 238 q 1127 99 1177 135 q 1016 41 1077 63 q 884 10 955 20 q 737 0 814 0 l 146 0 l 146 386 l 7 386 l 7 567 l 146 567 l 146 932 l 736 932 q 883 922 812 932 q 1015 890 954 912 q 1126 833 1076 869 q 1212 746 1177 798 q 1267 625 1248 694 q 1287 467 1287 555 m 1034 467 q 1016 583 1034 534 q 961 665 999 633 q 861 713 922 697 q 710 729 799 729 l 397 729 l 397 567 l 664 567 l 664 386 l 397 386 l 397 203 l 710 203 q 861 219 799 203 q 961 268 922 235 q 1016 350 999 300 q 1034 467 1034 399 z "},"Đ":{"ha":1371,"x_min":7,"x_max":1287,"o":"m 1287 467 q 1267 308 1287 377 q 1212 186 1248 238 q 1127 99 1177 135 q 1016 41 1077 63 q 884 10 955 20 q 737 0 814 0 l 146 0 l 146 386 l 7 386 l 7 567 l 146 567 l 146 932 l 736 932 q 883 922 812 932 q 1015 890 954 912 q 1126 833 1076 869 q 1212 746 1177 798 q 1267 625 1248 694 q 1287 467 1287 555 m 1034 467 q 1016 583 1034 534 q 961 665 999 633 q 861 713 922 697 q 710 729 799 729 l 397 729 l 397 567 l 664 567 l 664 386 l 397 386 l 397 203 l 710 203 q 861 219 799 203 q 961 268 922 235 q 1016 350 999 300 q 1034 467 1034 399 z "},"đ":{"ha":1371,"x_min":7,"x_max":1287,"o":"m 1287 467 q 1267 308 1287 377 q 1212 186 1248 238 q 1127 99 1177 135 q 1016 41 1077 63 q 884 10 955 20 q 737 0 814 0 l 146 0 l 146 386 l 7 386 l 7 567 l 146 567 l 146 932 l 736 932 q 883 922 812 932 q 1015 890 954 912 q 1126 833 1076 869 q 1212 746 1177 798 q 1267 625 1248 694 q 1287 467 1287 555 m 1034 467 q 1016 583 1034 534 q 961 665 999 633 q 861 713 922 697 q 710 729 799 729 l 397 729 l 397 567 l 664 567 l 664 386 l 397 386 l 397 203 l 710 203 q 861 219 799 203 q 961 268 922 235 q 1016 350 999 300 q 1034 467 1034 399 z "},"È":{"ha":1196,"x_min":146,"x_max":1099,"o":"m 146 0 l 146 932 l 1089 932 l 1089 733 l 404 733 l 404 579 l 1054 579 l 1054 380 l 404 380 l 404 199 l 1099 199 l 1099 0 l 146 0 m 430 1323 l 757 1133 l 696 1018 l 341 1144 l 430 1323 z "},"è":{"ha":1344,"x_min":83,"x_max":1261,"o":"m 1185 46 q 956 -8 1070 8 q 722 -25 842 -25 q 451 8 570 -25 q 250 103 332 41 q 126 256 169 165 q 83 460 83 346 q 126 656 83 566 q 249 813 170 747 q 439 918 328 880 q 689 956 551 956 q 921 921 816 956 q 1102 820 1027 887 q 1220 654 1178 753 q 1261 428 1261 556 l 1261 366 l 343 366 q 384 285 355 321 q 460 222 412 248 q 578 182 508 197 q 746 168 648 168 q 882 177 815 168 q 1006 199 948 185 q 1110 230 1063 213 q 1185 264 1156 247 l 1185 46 m 1011 550 q 990 622 1008 585 q 936 688 973 659 q 838 738 899 718 q 688 757 778 757 q 541 736 603 757 q 438 684 479 715 q 373 616 396 652 q 343 550 350 581 l 1011 550 m 503 1323 l 829 1133 l 768 1018 l 414 1144 l 503 1323 z "},"É":{"ha":1196,"x_min":146,"x_max":1099,"o":"m 146 0 l 146 932 l 1089 932 l 1089 733 l 404 733 l 404 579 l 1054 579 l 1054 380 l 404 380 l 404 199 l 1099 199 l 1099 0 l 146 0 m 882 1144 l 528 1018 l 467 1133 l 793 1323 l 882 1144 z "},"é":{"ha":1344,"x_min":83,"x_max":1261,"o":"m 1185 46 q 956 -8 1070 8 q 722 -25 842 -25 q 451 8 570 -25 q 250 103 332 41 q 126 256 169 165 q 83 460 83 346 q 126 656 83 566 q 249 813 170 747 q 439 918 328 880 q 689 956 551 956 q 921 921 816 956 q 1102 820 1027 887 q 1220 654 1178 753 q 1261 428 1261 556 l 1261 366 l 343 366 q 384 285 355 321 q 460 222 412 248 q 578 182 508 197 q 746 168 648 168 q 882 177 815 168 q 1006 199 948 185 q 1110 230 1063 213 q 1185 264 1156 247 l 1185 46 m 1011 550 q 990 622 1008 585 q 936 688 973 659 q 838 738 899 718 q 688 757 778 757 q 541 736 603 757 q 438 684 479 715 q 373 616 396 652 q 343 550 350 581 l 1011 550 m 954 1144 l 600 1018 l 539 1133 l 865 1323 l 954 1144 z "},"Ê":{"ha":1196,"x_min":146,"x_max":1099,"o":"m 146 0 l 146 932 l 1089 932 l 1089 733 l 404 733 l 404 579 l 1054 579 l 1054 380 l 404 380 l 404 199 l 1099 199 l 1099 0 l 146 0 m 860 1018 l 624 1140 l 388 1018 l 306 1145 l 624 1326 l 942 1145 l 860 1018 z "},"ê":{"ha":1344,"x_min":83,"x_max":1261,"o":"m 1185 46 q 956 -8 1070 8 q 722 -25 842 -25 q 451 8 570 -25 q 250 103 332 41 q 126 256 169 165 q 83 460 83 346 q 126 656 83 566 q 249 813 170 747 q 439 918 328 880 q 689 956 551 956 q 921 921 816 956 q 1102 820 1027 887 q 1220 654 1178 753 q 1261 428 1261 556 l 1261 366 l 343 366 q 384 285 355 321 q 460 222 412 248 q 578 182 508 197 q 746 168 648 168 q 882 177 815 168 q 1006 199 948 185 q 1110 230 1063 213 q 1185 264 1156 247 l 1185 46 m 1011 550 q 990 622 1008 585 q 936 688 973 659 q 838 738 899 718 q 688 757 778 757 q 541 736 603 757 q 438 684 479 715 q 373 616 396 652 q 343 550 350 581 l 1011 550 m 918 1018 l 682 1140 l 446 1018 l 364 1145 l 682 1326 l 1000 1145 l 918 1018 z "},"Ë":{"ha":1196,"x_min":146,"x_max":1099,"o":"m 146 0 l 146 932 l 1089 932 l 1089 733 l 404 733 l 404 579 l 1054 579 l 1054 380 l 404 380 l 404 199 l 1099 199 l 1099 0 l 146 0 m 352 1031 l 352 1242 l 563 1242 l 563 1031 l 352 1031 m 665 1031 l 665 1242 l 877 1242 l 877 1031 l 665 1031 z "},"ë":{"ha":1344,"x_min":83,"x_max":1261,"o":"m 1185 46 q 956 -8 1070 8 q 722 -25 842 -25 q 451 8 570 -25 q 250 103 332 41 q 126 256 169 165 q 83 460 83 346 q 126 656 83 566 q 249 813 170 747 q 439 918 328 880 q 689 956 551 956 q 921 921 816 956 q 1102 820 1027 887 q 1220 654 1178 753 q 1261 428 1261 556 l 1261 366 l 343 366 q 384 285 355 321 q 460 222 412 248 q 578 182 508 197 q 746 168 648 168 q 882 177 815 168 q 1006 199 948 185 q 1110 230 1063 213 q 1185 264 1156 247 l 1185 46 m 1011 550 q 990 622 1008 585 q 936 688 973 659 q 838 738 899 718 q 688 757 778 757 q 541 736 603 757 q 438 684 479 715 q 373 616 396 652 q 343 550 350 581 l 1011 550 m 420 1031 l 420 1242 l 631 1242 l 631 1031 l 420 1031 m 733 1031 l 733 1242 l 945 1242 l 945 1031 l 733 1031 z "},"Ē":{"ha":1196,"x_min":146,"x_max":1099,"o":"m 146 0 l 146 932 l 1089 932 l 1089 733 l 404 733 l 404 579 l 1054 579 l 1054 380 l 404 380 l 404 199 l 1099 199 l 1099 0 l 146 0 m 396 1046 l 396 1219 l 852 1219 l 852 1046 l 396 1046 z "},"ē":{"ha":1344,"x_min":83,"x_max":1261,"o":"m 1185 46 q 956 -8 1070 8 q 722 -25 842 -25 q 451 8 570 -25 q 250 103 332 41 q 126 256 169 165 q 83 460 83 346 q 126 656 83 566 q 249 813 170 747 q 439 918 328 880 q 689 956 551 956 q 921 921 816 956 q 1102 820 1027 887 q 1220 654 1178 753 q 1261 428 1261 556 l 1261 366 l 343 366 q 384 285 355 321 q 460 222 412 248 q 578 182 508 197 q 746 168 648 168 q 882 177 815 168 q 1006 199 948 185 q 1110 230 1063 213 q 1185 264 1156 247 l 1185 46 m 1011 550 q 990 622 1008 585 q 936 688 973 659 q 838 738 899 718 q 688 757 778 757 q 541 736 603 757 q 438 684 479 715 q 373 616 396 652 q 343 550 350 581 l 1011 550 m 454 1046 l 454 1219 l 910 1219 l 910 1046 l 454 1046 z "},"Ĕ":{"ha":1196,"x_min":146,"x_max":1099,"o":"m 146 0 l 146 932 l 1089 932 l 1089 733 l 404 733 l 404 579 l 1054 579 l 1054 380 l 404 380 l 404 199 l 1099 199 l 1099 0 l 146 0 m 895 1298 q 889 1255 894 1281 q 873 1198 884 1228 q 842 1137 861 1168 q 792 1082 823 1107 q 719 1042 762 1057 q 618 1026 676 1026 q 517 1042 560 1026 q 445 1082 475 1057 q 395 1137 414 1107 q 364 1198 375 1168 q 348 1255 353 1228 q 342 1298 342 1281 l 470 1298 q 483 1269 474 1286 q 508 1236 491 1252 q 551 1210 524 1221 q 618 1198 578 1198 q 685 1210 659 1198 q 729 1236 712 1221 q 755 1269 746 1252 q 768 1298 764 1286 l 895 1298 l 895 1298 z "},"ĕ":{"ha":1344,"x_min":83,"x_max":1261,"o":"m 1185 46 q 956 -8 1070 8 q 722 -25 842 -25 q 451 8 570 -25 q 250 103 332 41 q 126 256 169 165 q 83 460 83 346 q 126 656 83 566 q 249 813 170 747 q 439 918 328 880 q 689 956 551 956 q 921 921 816 956 q 1102 820 1027 887 q 1220 654 1178 753 q 1261 428 1261 556 l 1261 366 l 343 366 q 384 285 355 321 q 460 222 412 248 q 578 182 508 197 q 746 168 648 168 q 882 177 815 168 q 1006 199 948 185 q 1110 230 1063 213 q 1185 264 1156 247 l 1185 46 m 1011 550 q 990 622 1008 585 q 936 688 973 659 q 838 738 899 718 q 688 757 778 757 q 541 736 603 757 q 438 684 479 715 q 373 616 396 652 q 343 550 350 581 l 1011 550 m 958 1298 q 953 1255 958 1281 q 937 1198 948 1228 q 906 1137 925 1168 q 856 1082 886 1107 q 783 1042 825 1057 q 682 1026 740 1026 q 581 1042 624 1026 q 508 1082 538 1057 q 458 1137 478 1107 q 428 1198 439 1168 q 411 1255 416 1228 q 406 1298 406 1281 l 534 1298 q 546 1269 538 1286 q 571 1236 555 1252 q 615 1210 588 1221 q 682 1198 642 1198 q 749 1210 722 1198 q 793 1236 776 1221 q 819 1269 810 1252 q 832 1298 828 1286 l 958 1298 l 958 1298 z "},"Ė":{"ha":1196,"x_min":146,"x_max":1099,"o":"m 146 0 l 146 932 l 1089 932 l 1089 733 l 404 733 l 404 579 l 1054 579 l 1054 380 l 404 380 l 404 199 l 1099 199 l 1099 0 l 146 0 m 515 1031 l 515 1247 l 732 1247 l 732 1031 l 515 1031 z "},"ė":{"ha":1344,"x_min":83,"x_max":1261,"o":"m 1185 46 q 956 -8 1070 8 q 722 -25 842 -25 q 451 8 570 -25 q 250 103 332 41 q 126 256 169 165 q 83 460 83 346 q 126 656 83 566 q 249 813 170 747 q 439 918 328 880 q 689 956 551 956 q 921 921 816 956 q 1102 820 1027 887 q 1220 654 1178 753 q 1261 428 1261 556 l 1261 366 l 343 366 q 384 285 355 321 q 460 222 412 248 q 578 182 508 197 q 746 168 648 168 q 882 177 815 168 q 1006 199 948 185 q 1110 230 1063 213 q 1185 264 1156 247 l 1185 46 m 1011 550 q 990 622 1008 585 q 936 688 973 659 q 838 738 899 718 q 688 757 778 757 q 541 736 603 757 q 438 684 479 715 q 373 616 396 652 q 343 550 350 581 l 1011 550 m 574 1031 l 574 1247 l 790 1247 l 790 1031 l 574 1031 z "},"Ę":{"ha":1196,"x_min":146,"x_max":1099,"o":"m 1099 0 q 968 -27 1017 -10 q 892 -63 919 -43 q 857 -103 865 -83 q 848 -140 848 -123 q 868 -180 848 -169 q 930 -192 888 -192 q 972 -188 949 -192 q 1018 -178 996 -184 q 1061 -165 1041 -172 q 1096 -153 1082 -159 l 1096 -293 q 1060 -303 1082 -297 q 1008 -315 1038 -309 q 943 -324 979 -320 q 865 -328 907 -328 q 787 -320 825 -328 q 722 -296 750 -313 q 677 -252 694 -279 q 660 -184 660 -224 q 669 -139 660 -165 q 699 -88 677 -114 q 753 -39 720 -62 q 838 0 787 -16 l 146 0 l 146 932 l 1089 932 l 1089 733 l 404 733 l 404 579 l 1054 579 l 1054 380 l 404 380 l 404 199 l 1099 199 l 1099 0 l 1099 0 z "},"ę":{"ha":1344,"x_min":83,"x_max":1261,"o":"m 1185 46 q 1089 17 1134 35 q 1010 -24 1044 -1 q 956 -77 976 -47 q 936 -140 936 -106 q 956 -180 936 -169 q 1018 -192 975 -192 q 1060 -188 1037 -192 q 1106 -178 1083 -184 q 1149 -165 1128 -172 q 1183 -153 1169 -159 l 1183 -293 q 1147 -303 1169 -297 q 1096 -315 1125 -309 q 1030 -324 1066 -320 q 953 -328 994 -328 q 875 -320 912 -328 q 809 -296 838 -313 q 764 -252 781 -279 q 747 -184 747 -224 q 754 -146 747 -168 q 776 -101 761 -124 q 813 -57 791 -79 q 868 -17 836 -35 q 834 -20 853 -18 q 795 -23 815 -22 q 756 -24 775 -24 q 722 -25 737 -25 q 451 8 570 -25 q 250 103 332 41 q 126 256 169 165 q 83 460 83 346 q 126 656 83 566 q 249 813 170 747 q 439 918 328 880 q 689 956 551 956 q 921 921 816 956 q 1102 820 1027 887 q 1220 654 1178 753 q 1261 428 1261 556 l 1261 366 l 343 366 q 384 285 355 321 q 460 222 412 248 q 578 182 508 197 q 746 168 648 168 q 882 177 815 168 q 1006 199 948 185 q 1110 230 1063 213 q 1185 264 1156 247 l 1185 46 m 1011 550 q 990 622 1008 585 q 936 688 973 659 q 838 738 899 718 q 688 757 778 757 q 541 736 603 757 q 438 684 479 715 q 373 616 396 652 q 343 550 350 581 l 1011 550 z "},"Ě":{"ha":1196,"x_min":146,"x_max":1099,"o":"m 146 0 l 146 932 l 1089 932 l 1089 733 l 404 733 l 404 579 l 1054 579 l 1054 380 l 404 380 l 404 199 l 1099 199 l 1099 0 l 146 0 m 374 1326 l 610 1204 l 846 1326 l 928 1198 l 610 1018 l 292 1198 l 374 1326 z "},"ě":{"ha":1344,"x_min":83,"x_max":1261,"o":"m 1185 46 q 956 -8 1070 8 q 722 -25 842 -25 q 451 8 570 -25 q 250 103 332 41 q 126 256 169 165 q 83 460 83 346 q 126 656 83 566 q 249 813 170 747 q 439 918 328 880 q 689 956 551 956 q 921 921 816 956 q 1102 820 1027 887 q 1220 654 1178 753 q 1261 428 1261 556 l 1261 366 l 343 366 q 384 285 355 321 q 460 222 412 248 q 578 182 508 197 q 746 168 648 168 q 882 177 815 168 q 1006 199 948 185 q 1110 230 1063 213 q 1185 264 1156 247 l 1185 46 m 1011 550 q 990 622 1008 585 q 936 688 973 659 q 838 738 899 718 q 688 757 778 757 q 541 736 603 757 q 438 684 479 715 q 373 616 396 652 q 343 550 350 581 l 1011 550 m 446 1326 l 682 1204 l 918 1326 l 1000 1198 l 682 1018 l 364 1198 l 446 1326 z "},"Ĝ":{"ha":1364,"x_min":83,"x_max":1239,"o":"m 746 956 q 1001 932 883 956 q 1217 872 1118 909 l 1217 644 q 1129 686 1178 666 q 1024 722 1081 707 q 902 747 967 738 q 765 757 837 757 q 609 744 675 757 q 495 709 543 731 q 417 659 448 688 q 369 597 387 630 q 345 531 351 565 q 338 465 338 497 q 343 405 338 437 q 365 340 349 372 q 410 277 381 307 q 484 224 438 248 q 594 188 530 201 q 747 174 659 174 q 825 176 792 174 q 886 184 859 179 q 938 195 913 189 q 987 210 962 202 l 987 322 l 705 322 l 705 526 l 1239 526 l 1239 50 q 1127 19 1189 33 q 999 -4 1065 5 q 866 -20 932 -14 q 741 -25 800 -25 q 565 -13 649 -25 q 408 25 481 -1 q 275 90 335 50 q 173 183 215 129 q 107 308 130 237 q 83 465 83 378 q 108 623 83 552 q 176 747 132 693 q 281 841 220 802 q 416 906 342 880 q 573 943 490 931 q 746 956 657 956 m 971 1018 l 735 1140 l 499 1018 l 417 1145 l 735 1326 l 1053 1145 l 971 1018 z "},"ĝ":{"ha":1364,"x_min":83,"x_max":1239,"o":"m 746 956 q 1001 932 883 956 q 1217 872 1118 909 l 1217 644 q 1129 686 1178 666 q 1024 722 1081 707 q 902 747 967 738 q 765 757 837 757 q 609 744 675 757 q 495 709 543 731 q 417 659 448 688 q 369 597 387 630 q 345 531 351 565 q 338 465 338 497 q 343 405 338 437 q 365 340 349 372 q 410 277 381 307 q 484 224 438 248 q 594 188 530 201 q 747 174 659 174 q 825 176 792 174 q 886 184 859 179 q 938 195 913 189 q 987 210 962 202 l 987 322 l 705 322 l 705 526 l 1239 526 l 1239 50 q 1127 19 1189 33 q 999 -4 1065 5 q 866 -20 932 -14 q 741 -25 800 -25 q 565 -13 649 -25 q 408 25 481 -1 q 275 90 335 50 q 173 183 215 129 q 107 308 130 237 q 83 465 83 378 q 108 623 83 552 q 176 747 132 693 q 281 841 220 802 q 416 906 342 880 q 573 943 490 931 q 746 956 657 956 m 971 1018 l 735 1140 l 499 1018 l 417 1145 l 735 1326 l 1053 1145 l 971 1018 z "},"Ğ":{"ha":1364,"x_min":83,"x_max":1239,"o":"m 746 956 q 1001 932 883 956 q 1217 872 1118 909 l 1217 644 q 1129 686 1178 666 q 1024 722 1081 707 q 902 747 967 738 q 765 757 837 757 q 609 744 675 757 q 495 709 543 731 q 417 659 448 688 q 369 597 387 630 q 345 531 351 565 q 338 465 338 497 q 343 405 338 437 q 365 340 349 372 q 410 277 381 307 q 484 224 438 248 q 594 188 530 201 q 747 174 659 174 q 825 176 792 174 q 886 184 859 179 q 938 195 913 189 q 987 210 962 202 l 987 322 l 705 322 l 705 526 l 1239 526 l 1239 50 q 1127 19 1189 33 q 999 -4 1065 5 q 866 -20 932 -14 q 741 -25 800 -25 q 565 -13 649 -25 q 408 25 481 -1 q 275 90 335 50 q 173 183 215 129 q 107 308 130 237 q 83 465 83 378 q 108 623 83 552 q 176 747 132 693 q 281 841 220 802 q 416 906 342 880 q 573 943 490 931 q 746 956 657 956 m 1011 1298 q 1006 1255 1010 1281 q 989 1198 1001 1228 q 959 1137 978 1168 q 909 1082 939 1107 q 836 1042 878 1057 q 735 1026 793 1026 q 634 1042 677 1026 q 561 1082 591 1057 q 511 1137 531 1107 q 480 1198 492 1168 q 464 1255 469 1228 q 458 1298 459 1281 l 587 1298 q 599 1269 591 1286 q 624 1236 608 1252 q 668 1210 641 1221 q 735 1198 694 1198 q 802 1210 775 1198 q 846 1236 829 1221 q 872 1269 863 1252 q 885 1298 881 1286 l 1011 1298 l 1011 1298 z "},"ğ":{"ha":1364,"x_min":83,"x_max":1239,"o":"m 746 956 q 1001 932 883 956 q 1217 872 1118 909 l 1217 644 q 1129 686 1178 666 q 1024 722 1081 707 q 902 747 967 738 q 765 757 837 757 q 609 744 675 757 q 495 709 543 731 q 417 659 448 688 q 369 597 387 630 q 345 531 351 565 q 338 465 338 497 q 343 405 338 437 q 365 340 349 372 q 410 277 381 307 q 484 224 438 248 q 594 188 530 201 q 747 174 659 174 q 825 176 792 174 q 886 184 859 179 q 938 195 913 189 q 987 210 962 202 l 987 322 l 705 322 l 705 526 l 1239 526 l 1239 50 q 1127 19 1189 33 q 999 -4 1065 5 q 866 -20 932 -14 q 741 -25 800 -25 q 565 -13 649 -25 q 408 25 481 -1 q 275 90 335 50 q 173 183 215 129 q 107 308 130 237 q 83 465 83 378 q 108 623 83 552 q 176 747 132 693 q 281 841 220 802 q 416 906 342 880 q 573 943 490 931 q 746 956 657 956 m 1011 1298 q 1006 1255 1010 1281 q 989 1198 1001 1228 q 959 1137 978 1168 q 909 1082 939 1107 q 836 1042 878 1057 q 735 1026 793 1026 q 634 1042 677 1026 q 561 1082 591 1057 q 511 1137 531 1107 q 480 1198 492 1168 q 464 1255 469 1228 q 458 1298 459 1281 l 587 1298 q 599 1269 591 1286 q 624 1236 608 1252 q 668 1210 641 1221 q 735 1198 694 1198 q 802 1210 775 1198 q 846 1236 829 1221 q 872 1269 863 1252 q 885 1298 881 1286 l 1011 1298 l 1011 1298 z "},"Ġ":{"ha":1364,"x_min":83,"x_max":1239,"o":"m 746 956 q 1001 932 883 956 q 1217 872 1118 909 l 1217 644 q 1129 686 1178 666 q 1024 722 1081 707 q 902 747 967 738 q 765 757 837 757 q 609 744 675 757 q 495 709 543 731 q 417 659 448 688 q 369 597 387 630 q 345 531 351 565 q 338 465 338 497 q 343 405 338 437 q 365 340 349 372 q 410 277 381 307 q 484 224 438 248 q 594 188 530 201 q 747 174 659 174 q 825 176 792 174 q 886 184 859 179 q 938 195 913 189 q 987 210 962 202 l 987 322 l 705 322 l 705 526 l 1239 526 l 1239 50 q 1127 19 1189 33 q 999 -4 1065 5 q 866 -20 932 -14 q 741 -25 800 -25 q 565 -13 649 -25 q 408 25 481 -1 q 275 90 335 50 q 173 183 215 129 q 107 308 130 237 q 83 465 83 378 q 108 623 83 552 q 176 747 132 693 q 281 841 220 802 q 416 906 342 880 q 573 943 490 931 q 746 956 657 956 m 627 1031 l 627 1247 l 843 1247 l 843 1031 l 627 1031 z "},"ġ":{"ha":1364,"x_min":83,"x_max":1239,"o":"m 746 956 q 1001 932 883 956 q 1217 872 1118 909 l 1217 644 q 1129 686 1178 666 q 1024 722 1081 707 q 902 747 967 738 q 765 757 837 757 q 609 744 675 757 q 495 709 543 731 q 417 659 448 688 q 369 597 387 630 q 345 531 351 565 q 338 465 338 497 q 343 405 338 437 q 365 340 349 372 q 410 277 381 307 q 484 224 438 248 q 594 188 530 201 q 747 174 659 174 q 825 176 792 174 q 886 184 859 179 q 938 195 913 189 q 987 210 962 202 l 987 322 l 705 322 l 705 526 l 1239 526 l 1239 50 q 1127 19 1189 33 q 999 -4 1065 5 q 866 -20 932 -14 q 741 -25 800 -25 q 565 -13 649 -25 q 408 25 481 -1 q 275 90 335 50 q 173 183 215 129 q 107 308 130 237 q 83 465 83 378 q 108 623 83 552 q 176 747 132 693 q 281 841 220 802 q 416 906 342 880 q 573 943 490 931 q 746 956 657 956 m 627 1031 l 627 1247 l 843 1247 l 843 1031 l 627 1031 z "},"Ģ":{"ha":1364,"x_min":83,"x_max":1239,"o":"m 746 956 q 1001 932 883 956 q 1217 872 1118 909 l 1217 644 q 1129 686 1178 666 q 1024 722 1081 707 q 902 747 967 738 q 765 757 837 757 q 609 744 675 757 q 495 709 543 731 q 417 659 448 688 q 369 597 387 630 q 345 531 351 565 q 338 465 338 497 q 343 405 338 437 q 365 340 349 372 q 410 277 381 307 q 484 224 438 248 q 594 188 530 201 q 747 174 659 174 q 825 176 792 174 q 886 184 859 179 q 938 195 913 189 q 987 210 962 202 l 987 322 l 705 322 l 705 526 l 1239 526 l 1239 50 q 1127 19 1189 33 q 999 -4 1065 5 q 866 -20 932 -14 q 741 -25 800 -25 q 565 -13 649 -25 q 408 25 481 -1 q 275 90 335 50 q 173 183 215 129 q 107 308 130 237 q 83 465 83 378 q 108 623 83 552 q 176 747 132 693 q 281 841 220 802 q 416 906 342 880 q 573 943 490 931 q 746 956 657 956 m 747 -342 l 582 -342 l 616 -83 l 838 -83 l 747 -342 z "},"ģ":{"ha":1364,"x_min":83,"x_max":1239,"o":"m 746 956 q 1001 932 883 956 q 1217 872 1118 909 l 1217 644 q 1129 686 1178 666 q 1024 722 1081 707 q 902 747 967 738 q 765 757 837 757 q 609 744 675 757 q 495 709 543 731 q 417 659 448 688 q 369 597 387 630 q 345 531 351 565 q 338 465 338 497 q 343 405 338 437 q 365 340 349 372 q 410 277 381 307 q 484 224 438 248 q 594 188 530 201 q 747 174 659 174 q 825 176 792 174 q 886 184 859 179 q 938 195 913 189 q 987 210 962 202 l 987 322 l 705 322 l 705 526 l 1239 526 l 1239 50 q 1127 19 1189 33 q 999 -4 1065 5 q 866 -20 932 -14 q 741 -25 800 -25 q 565 -13 649 -25 q 408 25 481 -1 q 275 90 335 50 q 173 183 215 129 q 107 308 130 237 q 83 465 83 378 q 108 623 83 552 q 176 747 132 693 q 281 841 220 802 q 416 906 342 880 q 573 943 490 931 q 746 956 657 956 m 747 -342 l 582 -342 l 616 -83 l 838 -83 l 747 -342 z "},"Ĥ":{"ha":1435,"x_min":146,"x_max":1289,"o":"m 1038 0 l 1038 389 l 397 389 l 397 0 l 146 0 l 146 932 l 397 932 l 397 593 l 1038 593 l 1038 932 l 1289 932 l 1289 0 l 1038 0 m 949 1018 l 713 1140 l 477 1018 l 395 1145 l 713 1326 l 1031 1145 l 949 1018 z "},"ĥ":{"ha":1435,"x_min":146,"x_max":1289,"o":"m 1038 0 l 1038 389 l 397 389 l 397 0 l 146 0 l 146 932 l 397 932 l 397 593 l 1038 593 l 1038 932 l 1289 932 l 1289 0 l 1038 0 m 949 1018 l 713 1140 l 477 1018 l 395 1145 l 713 1326 l 1031 1145 l 949 1018 z "},"Ħ":{"ha":1435,"x_min":37,"x_max":1397,"o":"m 1038 0 l 1038 361 l 397 361 l 397 0 l 146 0 l 146 652 l 37 652 l 37 798 l 146 798 l 146 932 l 397 932 l 397 798 l 1038 798 l 1038 932 l 1289 932 l 1289 798 l 1397 798 l 1397 652 l 1289 652 l 1289 0 l 1038 0 m 1038 566 l 1038 652 l 397 652 l 397 566 l 1038 566 z "},"ħ":{"ha":1435,"x_min":37,"x_max":1397,"o":"m 1038 0 l 1038 361 l 397 361 l 397 0 l 146 0 l 146 652 l 37 652 l 37 798 l 146 798 l 146 932 l 397 932 l 397 798 l 1038 798 l 1038 932 l 1289 932 l 1289 798 l 1397 798 l 1397 652 l 1289 652 l 1289 0 l 1038 0 m 1038 566 l 1038 652 l 397 652 l 397 566 l 1038 566 z "},"Ì":{"ha":543,"x_min":1,"x_max":416,"o":"m 146 0 l 146 932 l 397 932 l 397 0 l 146 0 m 90 1323 l 416 1133 l 355 1018 l 1 1144 l 90 1323 z "},"ì":{"ha":543,"x_min":2,"x_max":418,"o":"m 146 0 l 146 932 l 397 932 l 397 0 l 146 0 m 91 1332 l 418 1142 l 357 1027 l 2 1153 l 91 1332 z "},"Í":{"ha":543,"x_min":126,"x_max":541,"o":"m 146 0 l 146 932 l 397 932 l 397 0 l 146 0 m 541 1144 l 187 1018 l 126 1133 l 452 1323 l 541 1144 z "},"í":{"ha":543,"x_min":127,"x_max":543,"o":"m 146 0 l 146 932 l 397 932 l 397 0 l 146 0 m 543 1144 l 189 1018 l 127 1133 l 454 1323 l 543 1144 z "},"Î":{"ha":543,"x_min":-49,"x_max":587,"o":"m 146 0 l 146 932 l 397 932 l 397 0 l 146 0 m 505 1018 l 269 1140 l 33 1018 l -49 1145 l 269 1326 l 587 1145 l 505 1018 z "},"î":{"ha":543,"x_min":-47,"x_max":589,"o":"m 146 0 l 146 932 l 397 932 l 397 0 l 146 0 m 507 1018 l 271 1140 l 35 1018 l -47 1145 l 271 1326 l 589 1145 l 507 1018 z "},"Ï":{"ha":543,"x_min":7,"x_max":532,"o":"m 146 0 l 146 932 l 397 932 l 397 0 l 146 0 m 7 1031 l 7 1242 l 218 1242 l 218 1031 l 7 1031 m 320 1031 l 320 1242 l 532 1242 l 532 1031 l 320 1031 z "},"ï":{"ha":543,"x_min":8,"x_max":533,"o":"m 146 0 l 146 932 l 397 932 l 397 0 l 146 0 m 8 1031 l 8 1242 l 219 1242 l 219 1031 l 8 1031 m 321 1031 l 321 1242 l 533 1242 l 533 1031 l 321 1031 z "},"Ĩ":{"ha":543,"x_min":3,"x_max":537,"o":"m 146 0 l 146 932 l 397 932 l 397 0 l 146 0 m 537 1270 q 526 1158 537 1205 q 492 1082 514 1112 q 438 1038 470 1052 q 368 1023 407 1023 q 306 1036 331 1023 q 261 1064 281 1049 q 224 1093 241 1080 q 184 1105 206 1105 q 152 1095 164 1105 q 134 1071 140 1085 q 126 1044 128 1057 q 123 1023 124 1030 l 3 1023 q 15 1127 3 1081 q 50 1204 27 1173 q 103 1253 72 1236 q 174 1270 135 1270 q 230 1257 206 1270 q 273 1229 253 1244 q 313 1201 294 1214 q 357 1189 332 1189 q 389 1199 377 1189 q 407 1222 401 1209 q 415 1249 413 1236 q 418 1270 417 1263 l 537 1270 l 537 1270 z "},"ĩ":{"ha":543,"x_min":5,"x_max":538,"o":"m 146 0 l 146 932 l 397 932 l 397 0 l 146 0 m 538 1270 q 527 1158 538 1205 q 493 1082 515 1112 q 440 1038 471 1052 q 369 1023 408 1023 q 307 1036 332 1023 q 262 1064 282 1049 q 225 1093 243 1080 q 186 1105 208 1105 q 154 1095 165 1105 q 136 1071 142 1085 q 127 1044 130 1057 q 125 1023 125 1030 l 5 1023 q 17 1127 5 1081 q 51 1204 28 1173 q 105 1253 73 1236 q 176 1270 136 1270 q 231 1257 208 1270 q 275 1229 254 1244 q 314 1201 295 1214 q 358 1189 334 1189 q 390 1199 378 1189 q 408 1222 402 1209 q 416 1249 414 1236 q 419 1270 418 1263 l 538 1270 l 538 1270 z "},"Ī":{"ha":543,"x_min":41,"x_max":497,"o":"m 146 0 l 146 932 l 397 932 l 397 0 l 146 0 m 41 1046 l 41 1219 l 497 1219 l 497 1046 l 41 1046 z "},"ī":{"ha":543,"x_min":43,"x_max":498,"o":"m 146 0 l 146 932 l 397 932 l 397 0 l 146 0 m 43 1046 l 43 1219 l 498 1219 l 498 1046 l 43 1046 z "},"Ĭ":{"ha":543,"x_min":-7,"x_max":545,"o":"m 146 0 l 146 932 l 397 932 l 397 0 l 146 0 m 545 1298 q 540 1255 545 1281 q 524 1198 535 1228 q 493 1137 512 1168 q 443 1082 473 1107 q 370 1042 412 1057 q 269 1026 327 1026 q 168 1042 211 1026 q 95 1082 125 1057 q 45 1137 65 1107 q 15 1198 26 1168 q -2 1255 3 1228 q -7 1298 -7 1281 l 121 1298 q 133 1269 125 1286 q 158 1236 142 1252 q 202 1210 175 1221 q 269 1198 229 1198 q 336 1210 309 1198 q 380 1236 363 1221 q 406 1269 397 1252 q 419 1298 415 1286 l 545 1298 l 545 1298 z "},"ĭ":{"ha":543,"x_min":-6,"x_max":547,"o":"m 146 0 l 146 932 l 397 932 l 397 0 l 146 0 m 547 1298 q 541 1255 546 1281 q 525 1198 536 1228 q 494 1137 513 1168 q 444 1082 475 1107 q 371 1042 414 1057 q 271 1026 328 1026 q 170 1042 212 1026 q 97 1082 127 1057 q 47 1137 66 1107 q 16 1198 27 1168 q 0 1255 5 1228 q -6 1298 -5 1281 l 122 1298 q 135 1269 126 1286 q 160 1236 143 1252 q 203 1210 176 1221 q 271 1198 230 1198 q 337 1210 311 1198 q 381 1236 364 1221 q 407 1269 398 1252 q 420 1298 416 1286 l 547 1298 l 547 1298 z "},"Į":{"ha":543,"x_min":55,"x_max":491,"o":"m 146 0 l 146 932 l 397 932 l 397 0 l 146 0 m 344 14 q 302 -22 321 -3 q 271 -62 284 -41 q 251 -102 258 -82 q 243 -140 243 -122 q 263 -180 243 -169 q 326 -192 283 -192 q 368 -188 345 -192 q 413 -178 391 -184 q 456 -165 436 -172 q 491 -153 477 -159 l 491 -293 q 455 -303 477 -297 q 403 -315 433 -309 q 338 -324 374 -320 q 260 -328 302 -328 q 182 -320 220 -328 q 117 -296 145 -313 q 72 -252 89 -279 q 55 -184 55 -224 q 65 -135 55 -163 q 94 -80 75 -108 q 140 -28 113 -53 q 201 14 168 -3 l 344 14 z "},"į":{"ha":543,"x_min":55,"x_max":491,"o":"m 146 0 l 146 932 l 397 932 l 397 0 l 146 0 m 344 14 q 302 -22 321 -3 q 271 -62 284 -41 q 251 -102 258 -82 q 243 -140 243 -122 q 263 -180 243 -169 q 326 -192 283 -192 q 368 -188 345 -192 q 413 -178 391 -184 q 456 -165 436 -172 q 491 -153 477 -159 l 491 -293 q 455 -303 477 -297 q 403 -315 433 -309 q 338 -324 374 -320 q 260 -328 302 -328 q 182 -320 220 -328 q 117 -296 145 -313 q 72 -252 89 -279 q 55 -184 55 -224 q 65 -135 55 -163 q 94 -80 75 -108 q 140 -28 113 -53 q 201 14 168 -3 l 344 14 z "},"İ":{"ha":543,"x_min":146,"x_max":397,"o":"m 146 0 l 146 932 l 397 932 l 397 0 l 146 0 m 161 1031 l 161 1247 l 377 1247 l 377 1031 l 161 1031 z "},"ı":{"ha":543,"x_min":146,"x_max":397,"o":"m 146 0 l 146 932 l 397 932 l 397 0 l 146 0 z "},"Ĳ":{"ha":1503,"x_min":146,"x_max":1364,"o":"m 146 0 l 146 932 l 397 932 l 397 0 l 146 0 m 1364 345 q 1334 184 1364 252 q 1245 74 1303 117 q 1103 10 1187 31 q 911 -11 1019 -11 q 807 -6 861 -11 q 704 7 753 -1 q 613 23 654 14 q 543 39 571 31 l 543 257 q 606 234 572 245 q 681 212 640 222 q 773 197 723 203 q 885 191 824 191 q 995 205 951 191 q 1065 246 1038 220 q 1102 307 1091 272 q 1113 385 1113 342 l 1113 932 l 1364 932 l 1364 345 z "},"ĳ":{"ha":1503,"x_min":146,"x_max":1364,"o":"m 146 0 l 146 932 l 397 932 l 397 0 l 146 0 m 1364 345 q 1334 184 1364 252 q 1245 74 1303 117 q 1103 10 1187 31 q 911 -11 1019 -11 q 807 -6 861 -11 q 704 7 753 -1 q 613 23 654 14 q 543 39 571 31 l 543 257 q 606 234 572 245 q 681 212 640 222 q 773 197 723 203 q 885 191 824 191 q 995 205 951 191 q 1065 246 1038 220 q 1102 307 1091 272 q 1113 385 1113 342 l 1113 932 l 1364 932 l 1364 345 z "},"Ĵ":{"ha":960,"x_min":0,"x_max":1020,"o":"m 821 345 q 790 184 821 252 q 702 74 760 117 q 560 10 644 31 q 368 -11 476 -11 q 264 -6 317 -11 q 161 7 210 -1 q 70 23 111 14 q 0 39 28 31 l 0 257 q 62 234 28 245 q 138 212 96 222 q 230 197 180 203 q 342 191 281 191 q 451 205 408 191 q 522 246 495 220 q 559 307 548 272 q 570 385 570 342 l 570 932 l 821 932 l 821 345 m 938 1018 l 702 1140 l 466 1018 l 384 1145 l 702 1326 l 1020 1145 l 938 1018 z "},"ĵ":{"ha":960,"x_min":0,"x_max":1014,"o":"m 821 345 q 790 184 821 252 q 702 74 760 117 q 560 10 644 31 q 368 -11 476 -11 q 264 -6 317 -11 q 161 7 210 -1 q 70 23 111 14 q 0 39 28 31 l 0 257 q 62 234 28 245 q 138 212 96 222 q 230 197 180 203 q 342 191 281 191 q 451 205 408 191 q 522 246 495 220 q 559 307 548 272 q 570 385 570 342 l 570 932 l 821 932 l 821 345 m 932 1018 l 696 1140 l 460 1018 l 378 1145 l 696 1326 l 1014 1145 l 932 1018 z "},"ȷ":{"ha":960,"x_min":0,"x_max":821,"o":"m 821 345 q 790 184 821 252 q 702 74 760 117 q 560 10 644 31 q 368 -11 476 -11 q 264 -6 317 -11 q 161 7 210 -1 q 70 23 111 14 q 0 39 28 31 l 0 257 q 62 234 28 245 q 138 212 96 222 q 230 197 180 203 q 342 191 281 191 q 451 205 408 191 q 522 246 495 220 q 559 307 548 272 q 570 385 570 342 l 570 932 l 821 932 l 821 345 z "},"Ķ":{"ha":1293,"x_min":146,"x_max":1293,"o":"m 399 576 l 914 932 l 1251 932 l 624 485 l 1293 0 l 926 0 l 399 387 l 399 0 l 146 0 l 146 932 l 399 932 l 399 576 m 684 -342 l 518 -342 l 552 -83 l 774 -83 l 684 -342 z "},"ķ":{"ha":1357,"x_min":146,"x_max":1287,"o":"m 1031 0 q 994 133 1024 76 q 919 232 964 191 q 818 300 874 273 q 701 343 761 328 q 582 366 642 359 q 472 372 523 372 l 397 372 l 397 0 l 146 0 l 146 932 l 397 932 l 397 572 l 449 572 q 558 581 501 572 q 671 606 615 589 q 779 652 727 624 q 871 720 830 680 q 939 812 911 760 q 972 932 966 865 l 1229 932 q 1199 798 1222 858 q 1143 691 1177 739 q 1068 609 1109 644 q 983 548 1027 574 q 897 506 940 523 q 817 481 854 490 q 915 457 864 473 q 1017 415 966 441 q 1113 351 1067 389 q 1195 262 1158 313 q 1256 146 1232 212 q 1287 0 1280 81 l 1031 0 m 715 -342 l 550 -342 l 584 -83 l 806 -83 l 715 -342 z "},"ĸ":{"ha":1204,"x_min":75,"x_max":1216,"o":"m 960 0 q 923 133 953 76 q 848 232 893 191 q 746 300 803 273 q 630 343 690 328 q 511 366 570 359 q 401 372 452 372 l 326 372 l 326 0 l 75 0 l 75 932 l 326 932 l 326 572 l 378 572 q 487 581 430 572 q 600 606 544 589 q 707 652 656 624 q 800 720 759 680 q 867 812 840 760 q 901 932 895 865 l 1158 932 q 1128 798 1151 858 q 1072 691 1105 739 q 997 609 1038 644 q 912 548 956 574 q 826 506 869 523 q 745 481 783 490 q 844 457 793 473 q 945 415 895 441 q 1041 351 996 389 q 1124 262 1087 313 q 1185 146 1160 212 q 1216 0 1209 81 l 960 0 z "},"Ĺ":{"ha":1133,"x_min":130,"x_max":1078,"o":"m 146 0 l 146 932 l 397 932 l 397 204 l 1078 204 l 1078 0 l 146 0 m 545 1144 l 191 1018 l 130 1133 l 456 1323 l 545 1144 z "},"ĺ":{"ha":1136,"x_min":130,"x_max":1080,"o":"m 397 399 q 408 303 397 340 q 444 245 419 267 q 507 215 468 223 q 603 207 546 207 l 1080 207 l 1080 0 l 551 0 q 365 18 441 0 q 239 74 288 36 q 168 169 190 111 q 146 306 146 227 l 146 932 l 397 932 l 397 399 m 545 1144 l 191 1018 l 130 1133 l 456 1323 l 545 1144 z "},"Ļ":{"ha":1133,"x_min":146,"x_max":1078,"o":"m 146 0 l 146 932 l 397 932 l 397 204 l 1078 204 l 1078 0 l 146 0 m 632 -342 l 467 -342 l 500 -83 l 722 -83 l 632 -342 z "},"ļ":{"ha":1136,"x_min":146,"x_max":1080,"o":"m 397 399 q 408 303 397 340 q 444 245 419 267 q 507 215 468 223 q 603 207 546 207 l 1080 207 l 1080 0 l 551 0 q 365 18 441 0 q 239 74 288 36 q 168 169 190 111 q 146 306 146 227 l 146 932 l 397 932 l 397 399 m 647 -342 l 481 -342 l 515 -83 l 737 -83 l 647 -342 z "},"Ľ":{"ha":1133,"x_min":146,"x_max":1078,"o":"m 146 0 l 146 932 l 397 932 l 397 204 l 1078 204 l 1078 0 l 146 0 m 850 590 l 671 590 l 733 932 l 956 932 l 850 590 z "},"ľ":{"ha":1136,"x_min":146,"x_max":1080,"o":"m 397 399 q 408 303 397 340 q 444 245 419 267 q 507 215 468 223 q 603 207 546 207 l 1080 207 l 1080 0 l 551 0 q 365 18 441 0 q 239 74 288 36 q 168 169 190 111 q 146 306 146 227 l 146 932 l 397 932 l 397 399 m 851 590 l 672 590 l 734 932 l 957 932 l 851 590 z "},"Ŀ":{"ha":1133,"x_min":146,"x_max":1078,"o":"m 146 0 l 146 932 l 397 932 l 397 204 l 1078 204 l 1078 0 l 146 0 m 725 385 l 725 629 l 982 629 l 982 385 l 725 385 z "},"ŀ":{"ha":1136,"x_min":146,"x_max":1080,"o":"m 397 399 q 408 303 397 340 q 444 245 419 267 q 507 215 468 223 q 603 207 546 207 l 1080 207 l 1080 0 l 551 0 q 365 18 441 0 q 239 74 288 36 q 168 169 190 111 q 146 306 146 227 l 146 932 l 397 932 l 397 399 m 725 385 l 725 629 l 982 629 l 982 385 l 725 385 z "},"Ł":{"ha":1133,"x_min":-18,"x_max":1078,"o":"m 146 0 l 146 354 l 43 315 l -18 465 l 146 529 l 146 932 l 397 932 l 397 627 l 554 688 l 615 538 l 397 453 l 397 204 l 1078 204 l 1078 0 l 146 0 z "},"ł":{"ha":1136,"x_min":-18,"x_max":1080,"o":"m 397 627 l 554 688 l 615 538 l 397 453 l 397 399 q 408 303 397 340 q 444 245 419 267 q 507 215 468 223 q 603 207 546 207 l 1080 207 l 1080 0 l 551 0 q 365 18 441 0 q 239 74 288 36 q 168 169 190 111 q 146 306 146 227 l 146 354 l 43 315 l -18 465 l 146 529 l 146 932 l 397 932 l 397 627 z "},"Ñ":{"ha":1444,"x_min":146,"x_max":1299,"o":"m 1026 0 l 397 640 l 397 0 l 146 0 l 146 932 l 419 932 l 1048 289 l 1048 932 l 1299 932 l 1299 0 l 1026 0 m 1000 1270 q 989 1158 1000 1205 q 955 1082 977 1112 q 902 1038 933 1052 q 831 1023 870 1023 q 769 1036 794 1023 q 724 1064 744 1049 q 687 1093 705 1080 q 648 1105 669 1105 q 615 1095 627 1105 q 597 1071 604 1085 q 589 1044 591 1057 q 587 1023 587 1030 l 467 1023 q 478 1127 467 1081 q 513 1204 490 1173 q 567 1253 535 1236 q 637 1270 598 1270 q 693 1257 669 1270 q 736 1229 716 1244 q 776 1201 757 1214 q 820 1189 795 1189 q 852 1199 840 1189 q 870 1222 864 1209 q 878 1249 876 1236 q 881 1270 880 1263 l 1000 1270 l 1000 1270 z "},"ñ":{"ha":1426,"x_min":146,"x_max":1284,"o":"m 1034 0 l 1034 522 q 1025 617 1034 574 q 992 689 1016 659 q 925 736 968 720 q 814 753 882 753 q 706 739 762 753 q 593 702 649 725 q 487 648 538 679 q 397 585 437 618 l 397 0 l 146 0 l 146 932 l 397 932 l 397 804 q 498 858 445 831 q 612 907 552 885 q 741 942 673 928 q 884 956 808 956 q 1052 933 978 956 q 1178 868 1126 910 q 1257 767 1230 827 q 1284 635 1284 708 l 1284 0 l 1034 0 m 1031 1270 q 1019 1158 1031 1205 q 986 1082 1008 1112 q 932 1038 964 1052 q 861 1023 901 1023 q 800 1036 825 1023 q 755 1064 774 1049 q 718 1093 735 1080 q 678 1105 700 1105 q 646 1095 658 1105 q 628 1071 634 1085 q 620 1044 622 1057 q 617 1023 618 1030 l 497 1023 q 509 1127 497 1081 q 543 1204 521 1173 q 597 1253 566 1236 q 668 1270 629 1270 q 723 1257 700 1270 q 767 1229 747 1244 q 807 1201 787 1214 q 850 1189 826 1189 q 883 1199 871 1189 q 901 1222 895 1209 q 909 1249 907 1236 q 911 1270 911 1263 l 1031 1270 l 1031 1270 z "},"Ń":{"ha":1444,"x_min":146,"x_max":1299,"o":"m 1026 0 l 397 640 l 397 0 l 146 0 l 146 932 l 419 932 l 1048 289 l 1048 932 l 1299 932 l 1299 0 l 1026 0 m 1004 1144 l 650 1018 l 589 1133 l 916 1323 l 1004 1144 z "},"ń":{"ha":1426,"x_min":146,"x_max":1284,"o":"m 1034 0 l 1034 522 q 1025 617 1034 574 q 992 689 1016 659 q 925 736 968 720 q 814 753 882 753 q 706 739 762 753 q 593 702 649 725 q 487 648 538 679 q 397 585 437 618 l 397 0 l 146 0 l 146 932 l 397 932 l 397 804 q 498 858 445 831 q 612 907 552 885 q 741 942 673 928 q 884 956 808 956 q 1052 933 978 956 q 1178 868 1126 910 q 1257 767 1230 827 q 1284 635 1284 708 l 1284 0 l 1034 0 m 1035 1144 l 681 1018 l 620 1133 l 946 1323 l 1035 1144 z "},"Ņ":{"ha":1444,"x_min":146,"x_max":1299,"o":"m 1026 0 l 397 640 l 397 0 l 146 0 l 146 932 l 419 932 l 1048 289 l 1048 932 l 1299 932 l 1299 0 l 1026 0 m 774 -342 l 608 -342 l 642 -83 l 864 -83 l 774 -342 z "},"ņ":{"ha":1426,"x_min":146,"x_max":1284,"o":"m 1034 0 l 1034 522 q 1025 617 1034 574 q 992 689 1016 659 q 925 736 968 720 q 814 753 882 753 q 706 739 762 753 q 593 702 649 725 q 487 648 538 679 q 397 585 437 618 l 397 0 l 146 0 l 146 932 l 397 932 l 397 804 q 498 858 445 831 q 612 907 552 885 q 741 942 673 928 q 884 956 808 956 q 1052 933 978 956 q 1178 868 1126 910 q 1257 767 1230 827 q 1284 635 1284 708 l 1284 0 l 1034 0 m 750 -342 l 585 -342 l 618 -83 l 840 -83 l 750 -342 z "},"Ň":{"ha":1444,"x_min":146,"x_max":1299,"o":"m 1026 0 l 397 640 l 397 0 l 146 0 l 146 932 l 419 932 l 1048 289 l 1048 932 l 1299 932 l 1299 0 l 1026 0 m 496 1326 l 732 1204 l 968 1326 l 1050 1198 l 732 1018 l 414 1198 l 496 1326 z "},"ň":{"ha":1426,"x_min":146,"x_max":1284,"o":"m 1034 0 l 1034 522 q 1025 617 1034 574 q 992 689 1016 659 q 925 736 968 720 q 814 753 882 753 q 706 739 762 753 q 593 702 649 725 q 487 648 538 679 q 397 585 437 618 l 397 0 l 146 0 l 146 932 l 397 932 l 397 804 q 498 858 445 831 q 612 907 552 885 q 741 942 673 928 q 884 956 808 956 q 1052 933 978 956 q 1178 868 1126 910 q 1257 767 1230 827 q 1284 635 1284 708 l 1284 0 l 1034 0 m 527 1326 l 763 1204 l 999 1326 l 1081 1198 l 763 1018 l 445 1198 l 527 1326 z "},"ŉ":{"ha":1622,"x_min":1,"x_max":1480,"o":"m 180 590 l 1 590 l 63 932 l 286 932 l 180 590 m 1230 0 l 1230 522 q 1221 617 1230 574 q 1188 689 1212 659 q 1121 736 1164 720 q 1010 753 1078 753 q 902 739 958 753 q 789 702 845 725 q 683 648 734 679 q 593 585 633 618 l 593 0 l 342 0 l 342 932 l 593 932 l 593 804 q 694 858 641 831 q 808 907 748 885 q 937 942 869 928 q 1080 956 1004 956 q 1248 933 1174 956 q 1374 868 1322 910 q 1453 767 1426 827 q 1480 635 1480 708 l 1480 0 l 1230 0 z "},"Ŋ":{"ha":1440,"x_min":146,"x_max":1299,"o":"m 872 183 q 927 187 903 183 q 970 199 951 191 l 397 640 l 397 0 l 146 0 l 146 932 l 419 932 l 1048 444 l 1048 932 l 1299 932 l 1299 338 q 1263 168 1299 237 q 1168 58 1227 100 q 1033 -1 1109 17 q 875 -18 957 -18 q 779 -13 824 -18 q 695 0 734 -7 q 623 17 656 8 q 562 33 590 26 l 562 245 q 623 223 591 235 q 694 203 656 212 q 776 189 732 195 q 872 183 821 183 z "},"ŋ":{"ha":1426,"x_min":146,"x_max":1284,"o":"m 1034 522 q 1025 617 1034 574 q 992 689 1016 659 q 925 736 968 720 q 814 753 882 753 q 706 739 762 753 q 593 702 649 725 q 487 648 538 679 q 397 585 437 618 l 397 0 l 146 0 l 146 932 l 397 932 l 397 804 q 498 858 445 831 q 612 907 552 885 q 741 942 673 928 q 884 956 808 956 q 1052 933 978 956 q 1178 868 1126 910 q 1257 767 1230 827 q 1284 635 1284 708 l 1284 329 q 1259 189 1284 252 q 1183 83 1234 127 q 1055 16 1132 39 q 873 -8 977 -8 q 785 -3 829 -8 q 701 8 741 1 q 624 23 660 15 q 561 39 589 31 l 561 254 q 621 233 589 243 q 690 213 653 222 q 770 199 727 204 q 864 193 813 193 q 949 209 916 193 q 1001 250 982 224 q 1027 309 1020 275 q 1034 380 1034 343 l 1034 522 z "},"Ò":{"ha":1435,"x_min":83,"x_max":1352,"o":"m 1352 465 q 1308 253 1352 345 q 1181 100 1263 161 q 982 6 1099 38 q 720 -25 865 -25 q 456 6 574 -25 q 256 100 338 38 q 128 253 173 161 q 83 465 83 345 q 128 677 83 585 q 256 831 173 769 q 456 924 338 892 q 720 956 574 956 q 982 924 865 956 q 1181 831 1099 892 q 1308 677 1263 769 q 1352 465 1352 585 m 1097 465 q 1081 569 1097 517 q 1022 663 1064 621 q 906 730 979 704 q 720 755 833 755 q 586 744 644 755 q 486 711 528 732 q 416 662 444 690 q 370 601 387 633 q 346 534 353 569 q 339 465 339 499 q 346 395 339 431 q 370 328 353 360 q 416 268 387 296 q 486 219 444 240 q 586 187 528 199 q 720 175 644 175 q 906 201 833 175 q 1022 268 979 227 q 1081 361 1064 309 q 1097 465 1097 413 m 540 1323 l 867 1133 l 806 1018 l 451 1144 l 540 1323 z "},"ò":{"ha":1435,"x_min":83,"x_max":1352,"o":"m 1352 465 q 1308 253 1352 345 q 1181 100 1263 161 q 982 6 1099 38 q 720 -25 865 -25 q 456 6 574 -25 q 256 100 338 38 q 128 253 173 161 q 83 465 83 345 q 128 677 83 585 q 256 831 173 769 q 456 924 338 892 q 720 956 574 956 q 982 924 865 956 q 1181 831 1099 892 q 1308 677 1263 769 q 1352 465 1352 585 m 1097 465 q 1081 569 1097 517 q 1022 663 1064 621 q 906 730 979 704 q 720 755 833 755 q 586 744 644 755 q 486 711 528 732 q 416 662 444 690 q 370 601 387 633 q 346 534 353 569 q 339 465 339 499 q 346 395 339 431 q 370 328 353 360 q 416 268 387 296 q 486 219 444 240 q 586 187 528 199 q 720 175 644 175 q 906 201 833 175 q 1022 268 979 227 q 1081 361 1064 309 q 1097 465 1097 413 m 540 1323 l 867 1133 l 806 1018 l 451 1144 l 540 1323 z "},"Ó":{"ha":1435,"x_min":83,"x_max":1352,"o":"m 1352 465 q 1308 253 1352 345 q 1181 100 1263 161 q 982 6 1099 38 q 720 -25 865 -25 q 456 6 574 -25 q 256 100 338 38 q 128 253 173 161 q 83 465 83 345 q 128 677 83 585 q 256 831 173 769 q 456 924 338 892 q 720 956 574 956 q 982 924 865 956 q 1181 831 1099 892 q 1308 677 1263 769 q 1352 465 1352 585 m 1097 465 q 1081 569 1097 517 q 1022 663 1064 621 q 906 730 979 704 q 720 755 833 755 q 586 744 644 755 q 486 711 528 732 q 416 662 444 690 q 370 601 387 633 q 346 534 353 569 q 339 465 339 499 q 346 395 339 431 q 370 328 353 360 q 416 268 387 296 q 486 219 444 240 q 586 187 528 199 q 720 175 644 175 q 906 201 833 175 q 1022 268 979 227 q 1081 361 1064 309 q 1097 465 1097 413 m 991 1144 l 637 1018 l 576 1133 l 903 1323 l 991 1144 z "},"ó":{"ha":1435,"x_min":83,"x_max":1352,"o":"m 1352 465 q 1308 253 1352 345 q 1181 100 1263 161 q 982 6 1099 38 q 720 -25 865 -25 q 456 6 574 -25 q 256 100 338 38 q 128 253 173 161 q 83 465 83 345 q 128 677 83 585 q 256 831 173 769 q 456 924 338 892 q 720 956 574 956 q 982 924 865 956 q 1181 831 1099 892 q 1308 677 1263 769 q 1352 465 1352 585 m 1097 465 q 1081 569 1097 517 q 1022 663 1064 621 q 906 730 979 704 q 720 755 833 755 q 586 744 644 755 q 486 711 528 732 q 416 662 444 690 q 370 601 387 633 q 346 534 353 569 q 339 465 339 499 q 346 395 339 431 q 370 328 353 360 q 416 268 387 296 q 486 219 444 240 q 586 187 528 199 q 720 175 644 175 q 906 201 833 175 q 1022 268 979 227 q 1081 361 1064 309 q 1097 465 1097 413 m 991 1144 l 637 1018 l 576 1133 l 903 1323 l 991 1144 z "},"Ô":{"ha":1435,"x_min":83,"x_max":1352,"o":"m 1352 465 q 1308 253 1352 345 q 1181 100 1263 161 q 982 6 1099 38 q 720 -25 865 -25 q 456 6 574 -25 q 256 100 338 38 q 128 253 173 161 q 83 465 83 345 q 128 677 83 585 q 256 831 173 769 q 456 924 338 892 q 720 956 574 956 q 982 924 865 956 q 1181 831 1099 892 q 1308 677 1263 769 q 1352 465 1352 585 m 1097 465 q 1081 569 1097 517 q 1022 663 1064 621 q 906 730 979 704 q 720 755 833 755 q 586 744 644 755 q 486 711 528 732 q 416 662 444 690 q 370 601 387 633 q 346 534 353 569 q 339 465 339 499 q 346 395 339 431 q 370 328 353 360 q 416 268 387 296 q 486 219 444 240 q 586 187 528 199 q 720 175 644 175 q 906 201 833 175 q 1022 268 979 227 q 1081 361 1064 309 q 1097 465 1097 413 m 956 1018 l 720 1140 l 484 1018 l 401 1145 l 720 1326 l 1038 1145 l 956 1018 z "},"ô":{"ha":1435,"x_min":83,"x_max":1352,"o":"m 1352 465 q 1308 253 1352 345 q 1181 100 1263 161 q 982 6 1099 38 q 720 -25 865 -25 q 456 6 574 -25 q 256 100 338 38 q 128 253 173 161 q 83 465 83 345 q 128 677 83 585 q 256 831 173 769 q 456 924 338 892 q 720 956 574 956 q 982 924 865 956 q 1181 831 1099 892 q 1308 677 1263 769 q 1352 465 1352 585 m 1097 465 q 1081 569 1097 517 q 1022 663 1064 621 q 906 730 979 704 q 720 755 833 755 q 586 744 644 755 q 486 711 528 732 q 416 662 444 690 q 370 601 387 633 q 346 534 353 569 q 339 465 339 499 q 346 395 339 431 q 370 328 353 360 q 416 268 387 296 q 486 219 444 240 q 586 187 528 199 q 720 175 644 175 q 906 201 833 175 q 1022 268 979 227 q 1081 361 1064 309 q 1097 465 1097 413 m 956 1018 l 720 1140 l 484 1018 l 401 1145 l 720 1326 l 1038 1145 l 956 1018 z "},"Õ":{"ha":1435,"x_min":83,"x_max":1352,"o":"m 1352 465 q 1308 253 1352 345 q 1181 100 1263 161 q 982 6 1099 38 q 720 -25 865 -25 q 456 6 574 -25 q 256 100 338 38 q 128 253 173 161 q 83 465 83 345 q 128 677 83 585 q 256 831 173 769 q 456 924 338 892 q 720 956 574 956 q 982 924 865 956 q 1181 831 1099 892 q 1308 677 1263 769 q 1352 465 1352 585 m 1097 465 q 1081 569 1097 517 q 1022 663 1064 621 q 906 730 979 704 q 720 755 833 755 q 586 744 644 755 q 486 711 528 732 q 416 662 444 690 q 370 601 387 633 q 346 534 353 569 q 339 465 339 499 q 346 395 339 431 q 370 328 353 360 q 416 268 387 296 q 486 219 444 240 q 586 187 528 199 q 720 175 644 175 q 906 201 833 175 q 1022 268 979 227 q 1081 361 1064 309 q 1097 465 1097 413 m 987 1270 q 976 1158 987 1205 q 942 1082 964 1112 q 889 1038 920 1052 q 818 1023 857 1023 q 756 1036 781 1023 q 711 1064 731 1049 q 674 1093 692 1080 q 635 1105 656 1105 q 603 1095 614 1105 q 585 1071 591 1085 q 576 1044 578 1057 q 574 1023 574 1030 l 454 1023 q 466 1127 454 1081 q 500 1204 477 1173 q 554 1253 522 1236 q 625 1270 585 1270 q 680 1257 656 1270 q 724 1229 703 1244 q 763 1201 744 1214 q 807 1189 783 1189 q 839 1199 827 1189 q 857 1222 851 1209 q 865 1249 863 1236 q 868 1270 867 1263 l 987 1270 l 987 1270 z "},"õ":{"ha":1435,"x_min":83,"x_max":1352,"o":"m 1352 465 q 1308 253 1352 345 q 1181 100 1263 161 q 982 6 1099 38 q 720 -25 865 -25 q 456 6 574 -25 q 256 100 338 38 q 128 253 173 161 q 83 465 83 345 q 128 677 83 585 q 256 831 173 769 q 456 924 338 892 q 720 956 574 956 q 982 924 865 956 q 1181 831 1099 892 q 1308 677 1263 769 q 1352 465 1352 585 m 1097 465 q 1081 569 1097 517 q 1022 663 1064 621 q 906 730 979 704 q 720 755 833 755 q 586 744 644 755 q 486 711 528 732 q 416 662 444 690 q 370 601 387 633 q 346 534 353 569 q 339 465 339 499 q 346 395 339 431 q 370 328 353 360 q 416 268 387 296 q 486 219 444 240 q 586 187 528 199 q 720 175 644 175 q 906 201 833 175 q 1022 268 979 227 q 1081 361 1064 309 q 1097 465 1097 413 m 987 1270 q 976 1158 987 1205 q 942 1082 964 1112 q 889 1038 920 1052 q 818 1023 857 1023 q 756 1036 781 1023 q 711 1064 731 1049 q 674 1093 692 1080 q 635 1105 656 1105 q 603 1095 614 1105 q 585 1071 591 1085 q 576 1044 578 1057 q 574 1023 574 1030 l 454 1023 q 466 1127 454 1081 q 500 1204 477 1173 q 554 1253 522 1236 q 625 1270 585 1270 q 680 1257 656 1270 q 724 1229 703 1244 q 763 1201 744 1214 q 807 1189 783 1189 q 839 1199 827 1189 q 857 1222 851 1209 q 865 1249 863 1236 q 868 1270 867 1263 l 987 1270 l 987 1270 z "},"Ö":{"ha":1435,"x_min":83,"x_max":1352,"o":"m 1352 465 q 1308 253 1352 345 q 1181 100 1263 161 q 982 6 1099 38 q 720 -25 865 -25 q 456 6 574 -25 q 256 100 338 38 q 128 253 173 161 q 83 465 83 345 q 128 677 83 585 q 256 831 173 769 q 456 924 338 892 q 720 956 574 956 q 982 924 865 956 q 1181 831 1099 892 q 1308 677 1263 769 q 1352 465 1352 585 m 1097 465 q 1081 569 1097 517 q 1022 663 1064 621 q 906 730 979 704 q 720 755 833 755 q 586 744 644 755 q 486 711 528 732 q 416 662 444 690 q 370 601 387 633 q 346 534 353 569 q 339 465 339 499 q 346 395 339 431 q 370 328 353 360 q 416 268 387 296 q 486 219 444 240 q 586 187 528 199 q 720 175 644 175 q 906 201 833 175 q 1022 268 979 227 q 1081 361 1064 309 q 1097 465 1097 413 m 457 1031 l 457 1242 l 668 1242 l 668 1031 l 457 1031 m 770 1031 l 770 1242 l 982 1242 l 982 1031 l 770 1031 z "},"ö":{"ha":1435,"x_min":83,"x_max":1352,"o":"m 1352 465 q 1308 253 1352 345 q 1181 100 1263 161 q 982 6 1099 38 q 720 -25 865 -25 q 456 6 574 -25 q 256 100 338 38 q 128 253 173 161 q 83 465 83 345 q 128 677 83 585 q 256 831 173 769 q 456 924 338 892 q 720 956 574 956 q 982 924 865 956 q 1181 831 1099 892 q 1308 677 1263 769 q 1352 465 1352 585 m 1097 465 q 1081 569 1097 517 q 1022 663 1064 621 q 906 730 979 704 q 720 755 833 755 q 586 744 644 755 q 486 711 528 732 q 416 662 444 690 q 370 601 387 633 q 346 534 353 569 q 339 465 339 499 q 346 395 339 431 q 370 328 353 360 q 416 268 387 296 q 486 219 444 240 q 586 187 528 199 q 720 175 644 175 q 906 201 833 175 q 1022 268 979 227 q 1081 361 1064 309 q 1097 465 1097 413 m 457 1031 l 457 1242 l 668 1242 l 668 1031 l 457 1031 m 770 1031 l 770 1242 l 982 1242 l 982 1031 l 770 1031 z "},"Ō":{"ha":1435,"x_min":83,"x_max":1352,"o":"m 1352 465 q 1308 253 1352 345 q 1181 100 1263 161 q 982 6 1099 38 q 720 -25 865 -25 q 456 6 574 -25 q 256 100 338 38 q 128 253 173 161 q 83 465 83 345 q 128 677 83 585 q 256 831 173 769 q 456 924 338 892 q 720 956 574 956 q 982 924 865 956 q 1181 831 1099 892 q 1308 677 1263 769 q 1352 465 1352 585 m 1097 465 q 1081 569 1097 517 q 1022 663 1064 621 q 906 730 979 704 q 720 755 833 755 q 586 744 644 755 q 486 711 528 732 q 416 662 444 690 q 370 601 387 633 q 346 534 353 569 q 339 465 339 499 q 346 395 339 431 q 370 328 353 360 q 416 268 387 296 q 486 219 444 240 q 586 187 528 199 q 720 175 644 175 q 906 201 833 175 q 1022 268 979 227 q 1081 361 1064 309 q 1097 465 1097 413 m 492 1046 l 492 1219 l 947 1219 l 947 1046 l 492 1046 z "},"ō":{"ha":1435,"x_min":83,"x_max":1352,"o":"m 1352 465 q 1308 253 1352 345 q 1181 100 1263 161 q 982 6 1099 38 q 720 -25 865 -25 q 456 6 574 -25 q 256 100 338 38 q 128 253 173 161 q 83 465 83 345 q 128 677 83 585 q 256 831 173 769 q 456 924 338 892 q 720 956 574 956 q 982 924 865 956 q 1181 831 1099 892 q 1308 677 1263 769 q 1352 465 1352 585 m 1097 465 q 1081 569 1097 517 q 1022 663 1064 621 q 906 730 979 704 q 720 755 833 755 q 586 744 644 755 q 486 711 528 732 q 416 662 444 690 q 370 601 387 633 q 346 534 353 569 q 339 465 339 499 q 346 395 339 431 q 370 328 353 360 q 416 268 387 296 q 486 219 444 240 q 586 187 528 199 q 720 175 644 175 q 906 201 833 175 q 1022 268 979 227 q 1081 361 1064 309 q 1097 465 1097 413 m 492 1046 l 492 1219 l 947 1219 l 947 1046 l 492 1046 z "},"Ŏ":{"ha":1435,"x_min":83,"x_max":1352,"o":"m 1352 465 q 1308 253 1352 345 q 1181 100 1263 161 q 982 6 1099 38 q 720 -25 865 -25 q 456 6 574 -25 q 256 100 338 38 q 128 253 173 161 q 83 465 83 345 q 128 677 83 585 q 256 831 173 769 q 456 924 338 892 q 720 956 574 956 q 982 924 865 956 q 1181 831 1099 892 q 1308 677 1263 769 q 1352 465 1352 585 m 1097 465 q 1081 569 1097 517 q 1022 663 1064 621 q 906 730 979 704 q 720 755 833 755 q 586 744 644 755 q 486 711 528 732 q 416 662 444 690 q 370 601 387 633 q 346 534 353 569 q 339 465 339 499 q 346 395 339 431 q 370 328 353 360 q 416 268 387 296 q 486 219 444 240 q 586 187 528 199 q 720 175 644 175 q 906 201 833 175 q 1022 268 979 227 q 1081 361 1064 309 q 1097 465 1097 413 m 996 1298 q 990 1255 995 1281 q 974 1198 985 1228 q 943 1137 962 1168 q 893 1082 924 1107 q 820 1042 863 1057 q 720 1026 777 1026 q 618 1042 661 1026 q 546 1082 576 1057 q 496 1137 515 1107 q 465 1198 476 1168 q 449 1255 454 1228 q 443 1298 444 1281 l 571 1298 q 584 1269 575 1286 q 609 1236 592 1252 q 652 1210 625 1221 q 720 1198 679 1198 q 786 1210 760 1198 q 830 1236 813 1221 q 856 1269 847 1252 q 869 1298 865 1286 l 996 1298 l 996 1298 z "},"ŏ":{"ha":1435,"x_min":83,"x_max":1352,"o":"m 1352 465 q 1308 253 1352 345 q 1181 100 1263 161 q 982 6 1099 38 q 720 -25 865 -25 q 456 6 574 -25 q 256 100 338 38 q 128 253 173 161 q 83 465 83 345 q 128 677 83 585 q 256 831 173 769 q 456 924 338 892 q 720 956 574 956 q 982 924 865 956 q 1181 831 1099 892 q 1308 677 1263 769 q 1352 465 1352 585 m 1097 465 q 1081 569 1097 517 q 1022 663 1064 621 q 906 730 979 704 q 720 755 833 755 q 586 744 644 755 q 486 711 528 732 q 416 662 444 690 q 370 601 387 633 q 346 534 353 569 q 339 465 339 499 q 346 395 339 431 q 370 328 353 360 q 416 268 387 296 q 486 219 444 240 q 586 187 528 199 q 720 175 644 175 q 906 201 833 175 q 1022 268 979 227 q 1081 361 1064 309 q 1097 465 1097 413 m 996 1298 q 990 1255 995 1281 q 974 1198 985 1228 q 943 1137 962 1168 q 893 1082 924 1107 q 820 1042 863 1057 q 720 1026 777 1026 q 618 1042 661 1026 q 546 1082 576 1057 q 496 1137 515 1107 q 465 1198 476 1168 q 449 1255 454 1228 q 443 1298 444 1281 l 571 1298 q 584 1269 575 1286 q 609 1236 592 1252 q 652 1210 625 1221 q 720 1198 679 1198 q 786 1210 760 1198 q 830 1236 813 1221 q 856 1269 847 1252 q 869 1298 865 1286 l 996 1298 l 996 1298 z "},"Ő":{"ha":1435,"x_min":83,"x_max":1352,"o":"m 1352 465 q 1308 253 1352 345 q 1181 100 1263 161 q 982 6 1099 38 q 720 -25 865 -25 q 456 6 574 -25 q 256 100 338 38 q 128 253 173 161 q 83 465 83 345 q 128 677 83 585 q 256 831 173 769 q 456 924 338 892 q 720 956 574 956 q 982 924 865 956 q 1181 831 1099 892 q 1308 677 1263 769 q 1352 465 1352 585 m 1097 465 q 1081 569 1097 517 q 1022 663 1064 621 q 906 730 979 704 q 720 755 833 755 q 586 744 644 755 q 486 711 528 732 q 416 662 444 690 q 370 601 387 633 q 346 534 353 569 q 339 465 339 499 q 346 395 339 431 q 370 328 353 360 q 416 268 387 296 q 486 219 444 240 q 586 187 528 199 q 720 175 644 175 q 906 201 833 175 q 1022 268 979 227 q 1081 361 1064 309 q 1097 465 1097 413 m 793 1144 l 536 1018 l 485 1094 l 703 1289 l 793 1144 m 1084 1144 l 827 1018 l 779 1094 l 994 1289 l 1084 1144 z "},"ő":{"ha":1435,"x_min":83,"x_max":1352,"o":"m 1352 465 q 1308 253 1352 345 q 1181 100 1263 161 q 982 6 1099 38 q 720 -25 865 -25 q 456 6 574 -25 q 256 100 338 38 q 128 253 173 161 q 83 465 83 345 q 128 677 83 585 q 256 831 173 769 q 456 924 338 892 q 720 956 574 956 q 982 924 865 956 q 1181 831 1099 892 q 1308 677 1263 769 q 1352 465 1352 585 m 1097 465 q 1081 569 1097 517 q 1022 663 1064 621 q 906 730 979 704 q 720 755 833 755 q 586 744 644 755 q 486 711 528 732 q 416 662 444 690 q 370 601 387 633 q 346 534 353 569 q 339 465 339 499 q 346 395 339 431 q 370 328 353 360 q 416 268 387 296 q 486 219 444 240 q 586 187 528 199 q 720 175 644 175 q 906 201 833 175 q 1022 268 979 227 q 1081 361 1064 309 q 1097 465 1097 413 m 793 1144 l 536 1018 l 485 1094 l 703 1289 l 793 1144 m 1084 1144 l 827 1018 l 779 1094 l 994 1289 l 1084 1144 z "},"Ø":{"ha":1435,"x_min":83,"x_max":1352,"o":"m 1352 465 q 1308 253 1352 345 q 1181 100 1263 161 q 982 6 1099 38 q 720 -25 865 -25 q 575 -17 643 -25 q 446 8 507 -8 l 339 -123 l 140 -123 l 298 71 q 139 231 195 132 q 83 465 83 329 q 128 677 83 585 q 256 831 173 769 q 456 924 338 892 q 720 956 574 956 q 989 922 871 956 l 1096 1054 l 1293 1054 l 1136 860 q 1296 700 1240 799 q 1352 465 1352 602 m 1097 465 q 1092 525 1097 495 q 1075 583 1087 555 q 1043 637 1063 612 q 994 685 1023 663 l 590 186 q 651 178 618 180 q 720 175 683 175 q 906 201 833 175 q 1022 268 979 227 q 1081 361 1064 309 q 1097 465 1097 413 m 339 465 q 344 406 339 435 q 361 347 349 376 q 392 293 373 319 q 440 245 412 267 l 844 745 q 786 753 817 750 q 720 755 755 755 q 586 744 644 755 q 486 711 528 732 q 416 662 444 690 q 370 601 387 633 q 346 534 353 569 q 339 465 339 499 z "},"ø":{"ha":1435,"x_min":83,"x_max":1352,"o":"m 1352 465 q 1308 253 1352 345 q 1181 100 1263 161 q 982 6 1099 38 q 720 -25 865 -25 q 575 -17 643 -25 q 446 8 507 -8 l 339 -123 l 140 -123 l 298 71 q 139 231 195 132 q 83 465 83 329 q 128 677 83 585 q 256 831 173 769 q 456 924 338 892 q 720 956 574 956 q 989 922 871 956 l 1096 1054 l 1293 1054 l 1136 860 q 1296 700 1240 799 q 1352 465 1352 602 m 1097 465 q 1092 525 1097 495 q 1075 583 1087 555 q 1043 637 1063 612 q 994 685 1023 663 l 590 186 q 651 178 618 180 q 720 175 683 175 q 906 201 833 175 q 1022 268 979 227 q 1081 361 1064 309 q 1097 465 1097 413 m 339 465 q 344 406 339 435 q 361 347 349 376 q 392 293 373 319 q 440 245 412 267 l 844 745 q 786 753 817 750 q 720 755 755 755 q 586 744 644 755 q 486 711 528 732 q 416 662 444 690 q 370 601 387 633 q 346 534 353 569 q 339 465 339 499 z "},"Ǿ":{"ha":1435,"x_min":83,"x_max":1352,"o":"m 1352 465 q 1308 253 1352 345 q 1181 100 1263 161 q 982 6 1099 38 q 720 -25 865 -25 q 575 -17 643 -25 q 446 8 507 -8 l 339 -123 l 140 -123 l 298 71 q 139 231 195 132 q 83 465 83 329 q 128 677 83 585 q 256 831 173 769 q 456 924 338 892 q 720 956 574 956 q 989 922 871 956 l 1096 1054 l 1293 1054 l 1136 860 q 1296 700 1240 799 q 1352 465 1352 602 m 1097 465 q 1092 525 1097 495 q 1075 583 1087 555 q 1043 637 1063 612 q 994 685 1023 663 l 590 186 q 651 178 618 180 q 720 175 683 175 q 906 201 833 175 q 1022 268 979 227 q 1081 361 1064 309 q 1097 465 1097 413 m 339 465 q 344 406 339 435 q 361 347 349 376 q 392 293 373 319 q 440 245 412 267 l 844 745 q 786 753 817 750 q 720 755 755 755 q 586 744 644 755 q 486 711 528 732 q 416 662 444 690 q 370 601 387 633 q 346 534 353 569 q 339 465 339 499 m 958 1144 l 604 1018 l 543 1133 l 869 1323 l 958 1144 z "},"ǿ":{"ha":1435,"x_min":83,"x_max":1352,"o":"m 1352 465 q 1308 253 1352 345 q 1181 100 1263 161 q 982 6 1099 38 q 720 -25 865 -25 q 575 -17 643 -25 q 446 8 507 -8 l 339 -123 l 140 -123 l 298 71 q 139 231 195 132 q 83 465 83 329 q 128 677 83 585 q 256 831 173 769 q 456 924 338 892 q 720 956 574 956 q 989 922 871 956 l 1096 1054 l 1293 1054 l 1136 860 q 1296 700 1240 799 q 1352 465 1352 602 m 1097 465 q 1092 525 1097 495 q 1075 583 1087 555 q 1043 637 1063 612 q 994 685 1023 663 l 590 186 q 651 178 618 180 q 720 175 683 175 q 906 201 833 175 q 1022 268 979 227 q 1081 361 1064 309 q 1097 465 1097 413 m 339 465 q 344 406 339 435 q 361 347 349 376 q 392 293 373 319 q 440 245 412 267 l 844 745 q 786 753 817 750 q 720 755 755 755 q 586 744 644 755 q 486 711 528 732 q 416 662 444 690 q 370 601 387 633 q 346 534 353 569 q 339 465 339 499 m 958 1144 l 604 1018 l 543 1133 l 869 1323 l 958 1144 z "},"Œ":{"ha":2066,"x_min":83,"x_max":1969,"o":"m 1015 0 q 944 -8 979 -3 q 873 -16 909 -12 q 799 -22 837 -20 q 718 -25 760 -25 q 555 -13 635 -25 q 405 26 475 0 q 275 92 334 52 q 174 186 216 132 q 107 310 131 241 q 83 465 83 380 q 109 620 83 550 q 177 744 134 689 q 281 838 221 798 q 412 904 342 878 q 561 943 483 930 q 718 956 639 956 q 799 953 760 956 q 873 947 837 951 q 944 940 909 944 q 1015 932 979 936 l 1960 932 l 1960 733 l 1275 733 l 1275 579 l 1925 579 l 1925 380 l 1275 380 l 1275 199 l 1969 199 l 1969 0 l 1015 0 m 718 175 q 878 186 803 175 q 1015 211 954 197 l 1015 720 q 878 745 954 734 q 718 755 803 755 q 578 739 646 755 q 456 687 509 722 q 370 597 403 652 q 338 465 338 543 q 368 332 338 387 q 451 242 399 277 q 572 191 503 207 q 718 175 641 175 z "},"œ":{"ha":2359,"x_min":83,"x_max":2275,"o":"m 2199 46 q 1970 -8 2084 8 q 1736 -25 1856 -25 q 1430 18 1558 -25 q 1223 146 1302 62 q 1019 18 1145 61 q 720 -25 892 -25 q 456 6 574 -25 q 256 100 338 38 q 128 253 173 161 q 83 465 83 345 q 128 677 83 585 q 256 831 173 769 q 456 924 338 892 q 720 956 574 956 q 1025 910 896 956 q 1232 777 1154 865 q 1319 851 1270 818 q 1428 907 1369 884 q 1556 943 1487 930 q 1703 956 1626 956 q 1935 921 1830 956 q 2116 820 2041 887 q 2234 654 2192 753 q 2275 428 2275 556 l 2275 366 l 1357 366 q 1397 285 1369 321 q 1474 222 1426 248 q 1592 182 1522 197 q 1760 168 1662 168 q 1895 177 1829 168 q 2020 199 1962 185 q 2124 230 2077 213 q 2199 264 2170 247 l 2199 46 m 1097 465 q 1081 569 1097 517 q 1022 663 1064 621 q 906 730 979 704 q 720 755 833 755 q 586 744 644 755 q 486 711 528 732 q 416 662 444 690 q 370 601 387 633 q 346 534 353 569 q 339 465 339 499 q 346 395 339 431 q 370 328 353 360 q 416 268 387 296 q 486 219 444 240 q 586 187 528 199 q 720 175 644 175 q 906 201 833 175 q 1022 268 979 227 q 1081 361 1064 309 q 1097 465 1097 413 m 2025 550 q 2004 622 2022 585 q 1950 688 1987 659 q 1852 738 1912 718 q 1702 757 1792 757 q 1555 736 1617 757 q 1452 684 1493 715 q 1387 616 1410 652 q 1357 550 1364 581 l 2025 550 z "},"Þ":{"ha":1276,"x_min":146,"x_max":1193,"o":"m 1193 481 q 1173 352 1193 411 q 1107 251 1152 294 q 990 185 1062 209 q 815 161 918 161 l 397 161 l 397 0 l 146 0 l 146 930 l 397 930 l 397 799 l 815 799 q 990 775 918 799 q 1107 709 1062 751 q 1173 609 1152 667 q 1193 481 1193 551 m 939 476 q 929 532 939 509 q 899 571 920 556 q 844 593 878 586 q 761 600 810 600 l 397 600 l 397 359 l 761 359 q 844 365 810 359 q 899 385 878 371 q 929 421 920 399 q 939 476 939 444 z "},"þ":{"ha":1276,"x_min":146,"x_max":1193,"o":"m 1193 481 q 1173 352 1193 411 q 1107 251 1152 294 q 990 185 1062 209 q 815 161 918 161 l 397 161 l 397 0 l 146 0 l 146 930 l 397 930 l 397 799 l 815 799 q 990 775 918 799 q 1107 709 1062 751 q 1173 609 1152 667 q 1193 481 1193 551 m 939 476 q 929 532 939 509 q 899 571 920 556 q 844 593 878 586 q 761 600 810 600 l 397 600 l 397 359 l 761 359 q 844 365 810 359 q 899 385 878 371 q 929 421 920 399 q 939 476 939 444 z "},"Ŕ":{"ha":1283,"x_min":146,"x_max":1249,"o":"m 397 0 l 146 0 l 146 932 l 777 932 q 949 911 878 932 q 1064 851 1020 890 q 1129 758 1109 812 q 1149 636 1149 703 q 1132 533 1149 577 q 1087 457 1116 489 q 1022 404 1059 426 q 943 368 985 382 l 1249 0 l 954 0 l 672 343 l 397 343 l 397 0 m 895 637 q 887 684 895 665 q 863 714 880 703 q 815 732 845 726 q 742 737 786 737 l 397 737 l 397 538 l 742 538 q 815 543 786 538 q 863 561 845 549 q 887 591 880 572 q 895 637 895 610 m 872 1144 l 518 1018 l 457 1133 l 783 1323 l 872 1144 z "},"ŕ":{"ha":1017,"x_min":146,"x_max":1003,"o":"m 1003 721 q 974 730 993 724 q 928 742 954 736 q 872 751 903 747 q 808 755 841 755 q 682 739 741 755 q 572 695 623 722 q 478 632 522 667 q 397 561 434 597 l 397 0 l 146 0 l 146 932 l 397 932 l 397 781 q 491 846 443 814 q 590 902 538 878 q 700 941 642 926 q 822 956 758 956 q 872 953 846 956 q 921 947 897 951 q 966 940 945 944 q 1003 932 987 936 l 1003 721 l 1003 721 m 886 1144 l 532 1018 l 471 1133 l 798 1323 l 886 1144 z "},"Ŗ":{"ha":1283,"x_min":146,"x_max":1249,"o":"m 397 0 l 146 0 l 146 932 l 777 932 q 949 911 878 932 q 1064 851 1020 890 q 1129 758 1109 812 q 1149 636 1149 703 q 1132 533 1149 577 q 1087 457 1116 489 q 1022 404 1059 426 q 943 368 985 382 l 1249 0 l 954 0 l 672 343 l 397 343 l 397 0 m 895 637 q 887 684 895 665 q 863 714 880 703 q 815 732 845 726 q 742 737 786 737 l 397 737 l 397 538 l 742 538 q 815 543 786 538 q 863 561 845 549 q 887 591 880 572 q 895 637 895 610 m 693 -342 l 528 -342 l 562 -83 l 783 -83 l 693 -342 z "},"ŗ":{"ha":1017,"x_min":125,"x_max":1003,"o":"m 1003 721 q 974 730 993 724 q 928 742 954 736 q 872 751 903 747 q 808 755 841 755 q 682 739 741 755 q 572 695 623 722 q 478 632 522 667 q 397 561 434 597 l 397 0 l 146 0 l 146 932 l 397 932 l 397 781 q 491 846 443 814 q 590 902 538 878 q 700 941 642 926 q 822 956 758 956 q 872 953 846 956 q 921 947 897 951 q 966 940 945 944 q 1003 932 987 936 l 1003 721 l 1003 721 m 291 -342 l 125 -342 l 159 -83 l 381 -83 l 291 -342 z "},"Ř":{"ha":1283,"x_min":146,"x_max":1249,"o":"m 397 0 l 146 0 l 146 932 l 777 932 q 949 911 878 932 q 1064 851 1020 890 q 1129 758 1109 812 q 1149 636 1149 703 q 1132 533 1149 577 q 1087 457 1116 489 q 1022 404 1059 426 q 943 368 985 382 l 1249 0 l 954 0 l 672 343 l 397 343 l 397 0 m 895 637 q 887 684 895 665 q 863 714 880 703 q 815 732 845 726 q 742 737 786 737 l 397 737 l 397 538 l 742 538 q 815 543 786 538 q 863 561 845 549 q 887 591 880 572 q 895 637 895 610 m 364 1326 l 600 1204 l 836 1326 l 918 1198 l 600 1018 l 282 1198 l 364 1326 z "},"ř":{"ha":1017,"x_min":146,"x_max":1003,"o":"m 1003 721 q 974 730 993 724 q 928 742 954 736 q 872 751 903 747 q 808 755 841 755 q 682 739 741 755 q 572 695 623 722 q 478 632 522 667 q 397 561 434 597 l 397 0 l 146 0 l 146 932 l 397 932 l 397 781 q 491 846 443 814 q 590 902 538 878 q 700 941 642 926 q 822 956 758 956 q 872 953 846 956 q 921 947 897 951 q 966 940 945 944 q 1003 932 987 936 l 1003 721 l 1003 721 m 378 1326 l 614 1204 l 850 1326 l 932 1198 l 614 1018 l 296 1198 l 378 1326 z "},"Ś":{"ha":1174,"x_min":96,"x_max":1082,"o":"m 1004 669 q 935 699 978 682 q 836 729 891 715 q 717 754 781 744 q 585 764 652 764 q 492 760 530 764 q 428 751 454 757 q 386 739 401 746 q 363 724 371 732 q 352 709 355 717 q 350 696 350 702 q 370 660 350 675 q 426 633 391 645 q 508 611 461 621 q 607 589 555 600 q 716 565 660 578 q 824 534 772 551 q 924 493 877 516 q 1006 438 970 469 q 1061 366 1041 407 q 1082 273 1082 326 q 1058 158 1082 206 q 995 77 1034 110 q 903 23 955 43 q 793 -7 850 3 q 677 -22 736 -18 q 566 -25 618 -25 q 310 -2 427 -25 q 102 54 192 20 l 102 277 q 314 196 195 225 q 568 167 433 167 q 699 175 648 167 q 778 197 749 184 q 817 226 806 210 q 827 256 827 241 q 806 295 827 278 q 751 324 786 311 q 669 347 715 336 q 569 368 622 357 q 461 391 517 378 q 353 419 406 403 q 254 458 300 436 q 172 510 207 480 q 116 580 136 541 q 96 672 96 620 q 117 779 96 734 q 176 855 139 823 q 261 906 213 886 q 363 937 310 926 q 472 951 417 947 q 576 956 527 956 q 688 950 631 956 q 801 935 745 945 q 908 912 857 925 q 1004 885 960 899 l 1004 669 m 848 1144 l 494 1018 l 433 1133 l 760 1323 l 848 1144 z "},"ś":{"ha":1174,"x_min":96,"x_max":1082,"o":"m 1004 669 q 935 699 978 682 q 836 729 891 715 q 717 754 781 744 q 585 764 652 764 q 492 760 530 764 q 428 751 454 757 q 386 739 401 746 q 363 724 371 732 q 352 709 355 717 q 350 696 350 702 q 370 660 350 675 q 426 633 391 645 q 508 611 461 621 q 607 589 555 600 q 716 565 660 578 q 824 534 772 551 q 924 493 877 516 q 1006 438 970 469 q 1061 366 1041 407 q 1082 273 1082 326 q 1058 158 1082 206 q 995 77 1034 110 q 903 23 955 43 q 793 -7 850 3 q 677 -22 736 -18 q 566 -25 618 -25 q 310 -2 427 -25 q 102 54 192 20 l 102 277 q 314 196 195 225 q 568 167 433 167 q 699 175 648 167 q 778 197 749 184 q 817 226 806 210 q 827 256 827 241 q 806 295 827 278 q 751 324 786 311 q 669 347 715 336 q 569 368 622 357 q 461 391 517 378 q 353 419 406 403 q 254 458 300 436 q 172 510 207 480 q 116 580 136 541 q 96 672 96 620 q 117 779 96 734 q 176 855 139 823 q 261 906 213 886 q 363 937 310 926 q 472 951 417 947 q 576 956 527 956 q 688 950 631 956 q 801 935 745 945 q 908 912 857 925 q 1004 885 960 899 l 1004 669 m 848 1144 l 494 1018 l 433 1133 l 760 1323 l 848 1144 z "},"Ŝ":{"ha":1174,"x_min":96,"x_max":1082,"o":"m 1004 669 q 935 699 978 682 q 836 729 891 715 q 717 754 781 744 q 585 764 652 764 q 492 760 530 764 q 428 751 454 757 q 386 739 401 746 q 363 724 371 732 q 352 709 355 717 q 350 696 350 702 q 370 660 350 675 q 426 633 391 645 q 508 611 461 621 q 607 589 555 600 q 716 565 660 578 q 824 534 772 551 q 924 493 877 516 q 1006 438 970 469 q 1061 366 1041 407 q 1082 273 1082 326 q 1058 158 1082 206 q 995 77 1034 110 q 903 23 955 43 q 793 -7 850 3 q 677 -22 736 -18 q 566 -25 618 -25 q 310 -2 427 -25 q 102 54 192 20 l 102 277 q 314 196 195 225 q 568 167 433 167 q 699 175 648 167 q 778 197 749 184 q 817 226 806 210 q 827 256 827 241 q 806 295 827 278 q 751 324 786 311 q 669 347 715 336 q 569 368 622 357 q 461 391 517 378 q 353 419 406 403 q 254 458 300 436 q 172 510 207 480 q 116 580 136 541 q 96 672 96 620 q 117 779 96 734 q 176 855 139 823 q 261 906 213 886 q 363 937 310 926 q 472 951 417 947 q 576 956 527 956 q 688 950 631 956 q 801 935 745 945 q 908 912 857 925 q 1004 885 960 899 l 1004 669 m 812 1018 l 576 1140 l 340 1018 l 258 1145 l 576 1326 l 895 1145 l 812 1018 z "},"ŝ":{"ha":1174,"x_min":96,"x_max":1082,"o":"m 1004 669 q 935 699 978 682 q 836 729 891 715 q 717 754 781 744 q 585 764 652 764 q 492 760 530 764 q 428 751 454 757 q 386 739 401 746 q 363 724 371 732 q 352 709 355 717 q 350 696 350 702 q 370 660 350 675 q 426 633 391 645 q 508 611 461 621 q 607 589 555 600 q 716 565 660 578 q 824 534 772 551 q 924 493 877 516 q 1006 438 970 469 q 1061 366 1041 407 q 1082 273 1082 326 q 1058 158 1082 206 q 995 77 1034 110 q 903 23 955 43 q 793 -7 850 3 q 677 -22 736 -18 q 566 -25 618 -25 q 310 -2 427 -25 q 102 54 192 20 l 102 277 q 314 196 195 225 q 568 167 433 167 q 699 175 648 167 q 778 197 749 184 q 817 226 806 210 q 827 256 827 241 q 806 295 827 278 q 751 324 786 311 q 669 347 715 336 q 569 368 622 357 q 461 391 517 378 q 353 419 406 403 q 254 458 300 436 q 172 510 207 480 q 116 580 136 541 q 96 672 96 620 q 117 779 96 734 q 176 855 139 823 q 261 906 213 886 q 363 937 310 926 q 472 951 417 947 q 576 956 527 956 q 688 950 631 956 q 801 935 745 945 q 908 912 857 925 q 1004 885 960 899 l 1004 669 m 812 1018 l 576 1140 l 340 1018 l 258 1145 l 576 1326 l 895 1145 l 812 1018 z "},"Ş":{"ha":1174,"x_min":96,"x_max":1082,"o":"m 1004 669 q 935 699 978 682 q 836 729 891 715 q 717 754 781 744 q 585 764 652 764 q 492 760 530 764 q 428 751 454 757 q 386 739 401 746 q 363 724 371 732 q 352 709 355 717 q 350 696 350 702 q 370 660 350 675 q 426 633 391 645 q 508 611 461 621 q 607 589 555 600 q 716 565 660 578 q 824 534 772 551 q 924 493 877 516 q 1006 438 970 469 q 1061 366 1041 407 q 1082 273 1082 326 q 1058 158 1082 206 q 995 77 1034 110 q 903 23 955 43 q 793 -7 850 3 q 677 -22 736 -18 q 566 -25 618 -25 q 310 -2 427 -25 q 102 54 192 20 l 102 277 q 314 196 195 225 q 568 167 433 167 q 699 175 648 167 q 778 197 749 184 q 817 226 806 210 q 827 256 827 241 q 806 295 827 278 q 751 324 786 311 q 669 347 715 336 q 569 368 622 357 q 461 391 517 378 q 353 419 406 403 q 254 458 300 436 q 172 510 207 480 q 116 580 136 541 q 96 672 96 620 q 117 779 96 734 q 176 855 139 823 q 261 906 213 886 q 363 937 310 926 q 472 951 417 947 q 576 956 527 956 q 688 950 631 956 q 801 935 745 945 q 908 912 857 925 q 1004 885 960 899 l 1004 669 m 617 -53 q 680 -58 646 -53 q 740 -78 713 -63 q 786 -119 768 -93 q 804 -189 804 -146 q 783 -262 804 -233 q 727 -309 762 -291 q 650 -334 692 -327 q 564 -342 607 -342 q 496 -340 526 -342 q 443 -335 466 -338 q 401 -329 419 -332 q 368 -323 382 -326 l 368 -192 q 438 -215 399 -205 q 519 -225 477 -225 q 559 -223 541 -225 q 591 -216 578 -220 q 612 -203 604 -211 q 620 -186 620 -196 q 611 -166 620 -174 q 588 -155 602 -159 q 559 -150 574 -151 q 532 -149 545 -149 q 496 -151 515 -149 q 461 -157 477 -153 l 526 14 l 643 14 l 617 -53 z "},"ş":{"ha":1174,"x_min":96,"x_max":1082,"o":"m 1004 669 q 935 699 978 682 q 836 729 891 715 q 717 754 781 744 q 585 764 652 764 q 492 760 530 764 q 428 751 454 757 q 386 739 401 746 q 363 724 371 732 q 352 709 355 717 q 350 696 350 702 q 370 660 350 675 q 426 633 391 645 q 508 611 461 621 q 607 589 555 600 q 716 565 660 578 q 824 534 772 551 q 924 493 877 516 q 1006 438 970 469 q 1061 366 1041 407 q 1082 273 1082 326 q 1058 158 1082 206 q 995 77 1034 110 q 903 23 955 43 q 793 -7 850 3 q 677 -22 736 -18 q 566 -25 618 -25 q 310 -2 427 -25 q 102 54 192 20 l 102 277 q 314 196 195 225 q 568 167 433 167 q 699 175 648 167 q 778 197 749 184 q 817 226 806 210 q 827 256 827 241 q 806 295 827 278 q 751 324 786 311 q 669 347 715 336 q 569 368 622 357 q 461 391 517 378 q 353 419 406 403 q 254 458 300 436 q 172 510 207 480 q 116 580 136 541 q 96 672 96 620 q 117 779 96 734 q 176 855 139 823 q 261 906 213 886 q 363 937 310 926 q 472 951 417 947 q 576 956 527 956 q 688 950 631 956 q 801 935 745 945 q 908 912 857 925 q 1004 885 960 899 l 1004 669 m 617 -53 q 680 -58 646 -53 q 740 -78 713 -63 q 786 -119 768 -93 q 804 -189 804 -146 q 783 -262 804 -233 q 727 -309 762 -291 q 650 -334 692 -327 q 564 -342 607 -342 q 496 -340 526 -342 q 443 -335 466 -338 q 401 -329 419 -332 q 368 -323 382 -326 l 368 -192 q 438 -215 399 -205 q 519 -225 477 -225 q 559 -223 541 -225 q 591 -216 578 -220 q 612 -203 604 -211 q 620 -186 620 -196 q 611 -166 620 -174 q 588 -155 602 -159 q 559 -150 574 -151 q 532 -149 545 -149 q 496 -151 515 -149 q 461 -157 477 -153 l 526 14 l 643 14 l 617 -53 z "},"Š":{"ha":1174,"x_min":96,"x_max":1082,"o":"m 1004 669 q 935 699 978 682 q 836 729 891 715 q 717 754 781 744 q 585 764 652 764 q 492 760 530 764 q 428 751 454 757 q 386 739 401 746 q 363 724 371 732 q 352 709 355 717 q 350 696 350 702 q 370 660 350 675 q 426 633 391 645 q 508 611 461 621 q 607 589 555 600 q 716 565 660 578 q 824 534 772 551 q 924 493 877 516 q 1006 438 970 469 q 1061 366 1041 407 q 1082 273 1082 326 q 1058 158 1082 206 q 995 77 1034 110 q 903 23 955 43 q 793 -7 850 3 q 677 -22 736 -18 q 566 -25 618 -25 q 310 -2 427 -25 q 102 54 192 20 l 102 277 q 314 196 195 225 q 568 167 433 167 q 699 175 648 167 q 778 197 749 184 q 817 226 806 210 q 827 256 827 241 q 806 295 827 278 q 751 324 786 311 q 669 347 715 336 q 569 368 622 357 q 461 391 517 378 q 353 419 406 403 q 254 458 300 436 q 172 510 207 480 q 116 580 136 541 q 96 672 96 620 q 117 779 96 734 q 176 855 139 823 q 261 906 213 886 q 363 937 310 926 q 472 951 417 947 q 576 956 527 956 q 688 950 631 956 q 801 935 745 945 q 908 912 857 925 q 1004 885 960 899 l 1004 669 m 340 1326 l 576 1204 l 812 1326 l 895 1198 l 576 1018 l 258 1198 l 340 1326 z "},"š":{"ha":1174,"x_min":96,"x_max":1082,"o":"m 1004 669 q 935 699 978 682 q 836 729 891 715 q 717 754 781 744 q 585 764 652 764 q 492 760 530 764 q 428 751 454 757 q 386 739 401 746 q 363 724 371 732 q 352 709 355 717 q 350 696 350 702 q 370 660 350 675 q 426 633 391 645 q 508 611 461 621 q 607 589 555 600 q 716 565 660 578 q 824 534 772 551 q 924 493 877 516 q 1006 438 970 469 q 1061 366 1041 407 q 1082 273 1082 326 q 1058 158 1082 206 q 995 77 1034 110 q 903 23 955 43 q 793 -7 850 3 q 677 -22 736 -18 q 566 -25 618 -25 q 310 -2 427 -25 q 102 54 192 20 l 102 277 q 314 196 195 225 q 568 167 433 167 q 699 175 648 167 q 778 197 749 184 q 817 226 806 210 q 827 256 827 241 q 806 295 827 278 q 751 324 786 311 q 669 347 715 336 q 569 368 622 357 q 461 391 517 378 q 353 419 406 403 q 254 458 300 436 q 172 510 207 480 q 116 580 136 541 q 96 672 96 620 q 117 779 96 734 q 176 855 139 823 q 261 906 213 886 q 363 937 310 926 q 472 951 417 947 q 576 956 527 956 q 688 950 631 956 q 801 935 745 945 q 908 912 857 925 q 1004 885 960 899 l 1004 669 m 340 1326 l 576 1204 l 812 1326 l 895 1198 l 576 1018 l 258 1198 l 340 1326 z "},"Ţ":{"ha":1084,"x_min":21,"x_max":1064,"o":"m 668 729 l 668 0 l 416 0 l 416 729 l 21 729 l 21 932 l 1064 932 l 1064 729 l 668 729 m 565 -342 l 399 -342 l 433 -83 l 655 -83 l 565 -342 z "},"ţ":{"ha":1084,"x_min":21,"x_max":1064,"o":"m 668 729 l 668 0 l 416 0 l 416 729 l 21 729 l 21 932 l 1064 932 l 1064 729 l 668 729 m 565 -342 l 399 -342 l 433 -83 l 655 -83 l 565 -342 z "},"Ť":{"ha":1084,"x_min":21,"x_max":1064,"o":"m 668 729 l 668 0 l 416 0 l 416 729 l 21 729 l 21 932 l 1064 932 l 1064 729 l 668 729 m 306 1326 l 542 1204 l 778 1326 l 860 1198 l 542 1018 l 224 1198 l 306 1326 z "},"ť":{"ha":1084,"x_min":21,"x_max":1064,"o":"m 668 729 l 668 0 l 416 0 l 416 729 l 21 729 l 21 932 l 1064 932 l 1064 729 l 668 729 m 306 1326 l 542 1204 l 778 1326 l 860 1198 l 542 1018 l 224 1198 l 306 1326 z "},"Ŧ":{"ha":1084,"x_min":21,"x_max":1064,"o":"m 668 729 l 668 572 l 961 572 l 961 427 l 668 427 l 668 0 l 416 0 l 416 427 l 123 427 l 123 572 l 416 572 l 416 729 l 21 729 l 21 932 l 1064 932 l 1064 729 l 668 729 z "},"ŧ":{"ha":1084,"x_min":21,"x_max":1064,"o":"m 668 729 l 668 572 l 961 572 l 961 427 l 668 427 l 668 0 l 416 0 l 416 427 l 123 427 l 123 572 l 416 572 l 416 729 l 21 729 l 21 932 l 1064 932 l 1064 729 l 668 729 z "},"Ù":{"ha":1385,"x_min":139,"x_max":1246,"o":"m 1246 314 q 1211 182 1246 244 q 1107 75 1177 121 q 935 2 1038 28 q 693 -25 831 -25 q 451 2 555 -25 q 277 75 347 28 q 174 182 208 121 q 139 314 139 244 l 139 932 l 390 932 l 390 404 q 402 316 390 357 q 447 243 414 274 q 539 193 479 212 q 693 175 598 175 q 846 193 787 175 q 938 243 905 212 q 983 316 971 274 q 994 404 994 357 l 994 932 l 1246 932 l 1246 314 l 1246 314 m 513 1323 l 840 1133 l 779 1018 l 425 1144 l 513 1323 z "},"ù":{"ha":1426,"x_min":142,"x_max":1280,"o":"m 393 932 l 393 407 q 402 312 393 355 q 435 240 411 270 q 501 193 458 210 q 612 176 544 176 q 721 191 664 176 q 833 229 777 205 q 939 283 888 252 q 1029 347 989 314 l 1029 932 l 1280 932 l 1280 0 l 1029 0 l 1029 127 q 928 73 982 100 q 814 23 875 45 q 686 -13 754 1 q 543 -26 618 -26 q 374 -4 449 -26 q 248 61 300 19 q 169 162 197 102 q 142 294 142 221 l 142 932 l 393 932 m 533 1323 l 860 1133 l 799 1018 l 444 1144 l 533 1323 z "},"Ú":{"ha":1385,"x_min":139,"x_max":1246,"o":"m 1246 314 q 1211 182 1246 244 q 1107 75 1177 121 q 935 2 1038 28 q 693 -25 831 -25 q 451 2 555 -25 q 277 75 347 28 q 174 182 208 121 q 139 314 139 244 l 139 932 l 390 932 l 390 404 q 402 316 390 357 q 447 243 414 274 q 539 193 479 212 q 693 175 598 175 q 846 193 787 175 q 938 243 905 212 q 983 316 971 274 q 994 404 994 357 l 994 932 l 1246 932 l 1246 314 l 1246 314 m 965 1144 l 611 1018 l 550 1133 l 876 1323 l 965 1144 z "},"ú":{"ha":1426,"x_min":142,"x_max":1280,"o":"m 393 932 l 393 407 q 402 312 393 355 q 435 240 411 270 q 501 193 458 210 q 612 176 544 176 q 721 191 664 176 q 833 229 777 205 q 939 283 888 252 q 1029 347 989 314 l 1029 932 l 1280 932 l 1280 0 l 1029 0 l 1029 127 q 928 73 982 100 q 814 23 875 45 q 686 -13 754 1 q 543 -26 618 -26 q 374 -4 449 -26 q 248 61 300 19 q 169 162 197 102 q 142 294 142 221 l 142 932 l 393 932 m 985 1144 l 631 1018 l 570 1133 l 896 1323 l 985 1144 z "},"Û":{"ha":1385,"x_min":139,"x_max":1246,"o":"m 1246 314 q 1211 182 1246 244 q 1107 75 1177 121 q 935 2 1038 28 q 693 -25 831 -25 q 451 2 555 -25 q 277 75 347 28 q 174 182 208 121 q 139 314 139 244 l 139 932 l 390 932 l 390 404 q 402 316 390 357 q 447 243 414 274 q 539 193 479 212 q 693 175 598 175 q 846 193 787 175 q 938 243 905 212 q 983 316 971 274 q 994 404 994 357 l 994 932 l 1246 932 l 1246 314 l 1246 314 m 929 1018 l 693 1140 l 457 1018 l 375 1145 l 693 1326 l 1011 1145 l 929 1018 z "},"û":{"ha":1426,"x_min":142,"x_max":1280,"o":"m 393 932 l 393 407 q 402 312 393 355 q 435 240 411 270 q 501 193 458 210 q 612 176 544 176 q 721 191 664 176 q 833 229 777 205 q 939 283 888 252 q 1029 347 989 314 l 1029 932 l 1280 932 l 1280 0 l 1029 0 l 1029 127 q 928 73 982 100 q 814 23 875 45 q 686 -13 754 1 q 543 -26 618 -26 q 374 -4 449 -26 q 248 61 300 19 q 169 162 197 102 q 142 294 142 221 l 142 932 l 393 932 m 949 1018 l 713 1140 l 477 1018 l 395 1145 l 713 1326 l 1031 1145 l 949 1018 z "},"Ü":{"ha":1385,"x_min":139,"x_max":1246,"o":"m 1246 314 q 1211 182 1246 244 q 1107 75 1177 121 q 935 2 1038 28 q 693 -25 831 -25 q 451 2 555 -25 q 277 75 347 28 q 174 182 208 121 q 139 314 139 244 l 139 932 l 390 932 l 390 404 q 402 316 390 357 q 447 243 414 274 q 539 193 479 212 q 693 175 598 175 q 846 193 787 175 q 938 243 905 212 q 983 316 971 274 q 994 404 994 357 l 994 932 l 1246 932 l 1246 314 l 1246 314 m 431 1031 l 431 1242 l 642 1242 l 642 1031 l 431 1031 m 744 1031 l 744 1242 l 956 1242 l 956 1031 l 744 1031 z "},"ü":{"ha":1426,"x_min":142,"x_max":1280,"o":"m 393 932 l 393 407 q 402 312 393 355 q 435 240 411 270 q 501 193 458 210 q 612 176 544 176 q 721 191 664 176 q 833 229 777 205 q 939 283 888 252 q 1029 347 989 314 l 1029 932 l 1280 932 l 1280 0 l 1029 0 l 1029 127 q 928 73 982 100 q 814 23 875 45 q 686 -13 754 1 q 543 -26 618 -26 q 374 -4 449 -26 q 248 61 300 19 q 169 162 197 102 q 142 294 142 221 l 142 932 l 393 932 m 450 1031 l 450 1242 l 661 1242 l 661 1031 l 450 1031 m 764 1031 l 764 1242 l 975 1242 l 975 1031 l 764 1031 z "},"Ũ":{"ha":1385,"x_min":139,"x_max":1246,"o":"m 1246 314 q 1211 182 1246 244 q 1107 75 1177 121 q 935 2 1038 28 q 693 -25 831 -25 q 451 2 555 -25 q 277 75 347 28 q 174 182 208 121 q 139 314 139 244 l 139 932 l 390 932 l 390 404 q 402 316 390 357 q 447 243 414 274 q 539 193 479 212 q 693 175 598 175 q 846 193 787 175 q 938 243 905 212 q 983 316 971 274 q 994 404 994 357 l 994 932 l 1246 932 l 1246 314 l 1246 314 m 961 1270 q 949 1158 961 1205 q 916 1082 938 1112 q 862 1038 894 1052 q 791 1023 831 1023 q 730 1036 755 1023 q 685 1064 705 1049 q 648 1093 665 1080 q 608 1105 630 1105 q 576 1095 588 1105 q 558 1071 564 1085 q 550 1044 552 1057 q 547 1023 548 1030 l 427 1023 q 439 1127 427 1081 q 473 1204 451 1173 q 527 1253 496 1236 q 598 1270 559 1270 q 653 1257 630 1270 q 697 1229 677 1244 q 737 1201 718 1214 q 781 1189 756 1189 q 813 1199 801 1189 q 831 1222 825 1209 q 839 1249 837 1236 q 842 1270 841 1263 l 961 1270 l 961 1270 z "},"ũ":{"ha":1426,"x_min":142,"x_max":1280,"o":"m 393 932 l 393 407 q 402 312 393 355 q 435 240 411 270 q 501 193 458 210 q 612 176 544 176 q 721 191 664 176 q 833 229 777 205 q 939 283 888 252 q 1029 347 989 314 l 1029 932 l 1280 932 l 1280 0 l 1029 0 l 1029 127 q 928 73 982 100 q 814 23 875 45 q 686 -13 754 1 q 543 -26 618 -26 q 374 -4 449 -26 q 248 61 300 19 q 169 162 197 102 q 142 294 142 221 l 142 932 l 393 932 m 981 1270 q 969 1158 981 1205 q 936 1082 958 1112 q 882 1038 913 1052 q 811 1023 850 1023 q 749 1036 774 1023 q 705 1064 724 1049 q 667 1093 685 1080 q 628 1105 650 1105 q 596 1095 608 1105 q 578 1071 584 1085 q 570 1044 572 1057 q 567 1023 568 1030 l 447 1023 q 459 1127 447 1081 q 493 1204 471 1173 q 547 1253 515 1236 q 618 1270 578 1270 q 673 1257 650 1270 q 717 1229 696 1244 q 756 1201 737 1214 q 800 1189 776 1189 q 832 1199 821 1189 q 850 1222 844 1209 q 859 1249 857 1236 q 861 1270 861 1263 l 981 1270 l 981 1270 z "},"Ū":{"ha":1385,"x_min":139,"x_max":1246,"o":"m 1246 314 q 1211 182 1246 244 q 1107 75 1177 121 q 935 2 1038 28 q 693 -25 831 -25 q 451 2 555 -25 q 277 75 347 28 q 174 182 208 121 q 139 314 139 244 l 139 932 l 390 932 l 390 404 q 402 316 390 357 q 447 243 414 274 q 539 193 479 212 q 693 175 598 175 q 846 193 787 175 q 938 243 905 212 q 983 316 971 274 q 994 404 994 357 l 994 932 l 1246 932 l 1246 314 l 1246 314 m 465 1046 l 465 1219 l 921 1219 l 921 1046 l 465 1046 z "},"ū":{"ha":1426,"x_min":142,"x_max":1280,"o":"m 393 932 l 393 407 q 402 312 393 355 q 435 240 411 270 q 501 193 458 210 q 612 176 544 176 q 721 191 664 176 q 833 229 777 205 q 939 283 888 252 q 1029 347 989 314 l 1029 932 l 1280 932 l 1280 0 l 1029 0 l 1029 127 q 928 73 982 100 q 814 23 875 45 q 686 -13 754 1 q 543 -26 618 -26 q 374 -4 449 -26 q 248 61 300 19 q 169 162 197 102 q 142 294 142 221 l 142 932 l 393 932 m 485 1046 l 485 1219 l 941 1219 l 941 1046 l 485 1046 z "},"Ŭ":{"ha":1385,"x_min":139,"x_max":1246,"o":"m 1246 314 q 1211 182 1246 244 q 1107 75 1177 121 q 935 2 1038 28 q 693 -25 831 -25 q 451 2 555 -25 q 277 75 347 28 q 174 182 208 121 q 139 314 139 244 l 139 932 l 390 932 l 390 404 q 402 316 390 357 q 447 243 414 274 q 539 193 479 212 q 693 175 598 175 q 846 193 787 175 q 938 243 905 212 q 983 316 971 274 q 994 404 994 357 l 994 932 l 1246 932 l 1246 314 l 1246 314 m 969 1298 q 964 1255 968 1281 q 947 1198 959 1228 q 917 1137 936 1168 q 867 1082 897 1107 q 793 1042 836 1057 q 693 1026 751 1026 q 592 1042 635 1026 q 519 1082 549 1057 q 469 1137 489 1107 q 438 1198 450 1168 q 422 1255 427 1228 q 416 1298 417 1281 l 545 1298 q 557 1269 549 1286 q 582 1236 566 1252 q 626 1210 599 1221 q 693 1198 652 1198 q 760 1210 733 1198 q 804 1236 787 1221 q 830 1269 821 1252 q 843 1298 839 1286 l 969 1298 l 969 1298 z "},"ŭ":{"ha":1426,"x_min":142,"x_max":1280,"o":"m 393 932 l 393 407 q 402 312 393 355 q 435 240 411 270 q 501 193 458 210 q 612 176 544 176 q 721 191 664 176 q 833 229 777 205 q 939 283 888 252 q 1029 347 989 314 l 1029 932 l 1280 932 l 1280 0 l 1029 0 l 1029 127 q 928 73 982 100 q 814 23 875 45 q 686 -13 754 1 q 543 -26 618 -26 q 374 -4 449 -26 q 248 61 300 19 q 169 162 197 102 q 142 294 142 221 l 142 932 l 393 932 m 989 1298 q 983 1255 988 1281 q 967 1198 979 1228 q 936 1137 956 1168 q 886 1082 917 1107 q 813 1042 856 1057 q 713 1026 770 1026 q 612 1042 654 1026 q 539 1082 569 1057 q 489 1137 509 1107 q 458 1198 469 1168 q 442 1255 447 1228 q 436 1298 437 1281 l 564 1298 q 577 1269 568 1286 q 602 1236 585 1252 q 645 1210 618 1221 q 713 1198 672 1198 q 780 1210 753 1198 q 823 1236 806 1221 q 849 1269 840 1252 q 863 1298 859 1286 l 989 1298 l 989 1298 z "},"Ů":{"ha":1385,"x_min":139,"x_max":1246,"o":"m 1246 314 q 1211 182 1246 244 q 1107 75 1177 121 q 935 2 1038 28 q 693 -25 831 -25 q 451 2 555 -25 q 277 75 347 28 q 174 182 208 121 q 139 314 139 244 l 139 932 l 390 932 l 390 404 q 402 316 390 357 q 447 243 414 274 q 539 193 479 212 q 693 175 598 175 q 846 193 787 175 q 938 243 905 212 q 983 316 971 274 q 994 404 994 357 l 994 932 l 1246 932 l 1246 314 l 1246 314 m 488 1164 q 501 1226 488 1197 q 540 1278 514 1256 q 604 1313 566 1300 q 693 1326 642 1326 q 782 1313 743 1326 q 846 1278 820 1300 q 885 1226 872 1256 q 899 1164 899 1197 q 885 1101 899 1131 q 846 1049 872 1072 q 782 1014 820 1027 q 693 1001 743 1001 q 604 1014 642 1001 q 540 1049 566 1027 q 501 1101 514 1072 q 488 1164 488 1131 m 626 1164 q 643 1117 626 1136 q 693 1098 661 1098 q 742 1117 726 1098 q 758 1164 758 1136 q 742 1210 758 1191 q 693 1229 726 1229 q 643 1210 661 1229 q 626 1164 626 1191 z "},"ů":{"ha":1426,"x_min":142,"x_max":1280,"o":"m 393 932 l 393 407 q 402 312 393 355 q 435 240 411 270 q 501 193 458 210 q 612 176 544 176 q 721 191 664 176 q 833 229 777 205 q 939 283 888 252 q 1029 347 989 314 l 1029 932 l 1280 932 l 1280 0 l 1029 0 l 1029 127 q 928 73 982 100 q 814 23 875 45 q 686 -13 754 1 q 543 -26 618 -26 q 374 -4 449 -26 q 248 61 300 19 q 169 162 197 102 q 142 294 142 221 l 142 932 l 393 932 m 507 1164 q 520 1226 507 1197 q 559 1278 534 1256 q 624 1313 585 1300 q 713 1326 662 1326 q 801 1313 763 1326 q 866 1278 840 1300 q 905 1226 892 1256 q 918 1164 918 1197 q 905 1101 918 1131 q 866 1049 892 1072 q 801 1014 840 1027 q 713 1001 763 1001 q 624 1014 662 1001 q 559 1049 585 1027 q 520 1101 534 1072 q 507 1164 507 1131 m 646 1164 q 663 1117 646 1136 q 713 1098 680 1098 q 762 1117 745 1098 q 778 1164 778 1136 q 762 1210 778 1191 q 713 1229 745 1229 q 663 1210 680 1229 q 646 1164 646 1191 z "},"Ű":{"ha":1385,"x_min":139,"x_max":1246,"o":"m 1246 314 q 1211 182 1246 244 q 1107 75 1177 121 q 935 2 1038 28 q 693 -25 831 -25 q 451 2 555 -25 q 277 75 347 28 q 174 182 208 121 q 139 314 139 244 l 139 932 l 390 932 l 390 404 q 402 316 390 357 q 447 243 414 274 q 539 193 479 212 q 693 175 598 175 q 846 193 787 175 q 938 243 905 212 q 983 316 971 274 q 994 404 994 357 l 994 932 l 1246 932 l 1246 314 l 1246 314 m 766 1144 l 509 1018 l 458 1094 l 676 1289 l 766 1144 m 1058 1144 l 801 1018 l 753 1094 l 968 1289 l 1058 1144 z "},"ű":{"ha":1426,"x_min":142,"x_max":1280,"o":"m 393 932 l 393 407 q 402 312 393 355 q 435 240 411 270 q 501 193 458 210 q 612 176 544 176 q 721 191 664 176 q 833 229 777 205 q 939 283 888 252 q 1029 347 989 314 l 1029 932 l 1280 932 l 1280 0 l 1029 0 l 1029 127 q 928 73 982 100 q 814 23 875 45 q 686 -13 754 1 q 543 -26 618 -26 q 374 -4 449 -26 q 248 61 300 19 q 169 162 197 102 q 142 294 142 221 l 142 932 l 393 932 m 786 1144 l 529 1018 l 478 1094 l 696 1289 l 786 1144 m 1078 1144 l 821 1018 l 772 1094 l 987 1289 l 1078 1144 z "},"Ų":{"ha":1385,"x_min":139,"x_max":1246,"o":"m 1246 314 q 1214 187 1246 247 q 1118 82 1182 127 q 958 8 1054 37 q 734 -24 862 -20 q 694 -83 709 -52 q 679 -140 679 -113 q 699 -180 679 -169 q 761 -192 718 -192 q 803 -188 780 -192 q 849 -178 826 -184 q 892 -165 871 -172 q 926 -153 912 -159 l 926 -293 q 890 -303 912 -297 q 839 -315 868 -309 q 773 -324 809 -320 q 696 -328 737 -328 q 618 -320 655 -328 q 552 -296 581 -313 q 507 -252 524 -279 q 490 -184 490 -224 q 497 -146 490 -168 q 515 -104 503 -125 q 545 -61 527 -82 q 585 -21 562 -39 q 390 19 473 -11 q 250 94 306 49 q 167 195 195 138 q 139 314 139 252 l 139 932 l 390 932 l 390 404 q 402 316 390 357 q 447 243 414 274 q 539 193 479 212 q 693 175 598 175 q 846 193 787 175 q 938 243 905 212 q 983 316 971 274 q 994 404 994 357 l 994 932 l 1246 932 l 1246 314 l 1246 314 z "},"ų":{"ha":1426,"x_min":142,"x_max":1341,"o":"m 393 932 l 393 407 q 402 312 393 355 q 435 240 411 270 q 501 193 458 210 q 612 176 544 176 q 721 191 664 176 q 833 229 777 205 q 939 283 888 252 q 1029 347 989 314 l 1029 932 l 1280 932 l 1280 0 l 1177 0 q 1117 -70 1139 -33 q 1095 -140 1095 -106 q 1114 -180 1095 -169 q 1177 -192 1134 -192 q 1219 -188 1196 -192 q 1264 -178 1242 -184 q 1307 -165 1286 -172 q 1341 -153 1327 -159 l 1341 -293 q 1305 -303 1327 -297 q 1254 -315 1283 -309 q 1188 -324 1224 -320 q 1111 -328 1152 -328 q 1033 -320 1070 -328 q 968 -296 996 -313 q 922 -252 939 -279 q 905 -184 905 -224 q 914 -140 905 -164 q 939 -91 922 -115 q 978 -42 955 -66 q 1029 0 1001 -18 l 1029 127 q 928 73 982 100 q 814 23 875 45 q 686 -13 754 1 q 543 -26 618 -26 q 374 -4 449 -26 q 248 61 300 19 q 169 162 197 102 q 142 294 142 221 l 142 932 l 393 932 z "},"Ŵ":{"ha":1822,"x_min":14,"x_max":1808,"o":"m 1051 932 l 1289 285 l 1547 932 l 1808 932 l 1434 0 l 1154 0 l 911 627 l 668 0 l 389 0 l 14 932 l 275 932 l 528 298 l 771 932 l 1051 932 m 1146 1018 l 910 1140 l 674 1018 l 592 1145 l 910 1326 l 1228 1145 l 1146 1018 z "},"ŵ":{"ha":1822,"x_min":14,"x_max":1808,"o":"m 1051 932 l 1289 285 l 1547 932 l 1808 932 l 1434 0 l 1154 0 l 911 627 l 668 0 l 389 0 l 14 932 l 275 932 l 528 298 l 771 932 l 1051 932 m 1146 1018 l 910 1140 l 674 1018 l 592 1145 l 910 1326 l 1228 1145 l 1146 1018 z "},"Ẁ":{"ha":1822,"x_min":14,"x_max":1808,"o":"m 1051 932 l 1289 285 l 1547 932 l 1808 932 l 1434 0 l 1154 0 l 911 627 l 668 0 l 389 0 l 14 932 l 275 932 l 528 298 l 771 932 l 1051 932 m 730 1323 l 1057 1133 l 996 1018 l 642 1144 l 730 1323 z "},"ẁ":{"ha":1822,"x_min":14,"x_max":1808,"o":"m 1051 932 l 1289 285 l 1547 932 l 1808 932 l 1434 0 l 1154 0 l 911 627 l 668 0 l 389 0 l 14 932 l 275 932 l 528 298 l 771 932 l 1051 932 m 730 1323 l 1057 1133 l 996 1018 l 642 1144 l 730 1323 z "},"Ẃ":{"ha":1822,"x_min":14,"x_max":1808,"o":"m 1051 932 l 1289 285 l 1547 932 l 1808 932 l 1434 0 l 1154 0 l 911 627 l 668 0 l 389 0 l 14 932 l 275 932 l 528 298 l 771 932 l 1051 932 m 1182 1144 l 828 1018 l 767 1133 l 1093 1323 l 1182 1144 z "},"ẃ":{"ha":1822,"x_min":14,"x_max":1808,"o":"m 1051 932 l 1289 285 l 1547 932 l 1808 932 l 1434 0 l 1154 0 l 911 627 l 668 0 l 389 0 l 14 932 l 275 932 l 528 298 l 771 932 l 1051 932 m 1182 1144 l 828 1018 l 767 1133 l 1093 1323 l 1182 1144 z "},"Ẅ":{"ha":1822,"x_min":14,"x_max":1808,"o":"m 1051 932 l 1289 285 l 1547 932 l 1808 932 l 1434 0 l 1154 0 l 911 627 l 668 0 l 389 0 l 14 932 l 275 932 l 528 298 l 771 932 l 1051 932 m 648 1031 l 648 1242 l 859 1242 l 859 1031 l 648 1031 m 961 1031 l 961 1242 l 1173 1242 l 1173 1031 l 961 1031 z "},"ẅ":{"ha":1822,"x_min":14,"x_max":1808,"o":"m 1051 932 l 1289 285 l 1547 932 l 1808 932 l 1434 0 l 1154 0 l 911 627 l 668 0 l 389 0 l 14 932 l 275 932 l 528 298 l 771 932 l 1051 932 m 648 1031 l 648 1242 l 859 1242 l 859 1031 l 648 1031 m 961 1031 l 961 1242 l 1173 1242 l 1173 1031 l 961 1031 z "},"Ý":{"ha":1210,"x_min":28,"x_max":1182,"o":"m 730 380 l 730 0 l 479 0 l 479 380 l 28 932 l 310 932 l 606 557 l 900 932 l 1182 932 l 730 380 m 878 1144 l 524 1018 l 463 1133 l 789 1323 l 878 1144 z "},"ý":{"ha":1398,"x_min":125,"x_max":1253,"o":"m 1253 358 q 1208 196 1253 267 q 1081 76 1163 125 q 881 1 998 26 q 619 -25 764 -25 q 485 -20 555 -25 q 348 -6 415 -15 q 223 15 281 3 q 125 41 165 27 l 125 262 q 221 228 168 244 q 337 199 275 212 q 471 179 399 186 q 623 172 543 172 q 755 181 698 172 q 854 205 812 190 q 924 239 897 220 q 969 279 952 258 q 993 320 986 300 q 1000 358 1000 340 l 1000 440 q 836 356 931 389 q 618 323 740 323 q 381 351 476 323 q 230 430 287 378 q 149 557 173 482 q 125 725 125 631 l 125 932 l 378 932 l 378 750 q 392 652 378 695 q 438 581 407 610 q 520 537 470 552 q 642 522 570 522 q 756 537 702 522 q 855 576 810 552 q 937 632 901 601 q 1000 696 974 663 l 1000 932 l 1253 932 l 1253 358 m 960 1144 l 606 1018 l 545 1133 l 871 1323 l 960 1144 z "},"Ŷ":{"ha":1210,"x_min":28,"x_max":1182,"o":"m 730 380 l 730 0 l 479 0 l 479 380 l 28 932 l 310 932 l 606 557 l 900 932 l 1182 932 l 730 380 m 842 1018 l 606 1140 l 370 1018 l 288 1145 l 606 1326 l 924 1145 l 842 1018 z "},"ŷ":{"ha":1398,"x_min":125,"x_max":1253,"o":"m 1253 358 q 1208 196 1253 267 q 1081 76 1163 125 q 881 1 998 26 q 619 -25 764 -25 q 485 -20 555 -25 q 348 -6 415 -15 q 223 15 281 3 q 125 41 165 27 l 125 262 q 221 228 168 244 q 337 199 275 212 q 471 179 399 186 q 623 172 543 172 q 755 181 698 172 q 854 205 812 190 q 924 239 897 220 q 969 279 952 258 q 993 320 986 300 q 1000 358 1000 340 l 1000 440 q 836 356 931 389 q 618 323 740 323 q 381 351 476 323 q 230 430 287 378 q 149 557 173 482 q 125 725 125 631 l 125 932 l 378 932 l 378 750 q 392 652 378 695 q 438 581 407 610 q 520 537 470 552 q 642 522 570 522 q 756 537 702 522 q 855 576 810 552 q 937 632 901 601 q 1000 696 974 663 l 1000 932 l 1253 932 l 1253 358 m 924 1018 l 688 1140 l 452 1018 l 370 1145 l 688 1326 l 1006 1145 l 924 1018 z "},"Ÿ":{"ha":1210,"x_min":28,"x_max":1182,"o":"m 730 380 l 730 0 l 479 0 l 479 380 l 28 932 l 310 932 l 606 557 l 900 932 l 1182 932 l 730 380 m 343 1031 l 343 1242 l 554 1242 l 554 1031 l 343 1031 m 656 1031 l 656 1242 l 868 1242 l 868 1031 l 656 1031 z "},"ÿ":{"ha":1398,"x_min":125,"x_max":1253,"o":"m 1253 358 q 1208 196 1253 267 q 1081 76 1163 125 q 881 1 998 26 q 619 -25 764 -25 q 485 -20 555 -25 q 348 -6 415 -15 q 223 15 281 3 q 125 41 165 27 l 125 262 q 221 228 168 244 q 337 199 275 212 q 471 179 399 186 q 623 172 543 172 q 755 181 698 172 q 854 205 812 190 q 924 239 897 220 q 969 279 952 258 q 993 320 986 300 q 1000 358 1000 340 l 1000 440 q 836 356 931 389 q 618 323 740 323 q 381 351 476 323 q 230 430 287 378 q 149 557 173 482 q 125 725 125 631 l 125 932 l 378 932 l 378 750 q 392 652 378 695 q 438 581 407 610 q 520 537 470 552 q 642 522 570 522 q 756 537 702 522 q 855 576 810 552 q 937 632 901 601 q 1000 696 974 663 l 1000 932 l 1253 932 l 1253 358 m 425 1031 l 425 1242 l 636 1242 l 636 1031 l 425 1031 m 739 1031 l 739 1242 l 950 1242 l 950 1031 l 739 1031 z "},"Ỳ":{"ha":1210,"x_min":28,"x_max":1182,"o":"m 730 380 l 730 0 l 479 0 l 479 380 l 28 932 l 310 932 l 606 557 l 900 932 l 1182 932 l 730 380 m 426 1323 l 753 1133 l 692 1018 l 337 1144 l 426 1323 z "},"ỳ":{"ha":1398,"x_min":125,"x_max":1253,"o":"m 1253 358 q 1208 196 1253 267 q 1081 76 1163 125 q 881 1 998 26 q 619 -25 764 -25 q 485 -20 555 -25 q 348 -6 415 -15 q 223 15 281 3 q 125 41 165 27 l 125 262 q 221 228 168 244 q 337 199 275 212 q 471 179 399 186 q 623 172 543 172 q 755 181 698 172 q 854 205 812 190 q 924 239 897 220 q 969 279 952 258 q 993 320 986 300 q 1000 358 1000 340 l 1000 440 q 836 356 931 389 q 618 323 740 323 q 381 351 476 323 q 230 430 287 378 q 149 557 173 482 q 125 725 125 631 l 125 932 l 378 932 l 378 750 q 392 652 378 695 q 438 581 407 610 q 520 537 470 552 q 642 522 570 522 q 756 537 702 522 q 855 576 810 552 q 937 632 901 601 q 1000 696 974 663 l 1000 932 l 1253 932 l 1253 358 m 508 1323 l 835 1133 l 774 1018 l 419 1144 l 508 1323 z "},"Ź":{"ha":1162,"x_min":92,"x_max":1079,"o":"m 92 0 l 92 195 l 704 728 l 110 728 l 110 932 l 1065 932 l 1065 761 l 425 204 l 1079 204 l 1079 0 l 92 0 m 856 1144 l 502 1018 l 441 1133 l 767 1323 l 856 1144 z "},"ź":{"ha":1162,"x_min":92,"x_max":1079,"o":"m 92 0 l 92 195 l 704 728 l 110 728 l 110 932 l 1065 932 l 1065 761 l 425 204 l 1079 204 l 1079 0 l 92 0 m 860 1144 l 506 1018 l 445 1133 l 771 1323 l 860 1144 z "},"Ż":{"ha":1162,"x_min":92,"x_max":1079,"o":"m 92 0 l 92 195 l 704 728 l 110 728 l 110 932 l 1065 932 l 1065 761 l 425 204 l 1079 204 l 1079 0 l 92 0 m 475 1031 l 475 1247 l 691 1247 l 691 1031 l 475 1031 z "},"ż":{"ha":1162,"x_min":92,"x_max":1079,"o":"m 92 0 l 92 195 l 704 728 l 110 728 l 110 932 l 1065 932 l 1065 761 l 425 204 l 1079 204 l 1079 0 l 92 0 m 479 1031 l 479 1247 l 696 1247 l 696 1031 l 479 1031 z "},"Ž":{"ha":1162,"x_min":92,"x_max":1079,"o":"m 92 0 l 92 195 l 704 728 l 110 728 l 110 932 l 1065 932 l 1065 761 l 425 204 l 1079 204 l 1079 0 l 92 0 m 347 1326 l 583 1204 l 819 1326 l 901 1198 l 583 1018 l 265 1198 l 347 1326 z "},"ž":{"ha":1162,"x_min":92,"x_max":1079,"o":"m 92 0 l 92 195 l 704 728 l 110 728 l 110 932 l 1065 932 l 1065 761 l 425 204 l 1079 204 l 1079 0 l 92 0 m 352 1326 l 588 1204 l 824 1326 l 906 1198 l 588 1018 l 270 1198 l 352 1326 z "},"$":{"ha":1152,"x_min":97,"x_max":1054,"o":"m 479 1 q 272 25 368 7 q 103 68 177 43 l 103 272 q 275 204 179 230 q 479 171 370 178 l 479 395 q 386 416 433 404 q 297 443 339 427 q 218 479 254 458 q 154 527 181 500 q 112 588 127 554 q 97 667 97 623 q 113 755 97 717 q 156 821 129 793 q 221 869 184 850 q 300 901 258 888 q 389 920 343 913 q 479 929 435 926 l 479 1019 l 659 1019 l 659 928 q 828 906 745 922 q 979 871 912 890 l 979 675 q 924 697 958 685 q 850 722 891 710 q 760 744 808 734 q 659 760 711 754 l 659 564 q 754 541 706 553 q 846 513 802 529 q 928 475 890 496 q 994 426 966 454 q 1038 363 1022 398 q 1054 283 1054 328 q 1038 189 1054 230 q 993 118 1021 149 q 926 67 964 88 q 844 34 888 47 q 753 13 800 20 q 659 3 705 6 l 659 -87 l 479 -87 l 479 1 m 819 267 q 807 298 819 284 q 773 322 795 312 q 723 342 752 333 q 659 358 693 351 l 659 172 q 735 187 705 177 q 785 210 766 197 q 811 237 804 222 q 819 267 819 252 m 330 686 q 341 657 330 670 q 372 635 352 645 q 419 616 392 625 q 479 600 447 608 l 479 760 q 402 748 431 756 q 357 731 373 741 q 336 709 341 721 q 330 686 330 698 z "},"¢":{"ha":1023,"x_min":41,"x_max":986,"o":"m 986 125 q 838 76 913 96 q 672 50 762 56 l 672 -87 l 493 -87 l 493 54 q 309 97 392 65 q 166 181 226 128 q 74 306 106 233 q 41 473 41 379 q 74 640 41 567 q 166 766 106 713 q 309 850 226 819 q 493 893 392 882 l 493 1019 l 672 1019 l 672 896 q 759 887 718 893 q 838 871 800 881 q 913 849 876 861 q 986 822 949 837 l 986 604 q 923 637 956 621 q 852 667 890 653 q 770 690 814 680 q 672 704 726 701 l 672 244 q 770 257 726 248 q 852 280 814 267 q 923 310 890 294 q 986 343 956 326 l 986 125 m 288 473 q 298 403 288 437 q 333 339 309 369 q 397 288 357 310 q 493 254 436 266 l 493 694 q 397 660 436 682 q 333 607 357 637 q 298 543 309 578 q 288 473 288 509 z "},"£":{"ha":1193,"x_min":81,"x_max":1112,"o":"m 1112 3 q 1085 -2 1103 1 q 1040 -10 1067 -6 q 976 -17 1013 -14 q 892 -20 939 -20 q 765 -12 827 -20 q 644 7 703 -3 q 530 25 585 17 q 425 33 475 33 q 351 31 383 33 q 293 23 319 28 q 243 14 267 19 q 196 3 220 9 q 144 -6 172 -2 q 81 -14 117 -11 l 81 186 q 144 200 113 191 q 200 229 176 210 q 238 278 224 248 q 253 354 253 309 l 253 379 l 82 379 l 82 549 l 253 549 l 253 579 q 289 736 253 667 q 388 852 325 805 q 539 924 452 900 q 730 949 627 949 q 899 938 814 949 q 1057 909 983 926 l 1057 688 q 998 710 1031 699 q 926 731 965 722 q 842 747 886 741 q 749 753 797 753 q 648 746 689 753 q 580 726 607 739 q 537 696 553 713 q 515 660 522 680 q 506 618 507 640 q 504 575 504 597 l 504 549 l 896 549 l 896 379 l 504 379 l 504 368 q 499 330 504 351 q 486 290 494 310 q 467 252 478 270 q 443 222 456 235 q 457 226 448 224 q 476 228 466 227 q 496 229 486 229 q 514 229 507 229 q 614 221 567 229 q 705 203 661 213 q 793 184 749 193 q 884 176 837 176 q 970 182 932 176 q 1038 196 1009 188 q 1085 212 1066 203 q 1112 227 1103 220 l 1112 3 z "},"¥":{"ha":1210,"x_min":28,"x_max":1182,"o":"m 332 562 l 28 932 l 310 932 l 606 557 l 900 932 l 1182 932 l 876 562 l 1084 562 l 1084 419 l 758 419 l 730 385 l 730 321 l 1084 321 l 1084 178 l 730 178 l 730 0 l 479 0 l 479 178 l 125 178 l 125 321 l 479 321 l 479 385 l 450 419 l 125 419 l 125 562 l 332 562 z "},"ƒ":{"ha":1225,"x_min":35,"x_max":1190,"o":"m 545 606 l 570 697 q 615 794 585 748 q 694 877 645 841 q 812 934 743 913 q 975 956 882 956 q 1028 954 1000 956 q 1085 948 1056 951 q 1141 939 1114 945 q 1190 928 1168 934 l 1190 717 q 1159 736 1175 727 q 1122 754 1143 746 q 1074 766 1101 762 q 1007 771 1046 771 q 948 766 978 771 q 892 747 919 761 q 845 709 866 733 q 811 647 823 685 l 800 606 l 977 606 l 977 436 l 751 436 l 697 253 q 644 133 677 188 q 556 38 610 78 q 426 -25 503 -3 q 244 -47 349 -47 q 196 -45 222 -47 q 142 -39 170 -43 q 86 -29 114 -35 q 35 -16 58 -23 l 35 195 q 72 174 52 184 q 117 156 93 164 q 170 143 141 148 q 231 138 198 138 q 312 146 276 138 q 375 175 347 155 q 424 230 403 195 q 461 317 445 264 l 496 436 l 343 436 l 343 606 l 545 606 z "},"€":{"ha":1271,"x_min":35,"x_max":1174,"o":"m 204 642 q 283 771 233 714 q 405 868 334 828 q 563 928 475 907 q 753 949 651 949 q 984 924 877 949 q 1174 861 1091 899 l 1174 619 q 1096 676 1141 651 q 999 719 1051 701 q 892 745 947 736 q 783 754 836 754 q 680 746 726 754 q 596 723 633 738 q 531 687 559 708 q 482 642 503 667 l 893 642 l 850 513 l 428 513 q 426 489 427 501 q 425 465 425 477 q 425 447 425 456 q 427 431 425 439 l 821 431 l 778 301 l 475 301 q 523 251 494 273 q 590 211 551 228 q 676 185 628 195 q 783 176 724 176 q 892 186 836 176 q 999 213 947 195 q 1096 256 1051 231 q 1174 313 1141 281 l 1174 71 q 1082 36 1133 52 q 977 7 1032 20 q 865 -12 922 -5 q 753 -18 808 -18 q 562 2 651 -18 q 401 63 473 22 q 277 163 329 103 q 199 301 225 222 l 35 301 l 78 431 l 175 431 q 174 447 174 439 q 174 465 174 456 q 174 489 174 477 q 175 513 174 501 l 37 513 l 81 642 l 204 642 z "},"¤":{"ha":832,"x_min":81,"x_max":751,"o":"m 652 586 q 676 526 669 555 q 682 463 682 496 q 676 399 682 430 q 653 339 669 368 l 751 240 l 639 126 l 539 228 q 478 203 509 210 q 416 196 448 196 q 352 202 382 196 q 293 227 322 208 l 193 126 l 81 240 l 180 339 q 158 399 166 368 q 150 463 150 431 q 157 526 150 495 q 180 586 165 557 l 81 686 l 193 799 l 293 699 q 354 721 321 714 q 419 728 386 728 q 480 721 450 728 q 539 699 511 714 l 639 799 l 751 686 l 652 586 m 307 463 q 315 421 307 440 q 338 387 323 401 q 373 364 353 373 q 416 354 393 355 q 456 361 437 354 q 492 382 476 368 q 517 416 507 396 q 526 463 526 437 q 517 504 526 484 q 493 539 509 524 q 458 564 478 555 q 416 572 438 572 q 373 563 393 572 q 338 538 353 553 q 315 503 323 523 q 307 463 307 484 z "},"%":{"ha":1364,"x_min":56,"x_max":1308,"o":"m 404 0 l 215 0 l 960 932 l 1147 932 l 404 0 m 612 711 q 591 613 612 656 q 531 538 569 569 q 443 490 494 507 q 334 473 392 473 q 225 490 275 473 q 137 538 174 507 q 77 613 99 569 q 56 711 56 656 q 77 811 56 767 q 137 886 99 855 q 225 932 174 916 q 334 949 275 949 q 443 932 392 949 q 531 886 494 916 q 591 811 569 855 q 612 711 612 767 m 441 711 q 434 750 441 732 q 413 783 427 769 q 379 806 399 798 q 334 815 359 815 q 288 806 308 815 q 254 783 268 798 q 234 750 241 769 q 227 711 227 732 q 234 673 227 692 q 254 639 241 654 q 288 616 268 625 q 334 607 308 607 q 379 616 359 607 q 413 639 399 625 q 434 673 427 654 q 441 711 441 692 m 1308 220 q 1286 121 1308 165 q 1227 46 1265 77 q 1139 -2 1190 15 q 1029 -18 1088 -18 q 921 -2 971 -18 q 832 46 870 15 q 773 121 795 77 q 751 220 751 165 q 773 319 751 275 q 832 394 795 363 q 921 441 870 425 q 1029 457 971 457 q 1139 441 1088 457 q 1227 394 1190 425 q 1286 319 1265 363 q 1308 220 1308 275 m 1137 220 q 1130 259 1137 240 q 1109 292 1122 277 q 1075 315 1095 306 q 1029 323 1055 323 q 984 315 1004 323 q 950 292 964 306 q 929 259 937 277 q 922 220 922 240 q 929 181 922 200 q 950 148 937 162 q 984 124 964 133 q 1029 115 1004 115 q 1075 124 1055 115 q 1109 148 1095 133 q 1130 181 1122 162 q 1137 220 1137 200 z "},"‰":{"ha":1989,"x_min":56,"x_max":1933,"o":"m 404 0 l 215 0 l 960 932 l 1147 932 l 404 0 m 612 711 q 591 613 612 656 q 531 538 569 569 q 443 490 494 507 q 334 473 392 473 q 225 490 275 473 q 137 538 174 507 q 77 613 99 569 q 56 711 56 656 q 77 811 56 767 q 137 886 99 855 q 225 932 174 916 q 334 949 275 949 q 443 932 392 949 q 531 886 494 916 q 591 811 569 855 q 612 711 612 767 m 441 711 q 434 750 441 732 q 413 783 427 769 q 379 806 399 798 q 334 815 359 815 q 288 806 308 815 q 254 783 268 798 q 234 750 241 769 q 227 711 227 732 q 234 673 227 692 q 254 639 241 654 q 288 616 268 625 q 334 607 308 607 q 379 616 359 607 q 413 639 399 625 q 434 673 427 654 q 441 711 441 692 m 1308 220 q 1286 121 1308 165 q 1227 46 1265 77 q 1139 -2 1190 15 q 1029 -18 1088 -18 q 921 -2 971 -18 q 832 46 870 15 q 773 121 795 77 q 751 220 751 165 q 773 319 751 275 q 832 394 795 363 q 921 441 870 425 q 1029 457 971 457 q 1139 441 1088 457 q 1227 394 1190 425 q 1286 319 1265 363 q 1308 220 1308 275 m 1137 220 q 1130 259 1137 240 q 1109 292 1122 277 q 1075 315 1095 306 q 1029 323 1055 323 q 984 315 1004 323 q 950 292 964 306 q 929 259 937 277 q 922 220 922 240 q 929 181 922 200 q 950 148 937 162 q 984 124 964 133 q 1029 115 1004 115 q 1075 124 1055 115 q 1109 148 1095 133 q 1130 181 1122 162 q 1137 220 1137 200 m 1933 220 q 1912 121 1933 165 q 1852 46 1890 77 q 1764 -2 1815 15 q 1654 -18 1712 -18 q 1546 -2 1596 -18 q 1458 46 1495 15 q 1398 121 1420 77 q 1377 220 1377 165 q 1398 319 1377 275 q 1458 394 1420 363 q 1546 441 1495 425 q 1654 457 1596 457 q 1764 441 1712 457 q 1852 394 1815 425 q 1912 319 1890 363 q 1933 220 1933 275 m 1763 220 q 1755 259 1763 240 q 1734 292 1748 277 q 1700 315 1720 306 q 1654 323 1680 323 q 1609 315 1628 323 q 1575 292 1589 306 q 1554 259 1561 277 q 1547 220 1547 240 q 1554 181 1547 200 q 1575 148 1561 162 q 1609 124 1589 133 q 1654 115 1628 115 q 1700 124 1680 115 q 1734 148 1720 133 q 1755 181 1748 162 q 1763 220 1763 200 z "},"#":{"ha":1057,"x_min":69,"x_max":987,"o":"m 811 549 l 775 385 l 909 385 l 909 211 l 737 211 l 689 0 l 510 0 l 558 211 l 389 211 l 340 0 l 161 0 l 210 211 l 69 211 l 69 385 l 245 385 l 283 549 l 147 549 l 147 722 l 322 722 l 367 932 l 546 932 l 501 722 l 671 722 l 715 932 l 895 932 l 850 722 l 987 722 l 987 549 l 811 549 m 463 549 l 425 385 l 596 385 l 632 549 l 463 549 z "},"¹":{"ha":488,"x_min":14,"x_max":363,"o":"m 160 345 l 160 783 l 14 739 l 14 888 l 160 932 l 363 932 l 363 345 l 160 345 z "},"²":{"ha":772,"x_min":49,"x_max":717,"o":"m 49 345 l 49 494 q 249 579 163 544 q 390 640 334 614 q 474 689 446 667 q 503 734 503 711 q 496 759 503 747 q 475 779 490 770 q 432 791 459 787 q 364 796 406 796 q 282 792 323 796 q 200 779 240 787 q 124 758 161 770 q 56 730 87 745 l 56 903 q 204 933 123 924 q 368 942 284 942 q 496 930 435 942 q 604 893 557 918 q 679 835 651 869 q 707 755 707 800 q 689 681 707 713 q 629 619 671 648 q 519 561 587 590 q 349 494 450 531 l 717 494 l 717 345 l 49 345 z "},"³":{"ha":774,"x_min":49,"x_max":718,"o":"m 539 660 q 622 642 588 654 q 677 610 656 629 q 708 567 699 591 q 718 513 718 542 q 688 432 718 466 q 608 377 658 399 q 492 344 557 355 q 358 334 427 334 q 265 336 310 334 q 181 344 220 339 q 107 356 141 349 q 49 370 74 362 l 49 522 q 109 499 75 510 q 181 481 143 489 q 260 469 219 473 q 340 464 300 464 q 430 469 396 464 q 483 483 465 474 q 508 503 502 491 q 514 526 514 514 q 499 553 514 541 q 451 574 484 566 q 363 587 417 583 q 231 593 309 592 l 231 721 q 329 723 281 721 q 412 730 376 725 q 471 744 449 735 q 493 768 493 753 q 485 787 493 779 q 460 801 477 795 q 415 808 443 806 q 346 811 387 811 q 273 807 312 811 q 195 797 233 804 q 121 781 156 791 q 60 760 85 772 l 60 911 q 127 925 91 919 q 200 934 163 930 q 274 940 237 938 q 346 942 311 942 q 474 936 412 942 q 586 912 537 929 q 666 866 635 895 q 696 790 696 836 q 689 747 696 768 q 664 710 682 727 q 615 681 646 694 q 539 660 585 668 z "},"¼":{"ha":1332,"x_min":28,"x_max":1304,"o":"m 1304 92 l 1186 92 l 1186 0 l 1000 0 l 1000 92 l 672 92 l 672 210 l 977 494 l 1186 494 l 1186 211 l 1304 211 l 1304 92 m 1000 375 l 831 211 l 1000 211 l 1000 375 m 147 437 l 147 812 l 28 777 l 28 896 l 147 932 l 334 932 l 334 437 l 147 437 m 322 0 l 134 0 l 878 932 l 1065 932 l 322 0 z "},"½":{"ha":1364,"x_min":28,"x_max":1322,"o":"m 768 0 l 768 118 q 917 182 852 155 q 1028 233 983 210 q 1097 279 1073 257 q 1121 325 1121 300 q 1094 367 1121 353 q 1004 380 1066 380 q 949 376 979 380 q 888 364 919 372 q 828 345 857 356 q 774 321 798 334 l 774 461 q 833 478 800 471 q 902 492 867 486 q 971 500 937 497 q 1034 503 1006 503 q 1135 495 1084 502 q 1227 470 1186 488 q 1294 418 1268 451 q 1320 334 1320 385 q 1303 274 1320 300 q 1252 222 1286 247 q 1163 175 1217 198 q 1035 126 1109 152 l 1322 126 l 1322 0 l 768 0 m 147 437 l 147 812 l 28 777 l 28 896 l 147 932 l 334 932 l 334 437 l 147 437 m 322 0 l 134 0 l 878 932 l 1065 932 l 322 0 z "},"¾":{"ha":1499,"x_min":69,"x_max":1471,"o":"m 585 812 q 556 744 585 774 q 461 701 528 714 q 532 682 505 696 q 576 651 560 669 q 597 614 591 634 q 603 575 603 594 q 579 506 603 534 q 513 460 555 477 q 413 435 471 443 q 290 428 356 428 q 167 436 221 428 q 69 456 113 444 l 69 579 q 173 539 121 551 q 289 526 224 526 q 329 528 308 526 q 367 536 349 530 q 395 553 384 542 q 407 585 407 565 q 398 612 407 600 q 368 633 389 625 q 310 646 346 642 q 220 652 274 651 l 220 751 q 310 755 276 751 q 361 765 343 759 q 385 781 379 772 q 390 800 390 790 q 381 820 390 812 q 357 833 372 828 q 325 840 342 838 q 290 842 307 842 q 230 838 258 842 q 176 829 201 835 q 127 815 151 823 q 81 798 104 807 l 81 916 q 130 926 106 921 q 181 933 155 930 q 238 938 208 937 q 309 940 269 940 q 401 936 353 940 q 491 918 450 931 q 558 879 532 904 q 585 812 585 854 m 1471 92 l 1353 92 l 1353 0 l 1166 0 l 1166 92 l 839 92 l 839 210 l 1143 494 l 1353 494 l 1353 211 l 1471 211 l 1471 92 m 1166 375 l 997 211 l 1166 211 l 1166 375 m 489 0 l 300 0 l 1044 932 l 1232 932 l 489 0 z "},"°":{"ha":518,"x_min":62,"x_max":456,"o":"m 62 734 q 78 811 62 775 q 120 874 93 847 q 182 916 146 901 q 258 932 218 932 q 335 916 299 932 q 398 874 371 901 q 440 811 425 847 q 456 734 456 775 q 440 658 456 694 q 398 596 425 623 q 335 554 371 570 q 258 539 299 539 q 182 554 218 539 q 120 596 146 570 q 78 658 93 623 q 62 734 62 694 m 184 734 q 205 682 184 703 q 258 661 227 661 q 288 667 274 661 q 311 683 301 673 q 328 706 321 692 q 334 734 334 719 q 328 764 334 750 q 311 788 321 778 q 288 804 301 798 q 258 810 274 810 q 205 788 227 810 q 184 734 184 766 z "},"ª":{"ha":711,"x_min":41,"x_max":642,"o":"m 62 253 l 62 385 l 642 385 l 642 253 l 62 253 m 469 479 l 469 521 q 364 481 419 495 q 241 467 309 467 q 167 473 203 467 q 103 496 131 480 q 58 537 75 512 q 41 600 41 563 q 66 677 41 646 q 142 728 90 708 q 275 759 194 748 q 469 775 356 769 l 469 779 q 465 801 469 791 q 447 818 461 810 q 407 829 433 825 q 336 833 380 833 q 266 830 300 833 q 200 821 232 827 q 139 807 168 814 q 87 790 111 799 l 87 913 q 142 925 112 919 q 206 935 173 930 q 272 942 239 939 q 336 945 306 945 q 451 935 396 945 q 548 905 506 925 q 615 853 590 884 q 640 781 640 823 l 640 479 l 469 479 m 469 679 q 365 672 408 676 q 293 663 322 668 q 248 651 264 657 q 223 639 231 645 q 212 627 214 633 q 210 615 210 621 q 224 587 210 598 q 279 576 239 576 q 338 581 312 576 q 388 593 365 585 q 431 611 411 601 q 469 631 450 621 l 469 679 z "},"º":{"ha":751,"x_min":41,"x_max":710,"o":"m 75 253 l 75 385 l 675 385 l 675 253 l 75 253 m 710 705 q 686 602 710 646 q 617 527 661 557 q 512 482 573 497 q 376 467 450 467 q 241 482 303 467 q 135 527 180 497 q 66 602 91 557 q 41 705 41 646 q 66 809 41 764 q 135 884 91 854 q 241 929 180 914 q 376 945 303 945 q 512 929 450 945 q 617 884 573 914 q 686 809 661 854 q 710 705 710 764 m 541 705 q 532 746 541 726 q 505 783 524 766 q 455 809 486 799 q 376 819 423 819 q 298 809 330 819 q 248 782 267 798 q 220 745 229 766 q 212 705 212 725 q 220 665 212 685 q 248 628 229 644 q 298 602 267 612 q 376 591 330 591 q 455 602 423 591 q 505 628 486 612 q 532 665 524 644 q 541 705 541 685 z "},"+":{"ha":937,"x_min":103,"x_max":835,"o":"m 568 366 l 568 98 l 370 98 l 370 366 l 103 366 l 103 564 l 370 564 l 370 831 l 568 831 l 568 564 l 835 564 l 835 366 l 568 366 z "},"−":{"ha":937,"x_min":103,"x_max":835,"o":"m 835 564 l 835 366 l 103 366 l 103 564 l 835 564 z "},"=":{"ha":937,"x_min":103,"x_max":835,"o":"m 103 543 l 103 742 l 835 742 l 835 543 l 103 543 m 103 186 l 103 386 l 835 386 l 835 186 l 103 186 z "},"≠":{"ha":937,"x_min":103,"x_max":835,"o":"m 447 186 l 393 33 l 228 33 l 282 186 l 103 186 l 103 386 l 353 386 l 408 543 l 103 543 l 103 742 l 479 742 l 533 895 l 699 895 l 644 742 l 835 742 l 835 543 l 574 543 l 518 386 l 835 386 l 835 186 l 447 186 z "},"≈":{"ha":937,"x_min":103,"x_max":835,"o":"m 835 229 q 801 203 821 215 q 758 181 781 191 q 708 167 734 172 q 654 161 682 161 q 565 173 612 161 q 467 198 517 184 q 369 223 418 212 q 277 235 320 235 q 228 228 253 235 q 179 210 203 221 q 136 185 156 199 q 103 158 116 172 l 103 364 q 138 391 117 378 q 184 413 159 404 q 234 428 208 422 q 282 433 259 433 q 372 421 323 433 q 470 396 420 410 q 569 370 520 382 q 661 358 618 358 q 709 365 684 358 q 758 383 734 372 q 801 408 781 394 q 835 436 821 422 l 835 229 m 835 567 q 801 540 821 553 q 758 518 781 528 q 708 504 734 509 q 654 498 682 498 q 565 510 612 498 q 467 535 517 522 q 369 561 418 549 q 277 572 320 572 q 228 566 253 572 q 179 548 203 559 q 136 523 156 536 q 103 496 116 509 l 103 701 q 138 729 117 716 q 184 751 159 741 q 234 766 208 760 q 282 771 259 771 q 372 759 323 771 q 470 733 420 747 q 569 708 520 720 q 661 696 618 696 q 709 703 684 696 q 758 721 734 709 q 801 746 781 732 q 835 774 821 760 l 835 567 z "},"×":{"ha":936,"x_min":100,"x_max":836,"o":"m 608 465 l 836 237 l 696 97 l 468 325 l 240 97 l 100 237 l 328 465 l 100 693 l 240 833 l 468 606 l 696 833 l 836 693 l 608 465 z "},"÷":{"ha":937,"x_min":103,"x_max":835,"o":"m 103 366 l 103 564 l 835 564 l 835 366 l 103 366 m 370 665 l 370 844 l 568 844 l 568 665 l 370 665 m 370 85 l 370 264 l 568 264 l 568 85 l 370 85 z "},"¬":{"ha":937,"x_min":103,"x_max":835,"o":"m 636 200 l 636 408 l 103 408 l 103 607 l 835 607 l 835 200 l 636 200 z "},"±":{"ha":937,"x_min":103,"x_max":835,"o":"m 103 0 l 103 199 l 835 199 l 835 0 l 103 0 m 568 452 l 568 254 l 370 254 l 370 452 l 103 452 l 103 650 l 370 650 l 370 861 l 568 861 l 568 650 l 835 650 l 835 452 l 568 452 z "},"<":{"ha":897,"x_min":92,"x_max":794,"o":"m 92 390 l 92 538 l 794 850 l 794 633 l 385 464 l 794 296 l 794 79 l 92 390 z "},">":{"ha":897,"x_min":103,"x_max":806,"o":"m 103 79 l 103 296 l 513 464 l 103 633 l 103 850 l 806 538 l 806 390 l 103 79 z "},"≤":{"ha":937,"x_min":103,"x_max":835,"o":"m 103 0 l 103 199 l 835 199 l 835 0 l 103 0 m 103 473 l 103 621 l 835 878 l 835 667 l 410 547 l 835 429 l 835 218 l 103 473 z "},"≥":{"ha":937,"x_min":103,"x_max":835,"o":"m 103 0 l 103 199 l 835 199 l 835 0 l 103 0 m 103 218 l 103 429 l 528 547 l 103 667 l 103 878 l 835 621 l 835 473 l 103 218 z "},"⁄":{"ha":310,"x_min":-311,"x_max":621,"o":"m -122 0 l -311 0 l 433 932 l 621 932 l -122 0 z "},"|":{"ha":416,"x_min":111,"x_max":306,"o":"m 111 -328 l 111 1061 l 306 1061 l 306 -328 l 111 -328 z "},"¦":{"ha":416,"x_min":111,"x_max":306,"o":"m 111 456 l 111 970 l 306 970 l 306 456 l 111 456 m 111 -239 l 111 275 l 306 275 l 306 -239 l 111 -239 z "},"@":{"ha":1411,"x_min":92,"x_max":1320,"o":"m 828 296 q 797 269 814 283 q 758 245 781 256 q 705 227 735 234 q 635 220 675 220 q 547 233 588 220 q 476 271 507 245 q 428 334 446 296 q 411 419 411 371 q 425 509 411 468 q 463 582 439 549 q 517 640 487 615 q 582 681 548 665 q 649 706 615 697 q 711 714 682 714 q 788 702 758 714 q 833 679 818 690 l 839 704 l 997 704 l 956 452 q 954 441 955 450 q 951 422 952 432 q 948 403 949 412 q 947 393 947 395 q 949 377 947 386 q 956 361 951 368 q 970 348 961 353 q 993 343 979 343 q 1056 363 1031 343 q 1096 413 1081 384 q 1116 476 1110 443 q 1122 534 1122 509 q 1104 642 1122 592 q 1041 728 1085 692 q 925 786 997 765 q 746 807 852 807 q 602 792 667 807 q 487 751 537 777 q 399 690 436 726 q 339 614 363 655 q 303 530 315 574 q 292 441 292 486 q 311 321 292 378 q 378 223 331 265 q 504 157 426 181 q 700 132 583 132 q 772 134 739 132 q 833 140 805 136 q 885 150 861 144 q 932 164 909 156 l 975 12 q 917 -4 950 3 q 846 -16 883 -11 q 769 -24 808 -21 q 694 -26 730 -26 q 429 6 543 -26 q 241 100 316 39 q 129 247 166 161 q 92 441 92 334 q 114 581 92 514 q 177 706 136 648 q 276 812 218 764 q 407 895 334 860 q 564 948 479 929 q 743 966 649 966 q 925 950 843 966 q 1070 905 1006 934 q 1181 835 1135 876 q 1259 747 1228 795 q 1305 647 1290 700 q 1320 538 1320 593 q 1300 418 1320 475 q 1239 317 1280 361 q 1136 246 1198 273 q 989 220 1074 220 q 937 224 962 220 q 891 239 912 229 q 853 262 870 248 q 828 296 837 277 m 664 339 q 705 345 687 339 q 736 361 722 351 q 763 385 751 372 q 785 414 774 399 l 810 553 q 793 571 803 563 q 771 584 783 578 q 748 592 760 589 q 725 595 736 595 q 667 581 694 595 q 619 545 640 568 q 587 492 599 522 q 575 427 575 461 q 580 393 575 409 q 595 365 585 377 q 623 346 606 353 q 664 339 640 339 z "},"•":{"ha":593,"x_min":97,"x_max":496,"o":"m 97 478 q 113 555 97 519 q 155 618 128 591 q 218 662 182 646 q 296 677 254 677 q 373 662 337 677 q 437 618 410 646 q 480 555 464 591 q 496 478 496 519 q 480 400 496 437 q 437 337 464 364 q 373 295 410 311 q 296 279 337 279 q 218 295 254 279 q 155 337 182 311 q 113 400 128 364 q 97 478 97 437 z "},"^":{"ha":819,"x_min":35,"x_max":785,"o":"m 555 532 l 410 770 l 264 532 l 35 532 l 309 932 l 511 932 l 785 532 l 555 532 z "},"~":{"ha":937,"x_min":103,"x_max":835,"o":"m 835 397 q 801 371 821 383 q 758 349 781 358 q 708 334 734 340 q 654 329 682 329 q 565 340 612 329 q 467 366 517 352 q 369 391 418 380 q 277 403 320 403 q 228 396 253 403 q 179 378 203 389 q 136 354 156 368 q 103 326 116 340 l 103 532 q 138 559 117 547 q 184 581 159 572 q 234 596 208 591 q 282 602 259 602 q 372 590 323 602 q 470 564 420 578 q 569 538 520 550 q 661 526 618 526 q 709 533 684 526 q 758 551 734 540 q 801 576 781 562 q 835 604 821 590 l 835 397 l 835 397 z "},"/":{"ha":806,"x_min":62,"x_max":743,"o":"m 283 -28 l 62 -28 l 522 974 l 743 974 l 283 -28 z "},"\\":{"ha":806,"x_min":62,"x_max":743,"o":"m 62 974 l 283 974 l 743 -28 l 522 -28 l 62 974 z "},"'":{"ha":307,"x_min":35,"x_max":272,"o":"m 62 559 l 35 932 l 272 932 l 244 559 l 62 559 z "},"\"":{"ha":612,"x_min":35,"x_max":578,"o":"m 62 559 l 35 932 l 258 932 l 231 559 l 62 559 m 382 559 l 354 932 l 578 932 l 550 559 l 382 559 z "},"&":{"ha":1332,"x_min":92,"x_max":1283,"o":"m 1215 482 q 1156 309 1202 387 q 1038 168 1109 230 q 1158 84 1097 126 q 1283 0 1219 42 l 965 0 q 873 61 919 29 q 702 2 791 22 q 524 -18 612 -18 q 341 -1 421 -18 q 205 50 260 16 q 121 135 150 84 q 92 252 92 185 q 109 345 92 302 q 157 421 127 387 q 227 484 187 456 q 311 536 267 513 q 255 635 275 587 q 235 729 235 683 q 258 822 235 781 q 328 891 282 863 q 441 934 374 919 q 595 949 508 949 q 731 933 672 949 q 828 890 789 917 q 887 828 867 863 q 907 755 907 793 q 883 671 907 709 q 821 601 860 633 q 733 542 783 569 q 631 492 684 515 q 744 392 682 444 q 879 285 806 340 q 944 369 919 320 q 977 482 970 418 l 1215 482 m 528 164 q 608 169 566 164 q 694 186 650 174 q 556 293 621 241 q 435 399 490 346 q 357 344 387 373 q 328 279 328 315 q 336 239 328 260 q 368 202 345 218 q 429 175 391 185 q 528 164 468 164 m 471 715 q 481 674 471 696 q 510 624 491 651 q 576 651 545 638 q 629 678 606 665 q 665 705 652 691 q 677 736 677 720 q 673 754 677 744 q 659 773 669 764 q 631 788 649 782 q 585 794 613 794 q 528 788 550 794 q 493 771 505 781 q 475 746 480 760 q 471 715 471 732 z "},"(":{"ha":642,"x_min":97,"x_max":517,"o":"m 323 464 q 335 348 323 401 q 370 245 347 294 q 430 151 394 197 q 517 56 467 104 l 376 -96 q 263 11 314 -46 q 175 136 212 68 q 117 284 138 203 q 97 464 97 366 q 117 643 97 562 q 175 792 138 724 q 263 917 212 860 q 376 1023 314 973 l 517 872 q 430 777 467 823 q 370 682 394 731 q 335 580 347 633 q 323 464 323 527 z "},")":{"ha":642,"x_min":125,"x_max":545,"o":"m 318 464 q 307 580 318 527 q 271 682 295 633 q 211 777 248 731 q 125 872 175 823 l 210 964 l 210 965 l 265 1023 q 376 920 327 977 q 444 830 414 878 q 496 729 475 783 q 531 613 518 675 q 545 481 543 551 l 545 464 q 533 325 545 389 q 499 204 521 260 q 446 100 477 149 q 376 8 415 52 q 329 -41 353 -18 q 278 -86 304 -64 q 272 -90 275 -88 q 265 -96 269 -92 l 210 -37 l 210 -36 l 125 56 q 211 151 175 104 q 271 245 248 197 q 307 348 295 294 q 318 464 318 401 z "},"[":{"ha":685,"x_min":160,"x_max":623,"o":"m 160 -82 l 160 1010 l 623 1010 l 623 827 l 383 827 l 383 102 l 623 102 l 623 -82 l 160 -82 z "},"]":{"ha":685,"x_min":62,"x_max":525,"o":"m 62 -82 l 62 102 l 301 102 l 301 827 l 62 827 l 62 1010 l 525 1010 l 525 -82 l 62 -82 z "},"{":{"ha":661,"x_min":35,"x_max":599,"o":"m 191 184 q 186 271 191 235 q 169 330 182 307 q 129 364 155 353 q 61 375 104 375 l 35 375 l 35 555 l 61 555 q 130 567 104 555 q 170 601 156 578 q 187 661 183 625 q 191 747 191 697 l 191 775 q 209 883 191 838 q 259 956 227 927 q 336 997 291 984 q 433 1010 380 1010 l 599 1010 l 599 827 l 541 827 q 486 823 509 827 q 446 806 462 820 q 422 765 430 793 q 414 688 414 737 l 414 677 q 409 605 414 640 q 391 543 404 571 q 354 495 378 515 q 292 465 330 475 q 354 435 330 455 q 391 387 378 415 q 409 325 404 359 q 414 253 414 291 l 414 240 q 422 163 414 191 q 446 121 430 135 q 486 105 462 108 q 541 102 509 102 l 599 102 l 599 -82 l 433 -82 q 336 -69 380 -82 q 259 -28 291 -56 q 209 45 227 1 q 191 153 191 90 l 191 184 z "},"}":{"ha":661,"x_min":62,"x_max":627,"o":"m 471 153 q 453 45 471 90 q 402 -28 435 1 q 326 -69 370 -56 q 228 -82 281 -82 l 62 -82 l 62 102 l 121 102 q 176 105 152 102 q 215 121 199 108 q 239 163 231 135 q 248 240 248 191 l 248 253 q 252 325 248 291 q 270 387 257 359 q 308 435 283 415 q 370 465 332 455 q 307 495 331 475 q 270 543 283 515 q 252 605 256 571 q 248 677 248 640 l 248 688 q 239 765 248 737 q 215 806 231 793 q 176 823 199 820 q 121 827 152 827 l 62 827 l 62 1010 l 228 1010 q 326 997 281 1010 q 402 956 370 984 q 453 883 435 927 q 471 775 471 838 l 471 747 q 474 661 471 697 q 492 601 478 625 q 531 567 505 578 q 600 555 556 555 l 627 555 l 627 375 l 600 375 q 532 364 557 375 q 493 330 507 353 q 475 271 479 307 q 471 184 471 235 l 471 153 z "},"*":{"ha":729,"x_min":69,"x_max":660,"o":"m 293 364 l 315 561 l 143 435 l 69 561 l 265 647 l 71 733 l 143 860 l 315 733 l 293 932 l 439 932 l 416 736 l 586 860 l 659 733 l 465 647 l 660 562 l 586 436 l 416 559 l 439 364 l 293 364 z "},"†":{"ha":778,"x_min":111,"x_max":667,"o":"m 111 724 l 292 724 l 292 932 l 486 932 l 486 724 l 667 724 l 667 549 l 486 549 l 486 -16 l 292 -16 l 292 549 l 111 549 l 111 724 z "},"‡":{"ha":778,"x_min":111,"x_max":667,"o":"m 111 737 l 292 737 l 292 932 l 486 932 l 486 737 l 667 737 l 667 562 l 486 562 l 486 390 l 667 390 l 667 215 l 486 215 l 486 -16 l 292 -16 l 292 215 l 111 215 l 111 390 l 292 390 l 292 562 l 111 562 l 111 737 z "},"§":{"ha":778,"x_min":69,"x_max":708,"o":"m 708 437 q 699 390 708 412 q 675 351 690 369 q 640 318 660 333 q 599 290 620 302 q 648 236 629 267 q 667 164 667 205 q 643 73 667 111 q 579 13 619 36 q 486 -21 539 -11 q 372 -32 432 -32 q 306 -29 340 -32 q 238 -21 271 -26 q 175 -9 205 -16 q 121 5 145 -3 l 121 183 q 170 159 140 171 q 235 139 200 148 q 305 126 269 131 q 371 121 340 121 q 430 126 410 121 q 460 138 450 131 q 471 152 469 144 q 472 163 472 159 q 455 191 472 177 q 409 219 437 205 q 345 248 380 233 q 271 280 309 262 q 197 317 233 297 q 132 362 161 338 q 86 415 104 386 q 69 478 69 444 q 78 525 69 503 q 103 564 87 546 q 138 597 118 582 q 179 624 157 612 q 130 680 149 649 q 111 751 111 711 q 134 842 111 805 q 197 903 157 880 q 289 937 237 926 q 400 947 342 947 q 527 939 466 947 q 637 914 589 930 l 637 736 q 590 759 618 749 q 530 778 562 770 q 465 790 498 785 q 401 794 432 794 q 343 789 363 794 q 315 778 323 784 q 306 764 307 771 q 306 753 306 757 q 323 724 306 738 q 369 696 340 711 q 433 667 397 682 q 507 635 469 652 q 581 598 545 618 q 645 554 617 578 q 691 501 673 530 q 708 437 708 472 m 515 414 q 497 455 515 437 q 451 489 479 473 q 385 520 422 505 q 310 551 348 535 q 276 531 290 543 q 262 501 262 518 q 280 459 262 477 q 327 425 298 441 q 393 395 356 410 q 468 364 429 380 q 502 385 488 372 q 515 414 515 397 z "},"¶":{"ha":884,"x_min":83,"x_max":745,"o":"m 614 0 l 614 814 l 525 814 l 525 0 l 395 0 l 395 401 q 280 417 336 401 q 180 464 224 432 q 110 546 136 496 q 83 667 83 596 q 110 787 83 737 q 180 870 136 838 q 280 917 224 902 q 395 932 336 932 l 745 932 l 745 0 l 614 0 z "},"©":{"ha":1071,"x_min":69,"x_max":1002,"o":"m 1002 465 q 985 341 1002 401 q 938 230 968 282 q 865 136 907 178 q 770 63 823 94 q 659 17 718 33 q 534 0 599 0 q 411 17 471 0 q 300 63 351 33 q 206 136 248 94 q 133 230 163 178 q 86 341 102 282 q 69 465 69 401 q 86 589 69 530 q 133 701 102 649 q 206 795 163 753 q 300 868 248 838 q 411 915 351 899 q 534 932 470 932 q 659 915 599 932 q 770 868 718 899 q 865 795 823 838 q 938 701 907 753 q 985 589 968 649 q 1002 465 1002 530 m 736 235 q 640 195 687 209 q 534 182 592 182 q 428 201 477 182 q 341 257 378 220 q 283 345 304 293 q 262 464 262 397 q 283 583 262 530 q 341 672 304 635 q 428 728 378 709 q 534 747 477 747 q 588 744 563 747 q 638 735 614 741 q 687 719 663 728 q 736 696 711 709 l 736 572 q 684 607 708 593 q 639 629 661 621 q 595 640 617 637 q 550 643 574 643 q 479 630 511 643 q 426 594 448 617 q 392 537 404 570 q 380 464 380 504 q 392 391 380 424 q 426 335 404 359 q 479 299 448 312 q 550 286 511 286 q 595 289 574 286 q 639 300 617 292 q 684 322 661 309 q 736 355 708 335 l 736 235 m 180 465 q 208 327 180 392 q 284 215 236 262 q 397 139 332 167 q 534 111 461 111 q 673 139 608 111 q 786 215 738 167 q 863 327 835 262 q 890 465 890 392 q 863 604 890 539 q 786 717 835 669 q 673 793 738 765 q 534 821 608 821 q 397 793 461 821 q 284 717 332 765 q 208 604 236 669 q 180 465 180 539 z "},"®":{"ha":833,"x_min":74,"x_max":758,"o":"m 758 606 q 731 472 758 534 q 658 364 705 410 q 549 291 612 317 q 415 264 486 264 q 282 291 345 264 q 174 364 220 317 q 101 472 127 410 q 74 606 74 534 q 101 740 74 677 q 174 849 127 802 q 282 922 220 895 q 415 949 345 949 q 549 922 486 949 q 658 849 612 895 q 731 740 705 802 q 758 606 758 677 m 164 606 q 184 507 164 553 q 237 427 203 461 q 317 374 271 393 q 415 354 363 354 q 514 374 468 354 q 595 427 561 393 q 648 507 629 461 q 668 606 668 553 q 648 705 668 659 q 595 785 629 751 q 514 839 561 819 q 415 859 468 859 q 317 839 363 859 q 237 785 271 819 q 184 705 203 751 q 164 606 164 659 m 363 411 l 264 411 l 264 806 l 415 806 q 535 775 493 806 q 576 684 576 744 q 571 644 576 661 q 557 614 566 627 q 535 591 548 601 q 509 574 523 582 l 570 411 l 468 411 l 418 558 l 363 558 l 363 411 m 475 684 q 459 715 475 703 q 410 728 444 728 l 363 728 l 363 635 l 410 635 q 459 649 444 635 q 475 684 475 664 z "},"™":{"ha":1219,"x_min":35,"x_max":1095,"o":"m 314 821 l 314 528 l 183 528 l 183 821 l 35 821 l 35 932 l 476 932 l 476 821 l 314 821 m 964 528 l 964 772 l 851 528 l 768 528 l 656 772 l 656 528 l 525 528 l 525 932 l 688 932 l 810 663 l 932 932 l 1095 932 l 1095 528 l 964 528 z "},".":{"ha":396,"x_min":69,"x_max":326,"o":"m 69 0 l 69 244 l 326 244 l 326 0 l 69 0 z "},",":{"ha":334,"x_min":0,"x_max":306,"o":"m 207 -138 l 0 -138 l 56 244 l 306 244 l 207 -138 z "},":":{"ha":424,"x_min":83,"x_max":340,"o":"m 83 0 l 83 244 l 340 244 l 340 0 l 83 0 m 83 431 l 83 675 l 340 675 l 340 431 l 83 431 z "},";":{"ha":437,"x_min":41,"x_max":354,"o":"m 97 431 l 97 675 l 354 675 l 354 431 l 97 431 m 249 -138 l 41 -138 l 97 244 l 347 244 l 249 -138 z "},"!":{"ha":521,"x_min":125,"x_max":396,"o":"m 345 319 l 176 319 l 125 729 l 125 932 l 396 932 l 396 729 l 345 319 m 139 0 l 139 216 l 382 216 l 382 0 l 139 0 z "},"¡":{"ha":521,"x_min":125,"x_max":396,"o":"m 176 611 l 345 611 l 396 201 l 396 -1 l 125 -1 l 125 201 l 176 611 m 382 930 l 382 714 l 139 714 l 139 930 l 382 930 z "},"?":{"ha":901,"x_min":69,"x_max":818,"o":"m 818 676 q 800 579 818 621 q 752 506 782 538 q 685 453 723 475 q 606 416 647 431 q 525 392 566 401 q 452 376 485 382 l 452 306 l 208 306 l 208 517 q 298 523 254 518 q 381 534 342 527 q 454 553 420 542 q 512 579 488 564 q 550 613 536 594 q 564 654 564 631 q 555 691 564 673 q 526 721 547 708 q 469 742 505 734 q 378 750 433 750 q 294 744 338 750 q 210 727 251 737 q 132 703 169 716 q 69 675 96 689 l 69 905 q 131 921 94 913 q 212 935 168 929 q 301 945 255 941 q 389 949 347 949 q 558 933 480 949 q 694 885 637 918 q 785 800 752 852 q 818 676 818 749 m 208 0 l 208 216 l 452 216 l 452 0 l 208 0 z "},"¿":{"ha":901,"x_min":83,"x_max":832,"o":"m 83 256 q 101 352 83 311 q 149 426 119 394 q 216 479 178 457 q 295 516 254 500 q 376 540 336 531 q 450 555 416 549 l 450 627 l 693 627 l 693 415 q 561 404 625 413 q 447 379 497 395 q 368 337 397 362 q 338 278 338 313 q 346 241 338 258 q 375 211 354 224 q 432 190 396 197 q 524 182 468 182 q 607 188 564 182 q 691 205 650 195 q 769 230 732 216 q 832 257 806 243 l 832 26 q 770 11 808 18 q 690 -3 733 3 q 601 -13 647 -9 q 513 -17 555 -17 q 343 -2 421 -17 q 207 47 264 14 q 116 132 149 80 q 83 256 83 183 m 693 932 l 693 715 l 450 715 l 450 932 l 693 932 z "},"‘":{"ha":354,"x_min":35,"x_max":319,"o":"m 140 932 l 319 932 l 257 590 l 35 590 l 140 932 z "},"’":{"ha":354,"x_min":35,"x_max":319,"o":"m 214 590 l 35 590 l 97 932 l 319 932 l 214 590 z "},"“":{"ha":660,"x_min":35,"x_max":625,"o":"m 140 932 l 319 932 l 257 590 l 35 590 l 140 932 m 446 932 l 625 932 l 562 590 l 340 590 l 446 932 z "},"”":{"ha":660,"x_min":35,"x_max":625,"o":"m 519 590 l 340 590 l 403 932 l 625 932 l 519 590 m 214 590 l 35 590 l 97 932 l 319 932 l 214 590 z "},"‚":{"ha":354,"x_min":35,"x_max":319,"o":"m 214 -125 l 35 -125 l 97 216 l 319 216 l 214 -125 z "},"„":{"ha":660,"x_min":35,"x_max":625,"o":"m 519 -125 l 340 -125 l 403 216 l 625 216 l 519 -125 m 214 -125 l 35 -125 l 97 216 l 319 216 l 214 -125 z "},"‹":{"ha":458,"x_min":41,"x_max":410,"o":"m 41 435 l 41 496 l 277 751 l 410 628 l 249 465 l 410 302 l 277 179 l 41 435 z "},"›":{"ha":458,"x_min":49,"x_max":416,"o":"m 416 496 l 416 435 l 182 179 l 49 302 l 210 465 l 49 628 l 182 751 l 416 496 z "},"«":{"ha":819,"x_min":41,"x_max":771,"o":"m 41 435 l 41 496 l 277 751 l 410 628 l 249 465 l 410 302 l 277 179 l 41 435 m 403 435 l 403 496 l 637 751 l 771 628 l 610 465 l 771 302 l 637 179 l 403 435 z "},"»":{"ha":819,"x_min":49,"x_max":778,"o":"m 778 496 l 778 435 l 543 179 l 410 302 l 571 465 l 410 628 l 543 751 l 778 496 m 416 496 l 416 435 l 182 179 l 49 302 l 210 465 l 49 628 l 182 751 l 416 496 z "},"·":{"ha":396,"x_min":69,"x_max":326,"o":"m 69 346 l 69 590 l 326 590 l 326 346 l 69 346 z "},"…":{"ha":1187,"x_min":69,"x_max":1118,"o":"m 69 0 l 69 244 l 326 244 l 326 0 l 69 0 m 465 0 l 465 244 l 722 244 l 722 0 l 465 0 m 861 0 l 861 244 l 1118 244 l 1118 0 l 861 0 z "},"-":{"ha":750,"x_min":97,"x_max":653,"o":"m 97 354 l 97 576 l 653 576 l 653 354 l 97 354 z "},"­":{"ha":750,"x_min":97,"x_max":653,"o":"m 97 354 l 97 576 l 653 576 l 653 354 l 97 354 z "},"–":{"ha":694,"x_min":69,"x_max":625,"o":"m 69 372 l 69 558 l 625 558 l 625 372 l 69 372 z "},"—":{"ha":1389,"x_min":0,"x_max":1389,"o":"m 0 372 l 0 558 l 1389 558 l 1389 372 l 0 372 z "},"_":{"ha":694,"x_min":0,"x_max":694,"o":"m 0 -267 l 0 -92 l 694 -92 l 694 -267 l 0 -267 z "},"`":{"ha":733,"x_min":98,"x_max":514,"o":"m 187 1078 l 514 888 l 453 772 l 98 899 l 187 1078 z "},"´":{"ha":733,"x_min":220,"x_max":635,"o":"m 635 899 l 281 772 l 220 888 l 546 1078 l 635 899 z "},"¨":{"ha":733,"x_min":104,"x_max":629,"o":"m 104 786 l 104 997 l 315 997 l 315 786 l 104 786 m 418 786 l 418 997 l 629 997 l 629 786 l 418 786 z "},"¯":{"ha":733,"x_min":139,"x_max":595,"o":"m 139 800 l 139 974 l 595 974 l 595 800 l 139 800 z "},"¸":{"ha":733,"x_min":143,"x_max":579,"o":"m 392 -53 q 454 -58 421 -53 q 515 -78 488 -63 q 561 -119 543 -93 q 579 -189 579 -146 q 558 -262 579 -233 q 502 -309 536 -291 q 425 -334 467 -327 q 339 -342 382 -342 q 271 -340 301 -342 q 217 -335 241 -338 q 176 -329 194 -332 q 143 -323 157 -326 l 143 -192 q 213 -215 174 -205 q 294 -225 252 -225 q 334 -223 315 -225 q 366 -216 353 -220 q 387 -203 379 -211 q 395 -186 395 -196 q 386 -166 395 -174 q 363 -155 376 -159 q 334 -150 349 -151 q 307 -149 319 -149 q 271 -151 290 -149 q 236 -157 252 -153 l 301 14 l 418 14 l 392 -53 z "},"ˆ":{"ha":733,"x_min":49,"x_max":685,"o":"m 603 772 l 367 895 l 131 772 l 49 900 l 367 1080 l 685 900 l 603 772 z "},"ˇ":{"ha":733,"x_min":49,"x_max":685,"o":"m 131 1080 l 367 958 l 603 1080 l 685 953 l 367 772 l 49 953 l 131 1080 z "},"˘":{"ha":733,"x_min":90,"x_max":643,"o":"m 643 1053 q 637 1009 642 1036 q 621 952 633 983 q 590 892 610 922 q 541 837 571 861 q 467 796 510 812 q 367 781 425 781 q 266 796 309 781 q 193 837 223 812 q 143 892 163 861 q 112 952 123 922 q 96 1009 101 983 q 90 1053 91 1036 l 218 1053 q 231 1023 222 1040 q 256 991 239 1006 q 299 964 273 975 q 367 953 326 953 q 434 964 407 953 q 477 991 460 975 q 504 1023 494 1006 q 517 1053 513 1040 l 643 1053 l 643 1053 z "},"˙":{"ha":733,"x_min":258,"x_max":475,"o":"m 258 786 l 258 1002 l 475 1002 l 475 786 l 258 786 z "},"˚":{"ha":733,"x_min":161,"x_max":572,"o":"m 161 918 q 175 981 161 951 q 214 1033 188 1010 q 278 1067 239 1055 q 367 1080 316 1080 q 455 1067 417 1080 q 520 1033 494 1055 q 559 981 546 1010 q 572 918 572 951 q 559 856 572 885 q 520 804 546 826 q 455 768 494 781 q 367 755 417 755 q 278 768 316 755 q 214 804 239 781 q 175 856 188 826 q 161 918 161 885 m 300 918 q 317 871 300 890 q 367 852 334 852 q 416 871 399 852 q 432 918 432 890 q 416 964 432 945 q 367 983 399 983 q 317 964 334 983 q 300 918 300 945 z "},"˛":{"ha":733,"x_min":143,"x_max":579,"o":"m 432 14 q 391 -22 409 -3 q 359 -62 372 -41 q 339 -102 346 -82 q 332 -140 332 -122 q 351 -180 332 -169 q 414 -192 371 -192 q 456 -188 433 -192 q 502 -178 479 -184 q 545 -165 524 -172 q 579 -153 565 -159 l 579 -293 q 543 -303 565 -297 q 491 -315 521 -309 q 426 -324 462 -320 q 349 -328 390 -328 q 271 -320 308 -328 q 205 -296 233 -313 q 160 -252 177 -279 q 143 -184 143 -224 q 153 -135 143 -163 q 182 -80 163 -108 q 229 -28 201 -53 q 289 14 256 -3 l 432 14 z "},"˜":{"ha":733,"x_min":100,"x_max":633,"o":"m 633 1025 q 622 913 633 960 q 588 836 610 866 q 535 792 566 806 q 464 778 503 778 q 402 791 427 778 q 357 819 377 804 q 320 847 338 834 q 281 860 302 860 q 249 850 260 860 q 231 826 237 840 q 222 798 224 812 q 220 778 220 785 l 100 778 q 112 881 100 836 q 146 959 123 927 q 200 1008 168 991 q 271 1025 231 1025 q 326 1012 302 1025 q 370 984 349 999 q 409 956 390 968 q 453 943 429 943 q 485 954 473 943 q 503 977 497 964 q 511 1004 509 990 q 514 1025 513 1017 l 633 1025 l 633 1025 z "},"˝":{"ha":733,"x_min":132,"x_max":732,"o":"m 440 899 l 183 772 l 132 848 l 350 1043 l 440 899 m 732 899 l 475 772 l 427 848 l 642 1043 l 732 899 z "}," ":{"ha":522,"x_min":0,"x_max":0,"o":""}," ":{"ha":522,"x_min":0,"x_max":0,"o":""},"µ":{"ha":1096,"x_min":35,"x_max":978,"o":"m 437 650 l 364 272 q 375 232 367 253 q 397 194 383 211 q 432 165 412 176 q 478 154 452 154 q 550 171 517 154 q 608 215 582 188 q 655 275 634 241 q 694 343 677 309 l 754 650 l 978 650 l 900 245 q 892 195 895 217 q 890 153 890 172 q 893 110 890 130 q 899 73 895 91 q 908 38 903 56 q 920 0 913 20 l 696 0 q 688 27 691 15 q 682 53 684 39 q 676 83 679 66 q 671 125 673 100 q 633 71 652 96 q 589 26 614 45 q 533 -4 564 7 q 460 -16 501 -16 q 423 -11 442 -16 q 386 5 404 -6 q 353 33 368 16 q 326 77 337 51 l 258 -278 l 35 -278 l 214 650 l 437 650 z "},"μ":{"ha":1096,"x_min":35,"x_max":978,"o":"m 437 650 l 364 272 q 375 232 367 253 q 397 194 383 211 q 432 165 412 176 q 478 154 452 154 q 550 171 517 154 q 608 215 582 188 q 655 275 634 241 q 694 343 677 309 l 754 650 l 978 650 l 900 245 q 892 195 895 217 q 890 153 890 172 q 893 110 890 130 q 899 73 895 91 q 908 38 903 56 q 920 0 913 20 l 696 0 q 688 27 691 15 q 682 53 684 39 q 676 83 679 66 q 671 125 673 100 q 633 71 652 96 q 589 26 614 45 q 533 -4 564 7 q 460 -16 501 -16 q 423 -11 442 -16 q 386 5 404 -6 q 353 33 368 16 q 326 77 337 51 l 258 -278 l 35 -278 l 214 650 l 437 650 z "},"∂":{"ha":1203,"x_min":81,"x_max":1122,"o":"m 607 753 q 514 748 557 753 q 432 735 471 743 q 359 715 394 726 q 292 689 325 703 l 319 904 q 391 922 352 914 q 472 936 431 930 q 554 945 513 942 q 633 949 595 949 q 858 920 765 949 q 1009 838 951 890 q 1095 710 1068 785 q 1122 545 1122 635 q 1079 307 1122 411 q 956 130 1035 202 q 767 20 878 58 q 524 -18 656 -18 q 332 6 415 -18 q 194 72 250 31 q 109 168 138 113 q 81 283 81 222 q 110 427 81 363 q 196 535 138 490 q 338 603 253 579 q 538 627 424 627 q 647 617 595 627 q 742 594 699 608 q 818 566 785 581 q 869 541 850 551 q 858 619 869 581 q 818 687 847 657 q 737 735 788 717 q 607 753 686 753 m 554 441 q 462 433 503 441 q 392 407 420 424 q 347 366 363 391 q 332 309 332 341 q 343 254 332 279 q 380 213 355 230 q 444 186 406 195 q 536 176 483 176 q 655 196 605 176 q 740 244 705 216 q 797 304 775 273 q 832 361 819 336 q 778 389 810 374 q 709 415 746 403 q 632 434 672 427 q 554 441 592 441 z "},"̦":{"ha":733,"x_min":241,"x_max":497,"o":"m 407 -342 l 241 -342 l 275 -83 l 497 -83 l 407 -342 z "},"∕":{"ha":310,"x_min":-311,"x_max":621,"o":"m -122 0 l -311 0 l 433 932 l 621 932 l -122 0 z "}}}
